<svg width="355" height="355" viewBox="0 0 355 355" fill="none" xmlns="http://www.w3.org/2000/svg">
<path d="M177.5 355C275.531 355 355 275.531 355 177.5C355 79.4695 275.531 0 177.5 0C79.4695 0 0 79.4695 0 177.5C0 275.531 79.4695 355 177.5 355Z" fill="white"/>
<path d="M56.0725 260.459L42.2799 264.708L42.1926 264.562L52.3479 254.203L50.602 251.323L36.7221 255.338L36.6057 255.193L46.8775 245.066L44.957 241.895L31.368 256.269L33.1139 259.208L46.5574 255.629L46.6447 255.745L37.1295 265.872L38.8754 268.811L57.9639 263.631L56.0725 260.459Z" fill="#0047AB"/>
<path d="M63.1434 269.567L44.2004 276.551L46.5574 279.373L51.184 277.598L55.7525 283.127L53.1336 287.346L55.4906 290.169L65.8787 272.855L63.1434 269.567ZM57.2656 280.625L53.8902 276.551L61.4266 273.641L61.5139 273.757L57.2656 280.625Z" fill="#0047AB"/>
<path d="M80.166 291.507L82.1447 289.412L71.1164 278.937L69.1377 281.061L73.4151 285.106L62.2996 296.832L64.7729 299.189L75.8885 287.463L80.166 291.507Z" fill="#0047AB"/>
<path d="M87.0332 296.803L94.2205 302.099L95.9373 299.771L85.9566 292.439L74.6955 307.802L84.7344 315.164L86.4512 312.836L79.1766 307.511L82.2611 303.321L88.9537 308.21L90.6414 305.882L83.9779 300.993L87.0332 296.803Z" fill="#0047AB"/>
<path d="M106.791 306.173L100.535 302.71L91.3107 319.384L94.3369 321.042L97.7123 314.932L100.797 316.619L100.68 324.534L104.056 326.396L104.114 317.812C104.259 317.841 104.376 317.841 104.521 317.841C105.627 317.9 106.645 317.667 107.518 317.143C108.391 316.619 109.148 315.805 109.73 314.728C110.312 313.651 110.603 312.604 110.603 311.556C110.603 310.509 110.283 309.519 109.672 308.588C109.002 307.715 108.071 306.9 106.791 306.173ZM106.616 313.069C106.296 313.651 105.889 314.088 105.452 314.379C104.987 314.641 104.463 314.757 103.881 314.699C103.299 314.641 102.63 314.408 101.873 314L99.0799 312.458L102.135 306.93L104.9 308.472C105.656 308.879 106.209 309.345 106.558 309.81C106.907 310.305 107.082 310.8 107.082 311.352C107.111 311.905 106.966 312.458 106.616 313.069Z" fill="#0047AB"/>
<path d="M126.752 315.805C125.967 314.99 124.948 314.35 123.697 313.855C122.446 313.36 121.253 313.157 120.118 313.186C118.954 313.244 117.965 313.535 117.063 314.088C116.19 314.641 115.55 315.455 115.142 316.503C114.648 317.783 114.677 318.947 115.2 320.053C115.753 321.159 116.684 322.177 117.994 323.137L119.798 324.447C120.38 324.854 120.845 325.261 121.253 325.64C121.66 326.018 121.922 326.425 122.068 326.833C122.213 327.24 122.184 327.677 122.009 328.142C121.806 328.637 121.486 329.015 121.02 329.277C120.584 329.539 120.031 329.655 119.42 329.655C118.809 329.655 118.168 329.51 117.47 329.248C116.801 328.986 116.248 328.637 115.782 328.23C115.317 327.822 114.997 327.327 114.822 326.804C114.648 326.251 114.648 325.669 114.851 325.029L111.68 323.777C111.272 324.97 111.185 326.105 111.418 327.124C111.65 328.171 112.203 329.102 113.047 329.917C113.891 330.732 114.997 331.43 116.393 331.983C117.819 332.536 119.1 332.798 120.293 332.74C121.457 332.682 122.475 332.391 123.319 331.809C124.163 331.227 124.774 330.412 125.181 329.393C125.472 328.637 125.618 327.909 125.53 327.211C125.443 326.513 125.268 325.873 124.948 325.291C124.628 324.68 124.192 324.127 123.668 323.632C123.144 323.108 122.591 322.643 121.98 322.235L120.496 321.159C120.176 320.926 119.856 320.693 119.536 320.402C119.216 320.14 118.954 319.849 118.75 319.558C118.518 319.267 118.401 318.947 118.314 318.598C118.256 318.249 118.285 317.9 118.43 317.55C118.605 317.114 118.896 316.765 119.274 316.532C119.652 316.299 120.147 316.154 120.7 316.154C121.253 316.154 121.864 316.27 122.533 316.532C123.493 316.91 124.163 317.434 124.599 318.074C125.036 318.743 125.123 319.442 124.919 320.227L128.004 321.45C128.382 320.431 128.44 319.442 128.207 318.482C128.033 317.492 127.538 316.59 126.752 315.805Z" fill="#0047AB"/>
<path d="M145.317 321.624C144.473 320.839 143.368 320.286 141.942 319.936L135.016 318.191L130.361 336.668L133.707 337.512L135.278 331.285L138.799 332.187C140.225 332.536 141.476 332.594 142.582 332.303C143.688 332.012 144.619 331.489 145.346 330.703C146.074 329.917 146.598 328.928 146.889 327.735C147.18 326.571 147.209 325.465 146.947 324.418C146.685 323.312 146.132 322.381 145.317 321.624ZM143.484 326.833C143.309 327.502 143.048 328.026 142.669 328.462C142.291 328.899 141.796 329.19 141.185 329.364C140.574 329.51 139.876 329.481 139.032 329.277L135.948 328.491L137.635 321.799L140.691 322.584C141.534 322.788 142.175 323.108 142.64 323.516C143.106 323.923 143.397 324.418 143.513 324.97C143.659 325.552 143.659 326.164 143.484 326.833Z" fill="#0047AB"/>
<path d="M165.773 324.796C164.551 323.894 163.096 323.341 161.438 323.137C159.779 322.963 158.266 323.166 156.869 323.807C155.473 324.418 154.309 325.436 153.407 326.804C152.504 328.171 151.923 329.859 151.69 331.925C151.457 333.962 151.661 335.737 152.243 337.279C152.854 338.821 153.756 340.043 154.978 340.975C156.2 341.906 157.655 342.459 159.314 342.633C160.972 342.808 162.485 342.604 163.882 341.964C165.279 341.353 166.443 340.334 167.345 338.967C168.276 337.599 168.829 335.911 169.061 333.845C169.294 331.809 169.091 330.005 168.509 328.491C167.898 326.949 166.995 325.727 165.773 324.796ZM165.628 333.467C165.482 334.893 165.104 336.086 164.551 337.017C163.998 337.948 163.3 338.647 162.456 339.054C161.612 339.461 160.681 339.636 159.634 339.52C158.615 339.403 157.713 339.054 156.986 338.443C156.258 337.861 155.705 337.017 155.385 335.999C155.036 334.951 154.949 333.729 155.123 332.274C155.269 330.848 155.647 329.655 156.2 328.724C156.753 327.793 157.451 327.095 158.295 326.687C159.139 326.28 160.07 326.105 161.118 326.222C162.136 326.338 163.038 326.687 163.766 327.298C164.493 327.88 165.046 328.724 165.366 329.743C165.686 330.79 165.773 332.012 165.628 333.467Z" fill="#0047AB"/>
<path d="M186.375 335.475C187.364 334.951 188.092 334.253 188.586 333.351C189.081 332.449 189.314 331.372 189.285 330.15C189.256 328.928 188.965 327.88 188.412 326.978C187.888 326.076 187.102 325.378 186.084 324.912C185.066 324.447 183.843 324.214 182.388 324.243L175.259 324.447L175.812 343.477L179.275 343.39L179.071 336.406L182.592 336.319L186.52 343.186L190.361 343.07L186.026 335.65C186.113 335.591 186.259 335.533 186.375 335.475ZM178.78 327.24L181.952 327.153C182.825 327.124 183.523 327.24 184.076 327.473C184.629 327.706 185.036 328.055 185.327 328.55C185.618 329.015 185.764 329.597 185.764 330.266C185.793 330.936 185.677 331.518 185.415 331.983C185.153 332.449 184.775 332.827 184.222 333.06C183.669 333.322 183 333.467 182.127 333.467L178.955 333.555L178.78 327.24Z" fill="#0047AB"/>
<path d="M208.344 321.275L193.33 323.661L193.795 326.542L199.615 325.582L202.175 341.557L205.551 341.004L202.99 325.058L208.81 324.127L208.344 321.275Z" fill="#0047AB"/>
<path d="M228.248 320.14C227.142 319.005 225.803 318.249 224.29 317.929C222.777 317.609 221.089 317.725 219.285 318.278L213 320.198L218.558 338.414L224.727 336.523C226.589 335.97 228.044 335.097 229.15 333.962C230.255 332.827 230.925 331.489 231.216 329.888C231.507 328.288 231.361 326.571 230.779 324.68C230.226 322.788 229.382 321.275 228.248 320.14ZM227.957 329.364C227.811 330.412 227.375 331.314 226.676 332.041C225.978 332.769 224.989 333.322 223.708 333.7L221.002 334.515L217.19 322.002L220.013 321.129C221.235 320.751 222.341 320.664 223.33 320.868C224.29 321.071 225.134 321.566 225.861 322.352C226.56 323.137 227.142 324.243 227.549 325.64C227.957 327.066 228.073 328.288 227.957 329.364Z" fill="#0047AB"/>
<path d="M236.17 312.082L232.981 313.431L240.407 330.985L243.596 329.635L236.17 312.082Z" fill="#0047AB"/>
<path d="M254.523 306.202C253.621 305.62 252.603 305.3 251.468 305.3C250.333 305.3 249.111 305.649 247.831 306.348L241.545 309.752L250.624 326.513L253.65 324.883L250.595 319.238L253.796 317.492C255.076 316.794 256.036 315.979 256.677 315.019C257.288 314.059 257.608 313.04 257.608 311.964C257.608 310.887 257.317 309.81 256.735 308.734C256.182 307.628 255.425 306.813 254.523 306.202ZM253.679 313.797C253.33 314.321 252.807 314.786 252.05 315.193L249.257 316.707L245.968 310.654L248.762 309.141C249.518 308.734 250.217 308.53 250.828 308.501C251.439 308.501 251.992 308.646 252.486 308.966C252.952 309.286 253.359 309.752 253.679 310.334C254 310.916 254.174 311.527 254.174 312.109C254.174 312.72 254.029 313.273 253.679 313.797Z" fill="#0047AB"/>
<path d="M270.062 311.614L260.721 298.433L257.899 300.441L268.927 315.979L278.588 309.112L276.9 306.755L270.062 311.614Z" fill="#0047AB"/>
<path d="M289.878 286.532C288.481 285.018 287.026 284 285.455 283.418C283.913 282.865 282.37 282.749 280.886 283.069C279.402 283.389 278.035 284.116 276.813 285.251C275.591 286.386 274.747 287.666 274.31 289.15C273.874 290.605 273.845 292.148 274.281 293.748C274.718 295.348 275.62 296.891 277.016 298.404C278.413 299.917 279.868 300.935 281.41 301.488C282.952 302.041 284.495 302.157 285.979 301.837C287.463 301.517 288.83 300.79 290.052 299.655C291.275 298.52 292.118 297.24 292.555 295.756C292.991 294.301 293.02 292.759 292.584 291.158C292.177 289.587 291.245 288.045 289.878 286.532ZM289.441 294.97C289.209 295.872 288.714 296.687 287.928 297.385C287.172 298.084 286.328 298.52 285.397 298.666C284.466 298.84 283.505 298.695 282.487 298.258C281.468 297.822 280.479 297.094 279.519 296.018C278.529 294.941 277.889 293.893 277.54 292.875C277.191 291.827 277.133 290.867 277.395 289.936C277.627 289.034 278.122 288.219 278.908 287.521C279.664 286.823 280.508 286.386 281.439 286.241C282.37 286.066 283.331 286.211 284.349 286.648C285.368 287.084 286.357 287.812 287.317 288.889C288.307 289.965 288.947 291.013 289.296 292.031C289.645 293.05 289.703 294.039 289.441 294.97Z" fill="#0047AB"/>
<path d="M296.6 263.544L303.961 276.522L303.816 276.696L289.47 272.623L286.881 275.94L301.837 287.725L303.903 285.106L293.573 277.016L293.69 276.871L307.22 280.799L308.734 278.85L301.75 266.657L301.866 266.512L312.138 274.601L314.175 272.011L299.218 260.227L296.6 263.544Z" fill="#0047AB"/>
<path d="M324.941 253.679L326.745 250.45L306.842 247.045L304.776 250.77L318.161 265.901L319.966 262.671L316.619 259.004L320.111 252.748L324.941 253.679ZM314.611 256.88L309.17 250.886L309.228 250.77L317.172 252.254L314.611 256.88Z" fill="#0047AB"/>
<path d="M37.0131 233.311C36.4311 233.311 35.8783 232.961 35.6455 232.38C28.9529 214.979 25.5484 196.589 25.5484 177.762C25.5484 165.308 27.0615 152.912 30.0295 140.952C32.9102 129.313 37.2168 118.023 42.7746 107.402C53.6865 86.5385 69.5742 68.2066 88.6918 54.4139C89.332 53.9484 90.2631 54.0939 90.7287 54.734C91.1942 55.3742 91.0488 56.3053 90.4086 56.7709C51.6205 84.7635 28.4582 129.982 28.4582 177.762C28.4582 196.239 31.8045 214.251 38.3807 231.332C38.6717 232.089 38.2934 232.932 37.5369 233.223C37.3623 233.282 37.1877 233.311 37.0131 233.311Z" fill="#0047AB"/>
<path d="M318.161 233.252C317.987 233.252 317.812 233.223 317.638 233.165C316.881 232.874 316.503 232.03 316.794 231.274C323.37 214.222 326.687 196.21 326.687 177.762C326.687 129.895 303.438 84.5889 264.533 56.5963C263.893 56.1307 263.718 55.2287 264.213 54.5594C264.679 53.9193 265.581 53.7447 266.25 54.2393C285.455 68.032 301.372 86.3639 312.342 107.257C317.929 117.907 322.235 129.226 325.145 140.865C328.142 152.854 329.655 165.279 329.655 177.762C329.655 196.559 326.251 214.921 319.558 232.321C319.325 232.903 318.773 233.252 318.161 233.252Z" fill="#0047AB"/>
<path d="M26.8287 237.239C26.2467 237.239 25.6939 236.89 25.4611 236.308C18.2156 217.568 14.5492 197.782 14.5492 177.5C14.5492 164.144 16.1787 150.875 19.3504 138.043C22.4639 125.589 27.0615 113.484 33.0266 102.077C44.7242 79.7295 61.7467 60.0881 82.232 45.2771C82.8721 44.8115 83.8033 44.957 84.2689 45.5971C84.7344 46.2373 84.5889 47.1684 83.9488 47.634C42.309 77.6926 17.459 126.229 17.459 177.5C17.459 197.403 21.0672 216.841 28.1963 235.26C28.4873 236.017 28.109 236.861 27.3525 237.152C27.1779 237.21 27.0033 237.239 26.8287 237.239Z" fill="#0047AB"/>
<path d="M328.171 237.21C327.997 237.21 327.822 237.181 327.648 237.123C326.891 236.832 326.513 235.988 326.804 235.231C333.933 216.841 337.541 197.403 337.541 177.5C337.541 126.2 312.662 77.6635 271.022 47.6049C270.382 47.1393 270.236 46.2373 270.702 45.568C271.168 44.9279 272.07 44.7824 272.739 45.248C293.253 60.059 310.276 79.7004 321.973 102.048C327.939 113.455 332.536 125.559 335.65 138.014C338.85 150.846 340.451 164.144 340.451 177.471C340.451 197.752 336.784 217.51 329.51 236.25C329.306 236.861 328.753 237.21 328.171 237.21Z" fill="#0047AB"/>
<path d="M102.164 30.2914L108.391 41.6688L108.246 41.7561L94.1623 34.6561L91.4561 36.1402L100.593 52.8717L103.619 51.2131L97.3922 39.8356L97.5377 39.7484L111.621 46.8193L114.327 45.3643L105.191 28.6328L102.164 30.2914Z" fill="#0047AB"/>
<path d="M117.499 23.4533L117.907 43.6475L121.369 42.3672L121.195 37.4205L127.887 34.918L131.001 38.759L134.464 37.4787L121.486 21.9984L117.499 23.4533ZM121.078 34.4815L120.787 26.3922L120.933 26.334L126.025 32.6193L121.078 34.4815Z" fill="#0047AB"/>
<path d="M145.637 15.1311L130.884 18.7102L131.554 21.5328L137.286 20.1361L141.098 35.8492L144.444 35.0344L140.603 19.3213L146.336 17.9537L145.637 15.1311Z" fill="#0047AB"/>
<path d="M155.398 13.7062L151.971 14.201L154.695 33.0641L158.122 32.5693L155.398 13.7062Z" fill="#0047AB"/>
<path d="M178.489 16.2369C177.646 14.8111 176.54 13.7635 175.201 13.0652C173.834 12.3668 172.321 12.0467 170.662 12.134C169.003 12.2213 167.519 12.6869 166.239 13.5307C164.959 14.3746 163.969 15.5385 163.3 17.0516C162.602 18.5357 162.311 20.3107 162.427 22.3766C162.543 24.4135 163.009 26.1594 163.853 27.5561C164.697 28.982 165.802 30.0295 167.141 30.757C168.509 31.4553 170.022 31.7754 171.68 31.6881C173.339 31.6008 174.823 31.1352 176.103 30.2914C177.384 29.4475 178.373 28.2836 179.042 26.7705C179.741 25.2865 180.032 23.5115 179.915 21.4455C179.799 19.3795 179.333 17.6627 178.489 16.2369ZM175.958 25.3156C175.55 26.334 174.968 27.1197 174.212 27.6725C173.455 28.2254 172.553 28.5164 171.506 28.5746C170.458 28.6328 169.556 28.4291 168.712 27.9635C167.898 27.4979 167.228 26.7705 166.734 25.8102C166.239 24.85 165.948 23.6279 165.861 22.202C165.773 20.7471 165.948 19.525 166.355 18.5066C166.763 17.4881 167.345 16.7025 168.101 16.1496C168.858 15.5967 169.76 15.3057 170.807 15.2475C171.855 15.1893 172.757 15.393 173.601 15.8586C174.416 16.3242 175.085 17.0516 175.58 18.0119C176.074 18.9721 176.365 20.1943 176.452 21.6201C176.54 23.0459 176.365 24.2971 175.958 25.3156Z" fill="#0047AB"/>
<path d="M197.985 26.5086H197.811L190.245 12.6578L187.19 12.3377L185.182 31.2516L188.616 31.6299L189.983 18.7102L190.129 18.7393L197.694 32.5902L200.75 32.9102L202.757 13.9672L199.324 13.5889L197.985 26.5086Z" fill="#0047AB"/>
<path d="M215.852 16.7025L204.707 33.5213L208.286 34.4234L210.963 30.2623L217.918 32.0082L218.296 36.9549L221.875 37.857L219.984 17.7209L215.852 16.7025ZM212.505 27.7889L216.87 20.9799L217.016 21.009L217.656 29.0984L212.505 27.7889Z" fill="#0047AB"/>
<path d="M224.465 38.7008L227.869 40.0975L231.099 36.3439L237.734 39.05L237.414 43.9967L240.818 45.3934L241.778 25.2283L237.821 23.6279L224.465 38.7008ZM238.432 28.0508L237.908 36.1402L232.991 34.1324L238.257 27.9926L238.432 28.0508Z" fill="#0047AB"/>
<path d="M256.735 32.4447L253.738 30.7279L244.368 47.343L254.698 53.1336L256.124 50.6311L248.791 46.4992L256.735 32.4447Z" fill="#0047AB"/>
<path d="M125.967 224.639C125.559 224.639 125.123 224.61 124.686 224.552C114.502 223.01 107.955 219.082 103.183 216.23C98.498 213.407 96.3447 212.127 90.2049 212.127C84.0652 212.127 81.9119 213.407 77.2271 216.23C72.4549 219.111 65.8787 223.039 55.6652 224.581C55.4033 224.61 55.1123 224.639 54.8504 224.639C52.4644 224.639 50.3693 223.126 49.6127 220.886C46.9939 213.175 45.0734 205.173 43.9094 197.112C43.6766 195.599 44.1131 194.057 45.0734 192.864C46.0336 191.671 47.4594 190.914 49.0016 190.798C53.4246 190.478 55.4906 189.227 59.5934 186.782C65.5295 183.203 74.55 177.791 90.2049 177.791C105.86 177.791 114.88 183.203 120.875 186.782L122.33 187.655C126.258 190.012 129.051 193.766 130.157 198.218L134.143 214.164C134.784 216.695 134.231 219.343 132.601 221.409C130.972 223.475 128.557 224.639 125.967 224.639Z" fill="#0047AB"/>
<path d="M229.033 224.639C226.443 224.639 224.028 223.446 222.428 221.409C220.827 219.343 220.245 216.695 220.886 214.164L224.872 198.218C225.978 193.766 228.771 190.012 232.7 187.655L234.155 186.782C240.12 183.203 249.14 177.791 264.795 177.791C280.45 177.791 289.471 183.203 295.465 186.782C299.568 189.227 301.605 190.478 306.057 190.798C307.599 190.914 309.025 191.671 309.985 192.864C310.945 194.057 311.352 195.599 311.149 197.112C309.985 205.173 308.064 213.175 305.445 220.886C304.689 223.126 302.594 224.639 300.208 224.639C299.946 224.639 299.655 224.61 299.393 224.581C289.18 223.039 282.632 219.111 277.86 216.23C273.175 213.407 271.022 212.127 264.882 212.127C258.743 212.127 256.589 213.407 251.905 216.23C247.132 219.082 240.585 223.01 230.401 224.552C229.877 224.61 229.441 224.639 229.033 224.639Z" fill="#0047AB"/>
<path d="M142.669 307.279C140.923 307.279 139.207 307.017 137.519 306.493C115.52 299.684 95.4717 287.201 79.5549 270.44C78.1 268.927 77.6635 266.745 78.3619 264.766C79.0893 262.787 80.8352 261.391 82.9012 261.158C85.2291 260.896 87.7025 260.75 90.2049 260.75C105.86 260.75 114.88 266.163 120.875 269.742C125.559 272.564 127.713 273.845 133.852 273.845C139.992 273.845 142.145 272.564 146.83 269.742C152.825 266.134 161.845 260.721 177.5 260.721C193.155 260.721 202.175 266.134 208.17 269.713C212.855 272.535 215.008 273.816 221.148 273.816C227.287 273.816 229.441 272.535 234.125 269.713C240.12 266.134 249.14 260.721 264.795 260.721C267.298 260.721 269.742 260.867 272.099 261.129C274.194 261.361 275.94 262.758 276.638 264.737C277.366 266.716 276.9 268.898 275.445 270.411C259.528 287.201 239.48 299.684 217.481 306.493C215.793 307.017 214.077 307.279 212.331 307.279C211.138 307.279 209.916 307.162 208.752 306.9C200.371 305.096 194.668 301.663 190.478 299.16C185.793 296.338 183.64 295.057 177.5 295.057C171.331 295.057 169.207 296.338 164.522 299.16C160.332 301.663 154.629 305.096 146.248 306.9C145.055 307.162 143.862 307.279 142.669 307.279Z" fill="#0047AB"/>
<path d="M221.148 266.686C205.493 266.686 196.472 261.274 190.478 257.695C185.793 254.873 183.64 253.592 177.5 253.592C171.331 253.592 169.207 254.873 164.522 257.695C158.557 261.274 149.536 266.686 133.852 266.686C118.168 266.686 109.177 261.274 103.183 257.695C98.498 254.873 96.3447 253.592 90.2049 253.592C84.0652 253.592 81.9119 254.873 77.2271 257.695C76.7324 257.986 76.2377 258.277 75.7139 258.597C74.8701 259.092 73.8807 259.354 72.8914 259.354C71.1455 259.354 69.4578 258.51 68.4394 257.084C63.6672 250.537 59.448 243.553 55.9271 236.279C54.6758 233.718 55.6361 230.575 58.1094 229.12C58.575 228.859 59.0697 228.568 59.5644 228.248C65.5295 224.668 74.55 219.256 90.234 219.256C105.918 219.256 114.909 224.668 120.904 228.248C125.589 231.07 127.742 232.35 133.882 232.35C140.021 232.35 142.175 231.07 146.859 228.248C152.825 224.668 161.845 219.256 177.529 219.256C193.184 219.256 202.205 224.668 208.199 228.248C212.884 231.07 215.037 232.35 221.177 232.35C227.316 232.35 229.47 231.07 234.155 228.248C240.12 224.668 249.14 219.256 264.824 219.256C280.508 219.256 289.5 224.668 295.494 228.248C295.989 228.539 296.483 228.829 296.949 229.12C299.422 230.575 300.353 233.718 299.131 236.279C295.61 243.553 291.391 250.566 286.619 257.084C285.571 258.51 283.913 259.354 282.167 259.354C281.177 259.354 280.217 259.092 279.344 258.597C278.82 258.277 278.326 257.986 277.831 257.695C273.146 254.873 270.993 253.592 264.853 253.592C258.714 253.592 256.56 254.873 251.875 257.695C245.823 261.274 236.802 266.686 221.148 266.686Z" fill="#007FFF"/>
<path d="M47.9541 182.97C44.9279 182.97 42.4836 180.526 42.4836 177.5C42.4836 155.676 47.8086 133.969 57.9057 114.793C58.866 112.96 60.7574 111.825 62.7943 111.825C64.1328 111.825 65.4422 112.32 66.4607 113.222L87.0914 131.466L76.8779 91.1652C76.4123 89.332 76.907 87.4406 78.1582 86.0729C82.1156 81.7955 86.393 77.7217 90.8451 73.968C91.8344 73.1242 93.0857 72.6877 94.3951 72.6877C96.9266 72.6877 99.1381 74.4045 99.7783 76.8779C100.564 80.0205 119.42 154.134 120.787 160.914C121.602 164.929 120.642 168.945 118.168 171.971C115.724 174.939 112.087 176.656 108.188 176.656C107.082 176.656 105.947 176.511 104.841 176.249C104.725 176.22 104.638 176.191 104.521 176.161C99.4873 174.707 95.7918 172.408 90.6996 168.712L90.6414 168.654L70.8254 152.912C70.709 153.465 70.5635 154.047 70.4471 154.687L70.418 154.774C70.1852 155.851 69.807 157.975 69.3705 160.536C69.3705 160.565 69.3705 160.565 69.3705 160.594C68.5266 166.326 68.2066 171.564 68.032 175.463C67.9156 177.733 66.4025 179.741 64.2201 180.439C59.1861 182.068 54.2103 182.854 48.0414 182.97H47.9541Z" fill="#FF8000"/>
<path d="M204.445 221.089C202.263 221.089 200.08 220.507 198.16 219.431C194.261 217.248 191.118 214.717 188.616 212.709C183.96 208.984 182.418 207.733 177.529 207.733C172.641 207.733 171.069 208.984 166.443 212.709C163.911 214.717 160.798 217.219 156.898 219.431C154.978 220.507 152.795 221.089 150.613 221.089C144.706 221.089 139.614 217.103 138.188 211.4L102.979 70.5635C102.252 67.6246 103.474 64.5402 106.064 62.9398C112.291 59.0406 118.896 55.6361 125.676 52.8135C126.52 52.4643 127.422 52.2897 128.353 52.2897C131.554 52.2897 134.347 54.4721 135.133 57.5856L163.736 171.971C168.13 170.051 172.757 169.091 177.587 169.091C182.389 169.091 187.044 170.051 191.438 171.971L220.042 57.5856C220.827 54.4721 223.621 52.2897 226.822 52.2897C227.753 52.2897 228.626 52.4643 229.499 52.8135C236.279 55.6361 242.884 59.0406 249.111 62.9398C251.701 64.5402 252.923 67.6246 252.195 70.5635L216.986 211.4C215.444 217.103 210.323 221.089 204.445 221.089Z" fill="#FF8000"/>
<path d="M287.841 177.646C285.164 177.646 282.487 177.209 279.868 176.365C276.813 175.376 272.361 174.241 264.795 174.241C264.679 174.241 264.533 174.241 264.33 174.241C264.068 174.241 263.718 174.241 263.311 174.241C261.303 174.241 259.208 174.416 257.055 174.736H256.997C255.716 174.91 254.523 175.114 253.33 175.405L253.243 175.434C252.137 175.667 250.973 175.929 249.868 176.22C248.82 176.482 247.743 176.627 246.667 176.627C242.709 176.627 239.043 174.823 236.599 171.68C234.154 168.567 233.311 164.58 234.271 160.71L255.222 76.8779C255.833 74.4045 258.044 72.6877 260.605 72.6877C261.885 72.6877 263.166 73.1533 264.155 73.968C264.766 74.4627 265.377 74.9865 265.959 75.5102H265.988C267.036 76.4123 268.112 77.3725 269.189 78.391C286.211 94.1623 298.957 114.095 306.057 136.035C310.334 149.1 310.596 159.488 306.813 166.879C304.398 171.593 300.441 174.852 295.057 176.569C292.729 177.296 290.314 177.646 287.841 177.646ZM263.689 148.547C265.144 148.576 266.628 148.634 268.112 148.693C269.887 148.751 271.75 148.838 273.408 148.838C276.813 148.838 278.937 148.111 279.723 146.656C280.508 145.201 281.934 139.207 270.702 120.584L263.689 148.547Z" fill="#FF8000"/>
<path d="M125.967 221.729C125.676 221.729 125.414 221.7 125.123 221.671C115.491 220.216 109.235 216.463 104.667 213.727C99.8074 210.818 97.1303 209.217 90.1758 209.217C83.2213 209.217 80.5443 210.818 75.6848 213.727C71.1164 216.463 64.8312 220.245 55.1996 221.671C55.0832 221.7 54.9377 221.7 54.8213 221.7C53.6865 221.7 52.6971 220.973 52.348 219.925C49.7873 212.389 47.925 204.561 46.7611 196.676C46.6447 195.977 46.8484 195.221 47.3139 194.668C47.7795 194.086 48.4488 193.737 49.1762 193.679C54.2976 193.3 56.8291 191.787 61.0484 189.256C67.0717 185.648 75.3357 180.701 90.2049 180.701C105.074 180.701 113.338 185.648 119.361 189.285L120.816 190.158C124.075 192.107 126.403 195.221 127.305 198.916L131.292 214.862C131.699 216.521 131.35 218.267 130.273 219.605C129.226 220.973 127.655 221.729 125.967 221.729Z" fill="white"/>
<path d="M229.033 221.729C227.345 221.729 225.774 220.944 224.727 219.605C223.679 218.238 223.301 216.521 223.708 214.862L227.695 198.916C228.626 195.221 230.925 192.107 234.184 190.158L235.639 189.285C241.662 185.648 249.926 180.701 264.795 180.701C279.664 180.701 287.928 185.648 293.952 189.285C298.142 191.816 300.702 193.329 305.824 193.708C306.551 193.766 307.22 194.115 307.686 194.697C308.123 195.25 308.326 195.977 308.239 196.705C307.104 204.591 305.213 212.418 302.652 219.954C302.303 221.002 301.284 221.729 300.179 221.729C300.062 221.729 299.917 221.729 299.8 221.7C290.169 220.245 283.884 216.492 279.315 213.757C274.456 210.847 271.779 209.246 264.824 209.246C257.87 209.246 255.193 210.847 250.333 213.757C245.765 216.492 239.509 220.245 229.877 221.7C229.586 221.729 229.295 221.729 229.033 221.729Z" fill="white"/>
<path d="M142.669 304.369C141.214 304.369 139.759 304.136 138.363 303.729C116.859 297.065 97.2467 284.873 81.65 268.432C80.9516 267.705 80.748 266.686 81.0971 265.755C81.4463 264.824 82.2611 264.155 83.2504 264.039C85.4619 263.777 87.8189 263.631 90.2049 263.631C105.074 263.631 113.338 268.578 119.361 272.215C124.221 275.125 126.898 276.725 133.852 276.725C140.807 276.725 143.484 275.125 148.343 272.215C154.367 268.578 162.631 263.631 177.5 263.631C192.369 263.631 200.633 268.578 206.657 272.215C211.516 275.125 214.193 276.725 221.148 276.725C228.102 276.725 230.779 275.125 235.639 272.215C241.662 268.578 249.926 263.631 264.795 263.631C267.181 263.631 269.538 263.777 271.75 264.039C272.739 264.155 273.554 264.795 273.903 265.755C274.252 266.686 274.019 267.734 273.35 268.432C257.753 284.844 238.141 297.065 216.637 303.729C215.241 304.165 213.786 304.369 212.331 304.369C211.341 304.369 210.323 304.252 209.363 304.049C201.448 302.361 196.21 299.189 191.991 296.658C187.132 293.748 184.455 292.148 177.5 292.148C170.545 292.148 167.868 293.748 163.009 296.658C158.79 299.189 153.523 302.361 145.637 304.049C144.648 304.252 143.659 304.369 142.669 304.369Z" fill="white"/>
<path d="M221.148 263.777C206.278 263.777 198.014 258.83 191.991 255.193C187.132 252.283 184.455 250.682 177.5 250.682C170.546 250.682 167.868 252.283 163.009 255.193C156.986 258.801 148.722 263.777 133.852 263.777C118.983 263.777 110.719 258.83 104.696 255.193C99.8365 252.283 97.1594 250.682 90.2049 250.682C83.2504 250.682 80.5734 252.283 75.7139 255.193C75.2193 255.484 74.7246 255.775 74.2299 256.095C73.8226 256.327 73.357 256.473 72.8914 256.473C72.0476 256.473 71.2619 256.066 70.7672 255.396C66.0824 248.995 61.9795 242.157 58.5168 235.027C57.9348 233.805 58.3713 232.321 59.5353 231.623C60.0008 231.332 60.4955 231.041 61.0193 230.75C67.0426 227.142 75.3066 222.166 90.1758 222.166C105.045 222.166 113.309 227.113 119.332 230.75C124.192 233.66 126.869 235.26 133.823 235.26C140.778 235.26 143.455 233.66 148.314 230.75C154.338 227.142 162.602 222.166 177.471 222.166C192.34 222.166 200.604 227.113 206.627 230.75C211.487 233.66 214.164 235.26 221.118 235.26C228.073 235.26 230.75 233.66 235.609 230.75C241.633 227.142 249.897 222.166 264.766 222.166C279.635 222.166 287.899 227.113 293.923 230.75C294.446 231.07 294.912 231.361 295.407 231.623C296.571 232.321 297.036 233.805 296.425 235.027C292.991 242.157 288.859 248.995 284.175 255.396C283.68 256.066 282.894 256.473 282.05 256.473C281.585 256.473 281.119 256.357 280.712 256.095C280.188 255.804 279.693 255.484 279.228 255.193C274.368 252.283 271.691 250.682 264.737 250.682C257.782 250.682 255.105 252.283 250.246 255.193C244.281 258.83 236.017 263.777 221.148 263.777Z" fill="white"/>
<path d="M47.9541 180.061C46.5574 180.061 45.3934 178.897 45.3934 177.5C45.3934 156.142 50.6021 134.929 60.4955 116.132C60.9611 115.259 61.834 114.735 62.8234 114.735C63.4635 114.735 64.0746 114.968 64.5402 115.404L92.2418 139.905L79.7295 90.4668C79.4967 89.5938 79.7295 88.6918 80.3406 88.0516C84.2107 83.8615 88.3717 79.875 92.7656 76.2086C93.2311 75.8012 93.8422 75.5975 94.4533 75.5975C95.6754 75.5975 96.7229 76.4123 97.0139 77.5762C97.7996 80.7189 116.626 154.774 117.994 161.496C118.634 164.639 117.907 167.81 115.957 170.138C114.066 172.437 111.243 173.775 108.217 173.775C107.344 173.775 106.442 173.659 105.569 173.455C105.511 173.455 105.452 173.426 105.423 173.397H105.394C100.768 172.059 97.2758 169.905 92.4746 166.384L69.2541 147.936L69.225 148.052C68.5848 150.148 68.1484 151.661 67.6537 154.163C67.4209 155.327 67.0135 157.422 66.5771 160.07C66.5771 160.099 66.5771 160.128 66.548 160.157C65.7041 166.035 65.3549 171.36 65.1803 175.347C65.1221 176.423 64.3947 177.384 63.3762 177.704C58.6332 179.246 53.8902 179.973 48.0414 180.09L47.9541 180.061Z" fill="white"/>
<path d="M204.445 218.18C202.757 218.18 201.07 217.743 199.586 216.899C195.89 214.833 192.98 212.505 190.42 210.439C185.618 206.598 183.407 204.852 177.5 204.852C171.593 204.852 169.382 206.598 164.58 210.468C162.02 212.505 159.11 214.833 155.414 216.928C153.93 217.772 152.243 218.209 150.555 218.209C145.986 218.209 142.058 215.124 140.952 210.701L105.743 69.8652C105.307 68.1484 106.034 66.3443 107.548 65.4131C113.658 61.6012 120.118 58.2549 126.752 55.4906C127.247 55.2869 127.771 55.1705 128.295 55.1705C130.157 55.1705 131.786 56.4508 132.252 58.2549L161.176 174.008C161.38 174.794 162.078 175.318 162.864 175.318C163.125 175.318 163.387 175.259 163.62 175.143C168.043 172.99 172.582 171.942 177.5 171.942C182.418 171.942 186.957 172.99 191.38 175.143C191.613 175.259 191.875 175.318 192.136 175.318C192.951 175.318 193.65 174.765 193.824 174.008L222.748 58.2549C223.214 56.4217 224.814 55.1705 226.705 55.1705C227.229 55.1705 227.753 55.2869 228.248 55.4906C234.882 58.2549 241.342 61.6012 247.452 65.4131C248.966 66.3443 249.693 68.1484 249.257 69.8652L214.048 210.701C212.942 215.095 208.984 218.18 204.445 218.18Z" fill="white"/>
<path d="M287.841 174.736C285.484 174.736 283.098 174.357 280.77 173.601C277.511 172.553 272.768 171.331 264.795 171.331C264.679 171.331 264.562 171.331 264.388 171.331C264.126 171.331 263.748 171.331 263.282 171.331C261.129 171.331 258.888 171.506 256.589 171.855C255.193 172.029 253.912 172.262 252.632 172.553C251.439 172.786 250.275 173.077 249.111 173.368C248.296 173.572 247.452 173.688 246.638 173.688C243.582 173.688 240.76 172.291 238.839 169.847C236.948 167.432 236.308 164.348 237.064 161.379L258.015 77.5471C258.306 76.3832 259.354 75.5684 260.576 75.5684C261.187 75.5684 261.769 75.7721 262.264 76.1795C262.845 76.6742 263.457 77.1979 264.068 77.6926L264.097 77.7217C265.115 78.5947 266.163 79.5258 267.21 80.5152C283.884 95.9373 296.367 115.433 303.292 136.937C307.279 149.1 307.599 158.993 304.252 165.57C302.216 169.585 298.811 172.35 294.214 173.804C292.148 174.416 290.023 174.736 287.841 174.736ZM262.642 151.428C264.33 151.428 266.192 151.486 267.967 151.573C269.771 151.632 271.662 151.719 273.379 151.719C277.948 151.719 280.945 150.468 282.254 148.023C284.32 144.211 283.738 135.075 269.509 113.251L259.936 151.515C260.721 151.457 261.623 151.428 262.642 151.428Z" fill="white"/>
<path d="M125.967 218.82C125.821 218.82 125.705 218.82 125.559 218.791C116.51 217.423 110.777 213.989 106.18 211.225C101.233 208.257 97.9742 206.307 90.2049 206.307C82.4357 206.307 79.1766 208.257 74.2299 211.225C69.6615 213.96 63.9873 217.365 55.0541 218.761C52.6389 211.574 50.8348 204.096 49.7291 196.559C55.3451 196.094 58.3713 194.261 62.5615 191.758C68.2939 188.325 76.1795 183.582 90.234 183.582C104.289 183.582 112.145 188.295 117.907 191.758L119.361 192.631C121.951 194.202 123.784 196.676 124.541 199.615L128.527 215.561C128.731 216.346 128.557 217.161 128.062 217.801C127.509 218.47 126.752 218.82 125.967 218.82Z" fill="#0047AB"/>
<path d="M229.033 218.82C228.248 218.82 227.52 218.441 226.996 217.801C226.502 217.161 226.327 216.346 226.531 215.561L230.517 199.615C231.245 196.676 233.078 194.202 235.697 192.631L237.152 191.758C242.884 188.325 250.77 183.582 264.824 183.582C278.879 183.582 286.735 188.295 292.497 191.758C296.687 194.261 299.713 196.094 305.329 196.559C304.223 204.096 302.419 211.545 300.004 218.761C291.071 217.365 285.397 213.96 280.828 211.225C275.882 208.257 272.623 206.307 264.853 206.307C257.084 206.307 253.825 208.257 248.878 211.225C244.281 213.989 238.548 217.423 229.499 218.791C229.295 218.82 229.15 218.82 229.033 218.82Z" fill="#0047AB"/>
<path d="M142.669 301.459C141.505 301.459 140.341 301.284 139.236 300.935C118.401 294.475 99.3709 282.691 84.1816 266.861C86.1021 266.657 88.1389 266.541 90.2049 266.541C104.259 266.541 112.116 271.255 117.877 274.718C122.824 277.686 126.083 279.635 133.852 279.635C141.622 279.635 144.881 277.686 149.827 274.718C155.56 271.284 163.446 266.541 177.5 266.541C191.555 266.541 199.411 271.255 205.173 274.718C210.119 277.686 213.378 279.635 221.148 279.635C228.917 279.635 232.176 277.686 237.123 274.718C242.855 271.284 250.741 266.541 264.795 266.541C266.861 266.541 268.898 266.657 270.818 266.861C255.629 282.72 236.628 294.475 215.764 300.935C214.63 301.284 213.495 301.459 212.331 301.459C211.545 301.459 210.73 301.372 209.974 301.197C202.554 299.597 197.52 296.57 193.475 294.155C188.528 291.187 185.269 289.238 177.5 289.238C169.731 289.238 166.472 291.187 161.525 294.155C157.48 296.57 152.446 299.597 145.026 301.197C144.241 301.372 143.455 301.459 142.669 301.459Z" fill="#0047AB"/>
<path d="M221.148 260.867C207.093 260.867 199.236 256.153 193.475 252.69C188.528 249.722 185.269 247.773 177.5 247.773C169.731 247.773 166.472 249.722 161.525 252.69C155.793 256.124 147.907 260.867 133.852 260.867C119.798 260.867 111.941 256.153 106.18 252.69C101.233 249.722 97.9742 247.773 90.2049 247.773C82.4357 247.773 79.1766 249.722 74.2299 252.69C73.8225 252.923 73.4152 253.185 72.9787 253.447C68.5266 247.336 64.5984 240.789 61.2812 233.98C61.6885 233.747 62.0959 233.485 62.5324 233.223C68.2648 229.79 76.1504 225.047 90.2049 225.047C104.259 225.047 112.116 229.761 117.877 233.223C122.824 236.191 126.083 238.141 133.852 238.141C141.622 238.141 144.881 236.191 149.827 233.223C155.56 229.79 163.445 225.047 177.5 225.047C191.555 225.047 199.411 229.761 205.173 233.223C210.119 236.191 213.378 238.141 221.148 238.141C228.917 238.141 232.176 236.191 237.123 233.223C242.855 229.79 250.741 225.047 264.795 225.047C278.85 225.047 286.706 229.761 292.468 233.223C292.904 233.485 293.311 233.747 293.719 233.98C290.402 240.789 286.473 247.336 282.021 253.447C281.585 253.185 281.177 252.952 280.77 252.69C275.823 249.722 272.564 247.773 264.795 247.773C257.026 247.773 253.767 249.722 248.82 252.69C243.059 256.153 235.202 260.867 221.148 260.867Z" fill="#007FFF"/>
<path d="M48.3033 177.151C48.3615 156.491 53.3955 136.006 62.8816 117.819L91.718 143.309C92.1545 143.688 92.6783 143.891 93.2603 143.891C93.9877 143.891 94.657 143.542 95.0934 142.989C95.5299 142.436 95.6754 141.68 95.5008 140.982L82.5521 89.8557C86.1894 85.8984 90.1176 82.1447 94.2205 78.682C95.8209 85.0254 113.775 155.618 115.055 162.02C115.521 164.348 115.026 166.559 113.629 168.247C112.291 169.876 110.312 170.807 108.13 170.807C107.489 170.807 106.849 170.72 106.18 170.575L106.122 170.545C101.873 169.323 98.7598 167.374 94.1332 163.998L70.6508 145.317C70.1853 144.939 69.6033 144.735 69.0213 144.735C67.8574 144.735 66.8389 145.492 66.5189 146.598L66.3443 147.121C65.7041 149.304 65.2094 150.875 64.7148 153.523C64.4529 154.716 64.1328 156.636 63.8418 158.15H63.8127L63.609 159.634C62.7652 165.511 62.416 170.866 62.2123 174.91C57.9348 176.336 53.6283 177.034 48.3033 177.151Z" fill="#FF8000"/>
<path d="M204.445 215.27C203.252 215.27 202.088 214.979 201.011 214.368C197.52 212.418 194.726 210.148 192.253 208.17C187.19 204.154 184.425 201.943 177.5 201.943C170.575 201.943 167.81 204.154 162.776 208.199C160.303 210.177 157.509 212.418 154.018 214.397C152.941 215.008 151.806 215.299 150.584 215.299C147.354 215.299 144.561 213.116 143.804 210.003L108.595 69.1668C108.479 68.6721 108.682 68.1484 109.119 67.8865C115.084 64.1619 121.398 60.9029 127.887 58.1967C128.033 58.1385 128.178 58.1094 128.324 58.1094C128.848 58.1094 129.313 58.4877 129.459 58.9824L158.382 174.736C158.906 176.802 160.768 178.257 162.893 178.257C163.591 178.257 164.289 178.111 164.93 177.791C168.945 175.841 173.077 174.881 177.529 174.881C181.981 174.881 186.113 175.841 190.129 177.791C190.769 178.111 191.467 178.257 192.166 178.257C194.319 178.257 196.152 176.802 196.676 174.736L225.6 58.9824C225.716 58.4586 226.182 58.1094 226.734 58.1094C226.88 58.1094 227.025 58.1385 227.171 58.1967C233.66 60.9029 239.974 64.1619 245.939 67.8865C246.376 68.1484 246.58 68.6721 246.463 69.1668L211.254 210.003C210.439 213.116 207.646 215.27 204.445 215.27Z" fill="#FF8000"/>
<path d="M287.841 171.826C285.775 171.826 283.709 171.506 281.672 170.836C276.551 169.178 271.342 168.421 264.795 168.421C264.708 168.421 264.591 168.421 264.446 168.421C264.155 168.421 263.777 168.421 263.282 168.421C260.983 168.421 258.597 168.596 256.153 168.974C254.727 169.178 253.359 169.411 252.021 169.702C250.828 169.964 249.606 170.225 248.413 170.545C247.831 170.691 247.249 170.778 246.667 170.778C244.514 170.778 242.535 169.789 241.167 168.072C239.858 166.384 239.392 164.202 239.916 162.107L260.78 78.7111C261.245 79.1184 261.74 79.5258 262.205 79.9332L262.234 79.9623C263.195 80.777 264.213 81.6791 265.202 82.6393C281.527 97.7414 293.719 116.83 300.499 137.839C304.252 149.245 304.631 158.382 301.634 164.231C299.946 167.519 297.152 169.818 293.282 171.011C291.536 171.564 289.703 171.826 287.841 171.826ZM262.642 154.338C264.271 154.338 266.105 154.396 267.85 154.483C269.684 154.541 271.575 154.629 273.35 154.629C279.082 154.629 282.923 152.854 284.786 149.391C288.394 142.669 284.058 130.157 271.546 111.098C271.051 110.37 270.236 109.905 269.364 109.905C268.171 109.905 267.123 110.719 266.832 111.883L256.997 151.195C256.793 151.981 256.968 152.795 257.462 153.436C257.957 154.076 258.714 154.454 259.528 154.454C259.586 154.454 259.674 154.454 259.732 154.454C260.576 154.367 261.536 154.338 262.642 154.338Z" fill="#FF8000"/>
</svg>
