<svg width="960" height="960" viewBox="0 0 960 960" fill="none" xmlns="http://www.w3.org/2000/svg">
<g clip-path="url(#clip0_33_1174)">
<path d="M480 960C745.097 960 960 745.097 960 480C960 214.903 745.097 0 480 0C214.903 0 0 214.903 0 480C0 745.097 214.903 960 480 960Z" fill="white"/>
<path d="M480 917.058C721.38 917.058 917.058 721.38 917.058 480C917.058 238.62 721.38 42.9424 480 42.9424C238.62 42.9424 42.9424 238.62 42.9424 480C42.9424 721.38 238.62 917.058 480 917.058Z" fill="white"/>
<path d="M311.017 628.914C309.92 628.914 308.803 628.829 307.715 628.666C275.413 623.79 254.524 611.251 239.265 602.099C223.434 592.604 215.494 587.833 193.718 587.833C171.941 587.833 164.002 592.604 148.17 602.099C132.892 611.27 111.965 623.819 79.5959 628.685C78.9852 628.781 78.3649 628.819 77.7446 628.819C72.4198 628.819 67.6961 625.441 65.988 620.412C57.5331 595.477 51.3208 569.587 47.5228 543.459C47.0361 540.081 47.9808 536.617 50.1184 533.955C52.275 531.273 55.4814 529.584 58.9168 529.326C74.8055 528.143 82.8309 523.334 96.124 515.356C116.297 503.256 143.924 486.68 193.718 486.68C243.512 486.68 271.138 503.256 291.311 515.356L296.073 518.209C307.658 525.156 315.846 536.207 319.119 549.309L332.192 601.613C333.843 608.226 332.393 615.097 328.194 620.469C324.005 625.832 317.754 628.905 311.027 628.905L311.017 628.914Z" fill="#0047AB"/>
<path d="M648.983 628.914C642.256 628.914 635.996 625.842 631.806 620.479C627.617 615.106 626.157 608.235 627.808 601.622L640.881 549.318C644.155 536.207 652.342 525.166 663.927 518.219L668.689 515.365C688.862 503.265 716.489 486.689 766.283 486.689C816.077 486.689 843.703 503.265 863.876 515.365C877.169 523.343 885.195 528.162 901.093 529.336C904.528 529.594 907.735 531.273 909.882 533.964C912.019 536.627 912.964 540.091 912.477 543.469C908.679 569.597 902.467 595.486 894.012 620.421C892.304 625.45 887.58 628.829 882.256 628.829C881.635 628.829 881.015 628.781 880.404 628.695C848.035 623.828 827.108 611.27 811.83 602.109C795.999 592.614 788.059 587.843 766.283 587.843C744.506 587.843 736.567 592.604 720.735 602.109C705.476 611.26 684.587 623.8 652.285 628.676C651.188 628.838 650.081 628.924 648.983 628.924V628.914Z" fill="#0047AB"/>
<path d="M365.745 899.871C360.611 899.871 355.486 899.089 350.524 897.552C279.364 875.509 214.492 835.143 162.923 780.806C159.679 777.381 158.658 772.495 160.27 768.057C161.883 763.61 165.786 760.519 170.472 759.965C177.905 759.087 185.73 758.648 193.718 758.648C243.512 758.648 271.138 775.224 291.311 787.324C307.143 796.819 315.082 801.591 336.859 801.591C358.635 801.591 366.575 796.819 382.406 787.324C402.58 775.224 430.206 758.648 480 758.648C529.794 758.648 557.42 775.224 577.594 787.324C593.425 796.819 601.365 801.591 623.141 801.591C644.918 801.591 652.857 796.829 668.689 787.324C688.862 775.224 716.488 758.648 766.282 758.648C774.27 758.648 782.095 759.087 789.529 759.965C794.214 760.519 798.117 763.62 799.73 768.057C801.342 772.504 800.321 777.39 797.077 780.806C745.508 835.143 680.636 875.518 609.476 897.552C604.514 899.089 599.399 899.871 594.255 899.871C590.715 899.871 587.165 899.499 583.72 898.755C557.191 893.048 538.898 882.074 525.548 874.068C509.716 864.573 501.777 859.801 480 859.801C458.224 859.801 450.284 864.573 434.453 874.068C420.358 882.532 402.809 893.058 376.28 898.764C372.835 899.509 369.295 899.881 365.754 899.881L365.745 899.871Z" fill="#0047AB"/>
<path d="M623.141 766.759C573.347 766.759 545.72 750.184 525.547 738.084C509.716 728.588 501.776 723.817 480 723.817C458.223 723.817 450.283 728.588 434.452 738.084C414.279 750.184 386.652 766.759 336.858 766.759C287.064 766.759 259.438 750.184 239.265 738.084C223.433 728.588 215.494 723.817 193.717 723.817C171.941 723.817 164.001 728.588 148.17 738.084C146.586 739.038 144.944 740.021 143.255 741.013C141.347 742.139 139.161 742.74 136.938 742.74C132.997 742.74 129.256 740.841 126.937 737.673C111.468 716.517 97.8413 693.843 86.4377 670.301C83.6513 664.538 85.7888 657.476 91.3141 654.222C92.86 653.306 94.4632 652.352 96.1236 651.35C116.297 639.249 143.923 622.674 193.717 622.674C243.511 622.674 271.138 639.249 291.311 651.35C307.142 660.845 315.082 665.616 336.858 665.616C358.635 665.616 366.575 660.845 382.406 651.35C402.579 639.249 430.206 622.674 480 622.674C529.794 622.674 557.42 639.249 577.593 651.35C593.425 660.845 601.364 665.616 623.141 665.616C644.917 665.616 652.857 660.854 668.688 651.35C688.862 639.249 716.488 622.674 766.282 622.674C816.076 622.674 843.702 639.249 863.875 651.35C865.545 652.352 867.139 653.306 868.685 654.222C874.21 657.476 876.348 664.538 873.561 670.301C862.158 693.853 848.531 716.517 833.062 737.673C830.743 740.851 827.002 742.74 823.061 742.74C820.838 742.74 818.662 742.149 816.753 741.013C815.064 740.011 813.433 739.038 811.839 738.084C796.007 728.588 788.058 723.817 766.291 723.817C744.524 723.817 736.575 728.579 720.744 738.084C700.571 750.184 672.944 766.759 623.15 766.759H623.141Z" fill="#87D3F8"/>
<path d="M55.1476 492.224C48.4199 492.224 42.9424 486.737 42.9424 480C42.9424 409.336 60.2052 339.13 92.87 276.978C95.0267 272.875 99.2446 270.327 103.873 270.327C106.898 270.327 109.808 271.434 112.08 273.438L193.66 345.552L155.633 195.369C154.602 191.284 155.68 187 158.534 183.908C171.34 170.014 185.148 156.835 199.596 144.744C201.829 142.874 204.654 141.843 207.545 141.843C213.261 141.843 218.224 145.708 219.607 151.243C222.222 161.54 283.963 404.46 288.439 426.608C290.758 438.06 288.048 449.559 281.015 458.157C274.106 466.602 263.781 471.44 252.682 471.44C249.514 471.44 246.289 471.049 243.121 470.266C242.872 470.209 242.634 470.133 242.395 470.066C226.612 465.505 214.903 458.252 198.794 446.467L198.67 446.381L126.947 389.363C125.63 393.896 124.533 398.123 123.397 404.068L123.369 404.212C122.586 407.905 121.346 414.709 119.857 423.354C119.847 423.421 119.838 423.488 119.819 423.555C117.051 442.621 115.963 459.998 115.334 473.005C115.086 478.111 111.65 482.615 106.793 484.199C90.866 489.39 75.006 491.871 55.3766 492.224H55.1571H55.1476Z" fill="#FF8000"/>
<path d="M568.337 617.263C562.154 617.263 555.999 615.641 550.54 612.568C538.144 605.602 528.496 597.872 519.975 591.058C504.468 578.653 498.045 573.509 480 573.509C461.955 573.509 455.533 578.643 440.026 591.049C431.933 597.528 421.856 605.582 409.46 612.558C404.002 615.631 397.847 617.253 391.663 617.253C374.963 617.253 360.477 605.955 356.441 589.78L240.983 127.93C239.17 120.678 242.214 113.148 248.56 109.179C268.762 96.5439 290.128 85.503 312.076 76.361C314.176 75.4831 316.38 75.0441 318.632 75.0441C326.524 75.0441 333.366 80.3976 335.294 88.07L430.187 467.642C430.435 468.635 431.323 469.083 432.038 469.083C432.325 469.083 432.601 469.016 432.878 468.883C447.908 461.583 463.329 458.033 480.019 458.033C496.709 458.033 512.131 461.583 527.16 468.883C527.437 469.016 527.714 469.083 528 469.083C528.716 469.083 529.603 468.635 529.851 467.642L624.744 88.07C626.663 80.3976 633.514 75.0441 641.406 75.0441C643.658 75.0441 645.863 75.4831 647.962 76.361C669.91 85.503 691.277 96.5439 711.479 109.179C717.824 113.148 720.869 120.678 719.055 127.93L603.598 589.78C599.552 605.955 585.066 617.253 568.375 617.253L568.337 617.263Z" fill="#FF8000"/>
<path d="M841.861 474.78C833.702 474.78 825.514 473.463 817.517 470.877C807.125 467.509 791.904 463.644 766.273 463.644C765.891 463.644 765.433 463.644 764.86 463.625C764.002 463.606 762.828 463.577 761.358 463.577C754.506 463.577 747.302 464.14 739.954 465.247L739.83 465.266C735.45 465.858 731.337 466.592 727.262 467.509L727.119 467.537C723.369 468.31 719.551 469.188 715.782 470.142C712.795 470.896 709.751 471.278 706.726 471.278C695.551 471.278 685.15 466.163 678.184 457.25C671.294 448.433 668.908 437.115 671.637 426.208L740.383 151.252C741.767 145.718 746.729 141.853 752.445 141.853C755.337 141.853 758.161 142.883 760.394 144.754C762.341 146.386 764.316 148.065 766.273 149.764L766.349 149.831C769.718 152.693 773.201 155.823 776.712 159.135C831.822 210.103 873.094 274.65 896.025 345.753C909.414 386.577 910.406 420.052 898.898 442.526C891.693 456.592 879.85 466.325 863.695 471.45C856.709 473.664 849.361 474.79 841.851 474.79L841.861 474.78ZM759.24 390.709C764.851 390.709 770.958 390.938 776.865 391.167C782.763 391.386 788.87 391.625 794.443 391.625C807.898 391.625 816.572 388.208 820.199 381.471C825.161 372.272 826.573 346.831 783.278 278.734L755.27 390.756C756.52 390.728 757.846 390.718 759.23 390.718L759.24 390.709Z" fill="#FF8000"/>
<g opacity="0.75">
<path d="M287.38 521.902C267.97 510.26 241.393 494.314 193.718 494.314C146.042 494.314 119.456 510.26 100.056 521.902C86.2472 530.185 77.1625 535.625 59.4798 536.942C56.7219 537.142 54.6798 539.623 55.0806 542.362C58.8691 568.394 64.986 593.664 73.2213 617.959C73.9657 620.145 76.1796 621.481 78.4603 621.137C109.312 616.499 128.989 604.695 144.238 595.553C160.194 585.982 169.823 580.199 193.718 580.199C217.613 580.199 227.241 585.982 243.197 595.553C258.427 604.685 278.075 616.471 308.86 621.118C318.918 622.635 327.259 613.341 324.787 603.474L311.714 551.17C308.956 540.119 301.913 530.624 292.141 524.765L287.38 521.912V521.902Z" fill="white"/>
<path d="M859.944 521.902C840.535 510.26 813.958 494.314 766.282 494.314C718.607 494.314 692.021 510.26 672.62 521.902L667.859 524.755C658.096 530.615 651.054 540.11 648.286 551.16L635.213 603.464C632.741 613.331 641.082 622.626 651.14 621.108C681.925 616.461 701.573 604.676 716.803 595.544C732.759 585.972 742.387 580.189 766.282 580.189C790.177 580.189 799.806 585.972 815.761 595.544C831.011 604.695 850.688 616.49 881.54 621.128C883.82 621.471 886.044 620.135 886.779 617.95C895.014 593.654 901.131 568.385 904.919 542.352C905.32 539.614 903.278 537.142 900.52 536.932C882.837 535.615 873.753 530.176 859.944 521.893V521.902Z" fill="white"/>
<path d="M791.532 775.548C794.223 772.714 792.515 768 788.631 767.542C781.732 766.731 774.308 766.282 766.273 766.282C718.597 766.282 692.011 782.228 672.611 793.87C656.655 803.442 647.027 809.225 623.132 809.225C599.237 809.225 589.608 803.442 573.653 793.87C554.243 782.228 527.666 766.282 479.991 766.282C432.315 766.282 405.729 782.228 386.329 793.87C370.373 803.442 360.744 809.225 336.849 809.225C312.954 809.225 303.326 803.442 287.37 793.87C267.96 782.228 241.384 766.282 193.708 766.282C185.683 766.282 178.249 766.74 171.35 767.542C167.466 768 165.758 772.714 168.449 775.548C218.443 828.224 281.654 868.237 352.767 890.262C359.857 892.456 367.396 892.848 374.648 891.292C399.908 885.862 416.961 875.642 430.502 867.521C446.457 857.95 456.086 852.167 479.981 852.167C503.876 852.167 513.505 857.95 529.46 867.521C543.001 875.652 560.045 885.862 585.314 891.292C592.566 892.857 600.105 892.456 607.195 890.262C678.317 868.237 741.528 828.224 791.513 775.548H791.532Z" fill="white"/>
<path d="M859.944 657.886C840.534 646.244 813.958 630.298 766.282 630.298C718.607 630.298 692.02 646.244 672.62 657.886C656.665 667.458 647.036 673.24 623.141 673.24C599.246 673.24 589.617 667.458 573.662 657.886C554.252 646.244 527.675 630.298 480 630.298C432.324 630.298 405.738 646.244 386.338 657.886C370.382 667.458 360.754 673.24 336.859 673.24C312.964 673.24 303.335 667.458 287.379 657.886C267.969 646.244 241.393 630.298 193.717 630.298C146.042 630.298 119.456 646.244 100.055 657.886C98.3663 658.898 96.7536 659.862 95.1886 660.787C93.0605 662.047 92.2303 664.728 93.3087 666.961C104.607 690.284 117.948 712.423 133.102 733.159C134.543 735.135 137.272 735.679 139.371 734.438C141.041 733.446 142.664 732.482 144.238 731.537C160.194 721.966 169.822 716.183 193.717 716.183C217.612 716.183 227.241 721.966 243.197 731.537C262.606 743.179 289.183 759.125 336.859 759.125C384.534 759.125 411.12 743.179 430.521 731.537C446.476 721.966 456.105 716.183 480 716.183C503.895 716.183 513.523 721.966 529.479 731.537C548.889 743.179 575.465 759.125 623.141 759.125C670.816 759.125 697.403 743.179 716.803 731.537C732.758 721.966 742.387 716.183 766.282 716.183C790.177 716.183 799.806 721.966 815.761 731.537C817.336 732.482 818.948 733.455 820.628 734.438C822.737 735.679 825.457 735.135 826.898 733.159C842.051 712.423 855.392 690.284 866.691 666.961C867.769 664.738 866.948 662.047 864.811 660.787C863.246 659.862 861.633 658.898 859.944 657.886Z" fill="white"/>
<path d="M104.417 476.937C106.296 476.326 107.604 474.608 107.699 472.633C108.339 459.397 109.446 441.753 112.261 422.419C112.242 422.553 114.503 409.164 115.887 402.627C117.633 393.514 119.265 388.342 121.641 380.412C122.223 378.475 124.58 377.73 126.164 378.99L203.289 440.302C218.023 451.085 229.264 458.328 244.456 462.718C244.609 462.766 244.762 462.814 244.924 462.852C266.71 468.196 285.433 450.341 280.948 428.126C276.463 405.91 212.192 153.104 212.192 153.104C211.333 149.687 207.192 148.342 204.491 150.604C190.225 162.551 176.751 175.415 164.145 189.089C163.057 190.273 162.637 191.943 163.038 193.498L205.617 361.66C206.075 363.483 203.909 364.8 202.506 363.559L107.031 279.163C104.703 277.112 101.077 277.789 99.6356 280.538C68.3164 340.142 50.5859 408 50.5859 480.01C50.5859 482.567 52.6853 484.647 55.2428 484.6C77.0289 484.208 91.8869 481.04 104.426 476.946L104.417 476.937Z" fill="white"/>
<path d="M707.404 115.668C687.622 103.3 666.771 92.4883 645.004 83.4226C639.641 81.1896 633.543 84.3006 632.131 89.9403L556.743 391.472L537.237 469.503C535.768 475.391 529.26 478.416 523.801 475.763C511.424 469.751 497.024 465.676 480 465.676C462.976 465.676 448.576 469.751 436.199 475.763C430.74 478.416 424.242 475.391 422.763 469.503L327.87 89.9308C326.457 84.291 320.359 81.1801 314.996 83.4131C293.229 92.4787 272.379 103.281 252.596 115.658C249.085 117.853 247.377 122.061 248.379 126.088L350.839 535.94L363.836 587.938C368.426 606.289 389.22 615.192 405.71 605.917C417.533 599.265 427.019 591.688 435.245 585.104C451.238 572.307 459.264 565.885 479.991 565.885C500.717 565.885 508.743 572.307 524.736 585.104C532.962 591.688 542.448 599.265 554.271 605.917C570.761 615.192 591.555 606.298 596.145 587.938L609.142 535.94L640.051 412.304L711.603 126.088C712.605 122.071 710.896 117.862 707.385 115.668H707.404Z" fill="white"/>
<path d="M888.773 348.091C865.88 277.083 824.989 214.168 771.483 164.689C768.105 161.501 764.746 158.476 761.415 155.652C761.415 155.652 761.415 155.652 761.406 155.642C759.459 153.944 757.484 152.274 755.508 150.613C752.808 148.351 748.666 149.697 747.807 153.123L745.546 162.179L679.061 428.078C673.803 449.101 692.908 468.081 713.921 462.756C717.967 461.735 721.87 460.838 725.592 460.075C729.667 459.149 734.047 458.348 738.828 457.708C748.8 456.21 756.587 455.952 761.368 455.952C763.791 455.952 765.442 456.019 766.234 456.019C766.253 456.019 766.273 456.019 766.292 456.019C790.502 456.019 806.514 459.292 819.884 463.625C827.022 465.934 834.455 467.155 841.87 467.155C848.464 467.155 855.049 466.192 861.414 464.178C903.984 450.675 906.866 403.238 888.782 348.1L888.773 348.091ZM778.544 266.223C779.146 263.8 782.352 263.265 783.717 265.345C826.993 331.133 857.282 399.249 794.443 399.249C779.461 399.249 761.892 397.665 749.334 398.677C747.378 398.839 745.832 397.035 746.309 395.136L778.544 266.223Z" fill="white"/>
</g>
<path d="M311.027 613.646C310.693 613.646 310.349 613.617 310.006 613.57C280.681 609.142 262.082 597.977 247.128 589.007C230.629 579.111 219.731 572.565 193.727 572.565C167.723 572.565 156.826 579.101 140.326 589.007C125.754 597.748 107.719 608.569 79.6915 613.217C72.2482 590.829 66.6752 567.669 63.0967 544.289C80.6649 542.448 90.5607 536.512 103.987 528.458C122.624 517.274 148.161 501.958 193.727 501.958C239.294 501.958 264.821 517.274 283.467 528.458L288.229 531.311C296.321 536.159 302.028 543.879 304.318 553.021L317.392 605.325C318.079 608.092 316.924 610.115 316.17 611.079C314.901 612.711 313.031 613.646 311.036 613.646H311.027Z" fill="#0047AB"/>
<path d="M648.984 613.646C646.989 613.646 645.119 612.711 643.85 611.079C643.096 610.115 641.941 608.092 642.628 605.325L655.702 553.021C657.992 543.87 663.698 536.159 671.791 531.311L676.552 528.458C695.189 517.274 720.726 501.958 766.292 501.958C811.859 501.958 837.386 517.274 856.032 528.458C869.459 536.512 879.355 542.457 896.923 544.289C893.345 567.669 887.772 590.829 880.328 613.217C852.301 608.569 834.265 597.748 819.694 589.007C803.194 579.111 792.296 572.565 766.292 572.565C740.288 572.565 729.391 579.101 712.891 588.997C697.938 597.967 679.329 609.132 650.014 613.56C649.671 613.608 649.327 613.637 648.993 613.637L648.984 613.646Z" fill="#0047AB"/>
<path d="M365.745 884.603C362.138 884.603 358.54 884.049 355.048 882.971C288.249 862.282 227.185 824.846 178.097 774.546C183.164 774.126 188.393 773.917 193.718 773.917C239.285 773.917 264.812 789.233 283.458 800.417C299.958 810.313 310.855 816.859 336.859 816.859C362.863 816.859 373.761 810.322 390.26 800.417C408.907 789.233 434.434 773.917 480 773.917C525.567 773.917 551.094 789.233 569.74 800.417C586.24 810.322 597.138 816.859 623.142 816.859C649.146 816.859 660.043 810.322 676.543 800.417C695.189 789.233 720.716 773.917 766.283 773.917C771.608 773.917 776.837 774.126 781.904 774.546C732.816 824.846 671.752 862.282 604.953 882.971C601.46 884.049 597.863 884.603 594.256 884.603C591.784 884.603 589.322 884.345 586.936 883.83C562.879 878.658 546.542 868.848 533.411 860.975C516.912 851.079 506.014 844.533 480.01 844.533C454.006 844.533 443.108 851.07 426.609 860.975C413.478 868.857 397.131 878.658 373.074 883.83C370.688 884.345 368.226 884.603 365.755 884.603H365.745Z" fill="#0047AB"/>
<path d="M623.141 751.491C577.574 751.491 552.048 736.175 533.401 724.991C516.902 715.085 506.004 708.549 480 708.549C453.996 708.549 443.098 715.085 426.599 724.991C407.952 736.175 382.425 751.491 336.859 751.491C291.292 751.491 265.765 736.175 247.119 724.991C230.619 715.085 219.721 708.549 193.718 708.549C167.714 708.549 156.816 715.085 140.316 724.991C139.467 725.497 138.608 726.021 137.73 726.537C123.951 707.442 111.726 687.106 101.344 666.017C102.203 665.501 103.081 664.977 103.978 664.433C122.615 653.248 148.151 637.932 193.718 637.932C239.284 637.932 264.811 653.248 283.457 664.433C299.957 674.338 310.855 680.875 336.859 680.875C362.863 680.875 373.76 674.338 390.26 664.433C408.906 653.248 434.433 637.932 480 637.932C525.566 637.932 551.093 653.248 569.74 664.433C586.239 674.338 597.137 680.875 623.141 680.875C649.145 680.875 660.043 674.338 676.542 664.442C695.189 653.258 720.715 637.932 766.282 637.932C811.849 637.932 837.375 653.248 856.022 664.433C856.919 664.967 857.797 665.501 858.656 666.017C848.273 687.106 836.049 707.442 822.269 726.537C821.391 726.012 820.533 725.497 819.683 724.991C803.184 715.095 792.286 708.549 766.282 708.549C740.278 708.549 729.38 715.085 712.881 724.981C694.234 736.165 668.708 751.491 623.141 751.491Z" fill="#87D3F8"/>
<path d="M58.2205 476.88C58.7072 410.958 74.7485 345.562 104.703 287.313L197.44 369.285C199.195 370.831 201.428 371.69 203.747 371.69C206.677 371.69 209.502 370.306 211.305 367.987C213.118 365.659 213.739 362.672 213.004 359.8L170.806 193.136C181.828 181.255 193.622 169.937 205.914 159.411C214.521 193.317 269.382 409.489 273.467 429.652C274.888 436.695 273.371 443.394 269.191 448.509C265.193 453.395 259.181 456.191 252.673 456.191C250.755 456.191 248.789 455.952 246.833 455.475L246.585 455.399C232.977 451.467 222.871 445.179 207.908 434.243L130.898 373.026C129.047 371.556 126.728 370.745 124.38 370.745C119.704 370.745 115.649 373.751 114.313 378.236L113.788 379.992C111.717 386.911 110.076 392.379 108.396 401.139C107.652 404.689 106.659 410.099 105.829 414.804H105.648L104.694 421.341C101.964 440.102 100.829 457.183 100.161 470.295C90.9903 473.158 78.098 476.259 58.2109 476.889L58.2205 476.88Z" fill="#FF8000"/>
<path d="M568.337 601.995C564.711 601.995 561.247 601.078 558.022 599.265C546.713 592.9 537.571 585.59 529.508 579.14C513.218 566.114 503.389 558.251 479.991 558.251C456.592 558.251 446.763 566.114 430.473 579.14C422.41 585.59 413.277 592.9 401.96 599.265C398.734 601.078 395.27 601.995 391.644 601.995C381.968 601.995 373.57 595.458 371.232 586.087L255.774 124.237C255.574 123.426 255.917 122.586 256.633 122.138C276.129 109.942 296.741 99.2922 317.926 90.4747C318.155 90.3793 318.384 90.3316 318.613 90.3316C319.348 90.3316 320.216 90.8374 320.455 91.7916L415.348 471.364C417.266 479.027 424.118 484.371 432.01 484.371C434.624 484.371 437.153 483.789 439.52 482.634C452.422 476.364 465.667 473.32 479.991 473.32C494.314 473.32 507.55 476.364 520.461 482.634C522.828 483.789 525.357 484.371 527.972 484.371C535.873 484.371 542.725 479.017 544.633 471.364L639.526 91.8012C639.765 90.8374 640.633 90.3411 641.368 90.3411C641.597 90.3411 641.826 90.3889 642.055 90.4843C663.23 99.3018 683.852 109.961 703.348 122.147C704.064 122.596 704.407 123.435 704.207 124.247L588.749 586.096C586.411 595.458 578.014 602.004 568.337 602.004V601.995Z" fill="#FF8000"/>
<path d="M841.861 459.512C835.305 459.512 828.702 458.452 822.232 456.353C805.207 450.837 787.945 448.375 766.283 448.375C765.977 448.375 765.634 448.375 765.195 448.356C764.259 448.337 762.971 448.309 761.368 448.309C753.782 448.309 745.832 448.929 737.75 450.141C732.959 450.79 728.455 451.591 723.98 452.603C720.029 453.414 716.011 454.34 712.051 455.351C710.295 455.8 708.511 456.019 706.745 456.019C700.304 456.019 694.292 453.042 690.246 447.86C686.219 442.697 684.873 436.323 686.477 429.92L754.116 159.421C754.879 160.08 755.652 160.738 756.415 161.406L756.606 161.559C759.736 164.221 762.99 167.141 766.263 170.243C819.569 219.54 859.401 281.835 881.53 350.438C893.64 387.378 894.957 416.798 885.347 435.569C879.994 446.028 871.415 453.004 859.124 456.897C853.637 458.634 847.835 459.521 841.89 459.521L841.861 459.512ZM759.24 405.977C764.565 405.977 770.262 406.196 776.293 406.425C782.333 406.654 788.584 406.893 794.443 406.893C813.949 406.893 827.137 400.776 833.645 388.714C845.879 366.021 831.631 324.301 790.101 261.156C788.155 258.188 784.872 256.423 781.341 256.423C776.512 256.423 772.314 259.696 771.14 264.372L738.904 393.285C738.112 396.444 738.809 399.726 740.813 402.284C742.817 404.851 745.832 406.32 749.096 406.32C749.382 406.32 749.659 406.311 749.955 406.282C752.57 406.072 755.614 405.967 759.25 405.967L759.24 405.977Z" fill="#FF8000"/>
</g>
<defs>
<clipPath id="clip0_33_1174">
<rect width="960" height="960" fill="white"/>
</clipPath>
</defs>
</svg>
