<svg width="298" height="567" viewBox="0 0 298 567" fill="none" xmlns="http://www.w3.org/2000/svg">
<g clip-path="url(#clip0_28_233)">
<path d="M0 0V461.62C0 470.84 4.65 479.46 12.41 484.64L124.92 559.71C139.35 569.34 158.3 569.34 172.72 559.71L285.23 484.64C292.99 479.46 297.64 470.84 297.64 461.62V0H0Z" fill="#FF8000"/>
<path d="M97.46 402.83V417.23H95.77L87.93 405.93H87.79V417.23H86.05V402.83H87.74L95.61 414.16H95.75V402.83H97.47H97.46Z" fill="white"/>
<path d="M103.52 417.23H101.69L106.98 402.83H108.78L114.07 417.23H112.24L107.94 405.11H107.83L103.53 417.23H103.52ZM104.19 411.61H111.56V413.16H104.19V411.61Z" fill="white"/>
<path d="M115.81 404.38V402.83H126.61V404.38H122.08V417.23H120.34V404.38H115.81Z" fill="white"/>
<path d="M133.03 402.83V417.23H131.29V402.83H133.03Z" fill="white"/>
<path d="M150.65 410.03C150.65 411.55 150.38 412.86 149.83 413.97C149.28 415.08 148.53 415.93 147.57 416.53C146.61 417.13 145.52 417.43 144.29 417.43C143.06 417.43 141.97 417.13 141.01 416.53C140.05 415.93 139.3 415.08 138.75 413.97C138.2 412.86 137.93 411.55 137.93 410.03C137.93 408.51 138.2 407.2 138.75 406.09C139.3 404.98 140.05 404.13 141.01 403.53C141.97 402.93 143.06 402.63 144.29 402.63C145.52 402.63 146.61 402.93 147.57 403.53C148.53 404.13 149.28 404.98 149.83 406.09C150.38 407.2 150.65 408.51 150.65 410.03ZM148.96 410.03C148.96 408.78 148.75 407.73 148.34 406.87C147.93 406.01 147.37 405.36 146.66 404.92C145.95 404.48 145.17 404.26 144.29 404.26C143.41 404.26 142.63 404.48 141.92 404.92C141.21 405.36 140.65 406.01 140.24 406.87C139.83 407.73 139.62 408.78 139.62 410.03C139.62 411.28 139.83 412.33 140.24 413.19C140.65 414.05 141.21 414.7 141.92 415.14C142.63 415.58 143.41 415.8 144.29 415.8C145.17 415.8 145.95 415.58 146.66 415.14C147.37 414.7 147.93 414.05 148.34 413.19C148.75 412.33 148.96 411.28 148.96 410.03Z" fill="white"/>
<path d="M166.97 402.83V417.23H165.28L157.44 405.93H157.3V417.23H155.56V402.83H157.25L165.12 414.16H165.26V402.83H166.98H166.97Z" fill="white"/>
<path d="M173.02 417.23H171.19L176.48 402.83H178.28L183.57 417.23H181.74L177.44 405.11H177.33L173.03 417.23H173.02ZM173.7 411.61H181.07V413.16H173.7V411.61Z" fill="white"/>
<path d="M188.39 417.23H186.56L191.85 402.83H193.65L198.94 417.23H197.11L192.81 405.11H192.7L188.4 417.23H188.39ZM189.06 411.61H196.43V413.16H189.06V411.61Z" fill="white"/>
<path d="M203.16 417.23V402.83H204.9V415.68H211.59V417.23H203.15H203.16Z" fill="white"/>
<path d="M22.7201 443.11L18.6001 428.72H21.9201L24.3001 438.72H24.4201L27.0501 428.72H29.9001L32.5201 438.74H32.6501L35.0301 428.72H38.3501L34.2301 443.11H31.2701L28.5301 433.7H28.4201L25.6901 443.11H22.7201Z" fill="white"/>
<path d="M42.9702 443.11H39.7102L44.6802 428.72H48.6002L53.5602 443.11H50.3002L46.7002 432.01H46.5902L42.9802 443.11H42.9702ZM42.7702 437.45H50.4702V439.82H42.7702V437.45Z" fill="white"/>
<path d="M54.9502 431.22V428.71H66.7702V431.22H62.3602V443.1H59.3502V431.22H54.9402H54.9502Z" fill="white"/>
<path d="M70.7002 443.11V428.72H80.4002V431.23H73.7502V434.66H79.9002V437.17H73.7502V440.61H80.4302V443.12H70.7102L70.7002 443.11Z" fill="white"/>
<path d="M84.8 443.11V428.72H90.48C91.57 428.72 92.5 428.91 93.27 429.3C94.04 429.69 94.63 430.23 95.03 430.94C95.43 431.64 95.64 432.47 95.64 433.42C95.64 434.37 95.43 435.2 95.02 435.88C94.61 436.56 94.01 437.09 93.23 437.46C92.45 437.83 91.51 438.01 90.4 438.01H86.6V435.56H89.91C90.49 435.56 90.97 435.48 91.36 435.32C91.74 435.16 92.03 434.92 92.22 434.6C92.41 434.28 92.5 433.89 92.5 433.41C92.5 432.93 92.41 432.53 92.22 432.2C92.03 431.87 91.74 431.62 91.36 431.45C90.98 431.28 90.49 431.19 89.9 431.19H87.85V443.09H84.81L84.8 443.11ZM92.57 436.56L96.15 443.11H92.79L89.29 436.56H92.57Z" fill="white"/>
<path d="M107.57 432.85C107.51 432.28 107.27 431.84 106.85 431.53C106.42 431.22 105.85 431.06 105.11 431.06C104.61 431.06 104.19 431.13 103.85 431.27C103.51 431.41 103.25 431.6 103.07 431.84C102.89 432.08 102.8 432.36 102.8 432.67C102.8 432.93 102.85 433.15 102.97 433.34C103.09 433.53 103.25 433.7 103.47 433.84C103.68 433.98 103.92 434.1 104.2 434.2C104.48 434.3 104.77 434.39 105.09 434.46L106.38 434.77C107.01 434.91 107.58 435.1 108.11 435.33C108.63 435.56 109.09 435.85 109.47 436.19C109.85 436.53 110.15 436.93 110.37 437.4C110.59 437.87 110.69 438.4 110.7 439C110.7 439.88 110.47 440.64 110.03 441.29C109.59 441.93 108.95 442.43 108.12 442.79C107.29 443.14 106.29 443.32 105.12 443.32C103.95 443.32 102.95 443.14 102.09 442.79C101.23 442.43 100.56 441.91 100.08 441.21C99.6001 440.51 99.3501 439.64 99.3201 438.61H102.26C102.29 439.09 102.43 439.49 102.68 439.81C102.93 440.13 103.26 440.37 103.67 440.53C104.08 440.69 104.55 440.77 105.08 440.77C105.61 440.77 106.04 440.7 106.43 440.55C106.81 440.4 107.11 440.19 107.32 439.92C107.53 439.65 107.64 439.35 107.64 439C107.64 438.68 107.55 438.41 107.36 438.18C107.17 437.96 106.89 437.77 106.53 437.62C106.17 437.47 105.72 437.32 105.2 437.2L103.63 436.81C102.42 436.51 101.46 436.05 100.76 435.43C100.06 434.81 99.7101 433.96 99.7101 432.89C99.7101 432.02 99.9401 431.26 100.41 430.61C100.88 429.96 101.53 429.45 102.35 429.09C103.17 428.72 104.11 428.54 105.16 428.54C106.21 428.54 107.16 428.72 107.96 429.09C108.76 429.46 109.38 429.96 109.83 430.61C110.27 431.26 110.5 432.02 110.52 432.87H107.6L107.57 432.85Z" fill="white"/>
<path d="M114.7 443.11V428.72H120.38C121.47 428.72 122.4 428.93 123.17 429.34C123.94 429.75 124.52 430.33 124.93 431.06C125.33 431.79 125.54 432.64 125.54 433.59C125.54 434.54 125.33 435.39 124.92 436.12C124.51 436.85 123.91 437.42 123.13 437.83C122.35 438.24 121.41 438.44 120.3 438.44H116.68V436H119.81C120.4 436 120.88 435.9 121.26 435.69C121.64 435.49 121.93 435.2 122.12 434.84C122.31 434.48 122.4 434.06 122.4 433.59C122.4 433.12 122.31 432.69 122.12 432.34C121.93 431.98 121.64 431.7 121.26 431.5C120.88 431.3 120.39 431.2 119.8 431.2H117.75V443.1H114.71L114.7 443.11Z" fill="white"/>
<path d="M142.71 435.91C142.71 437.48 142.41 438.81 141.82 439.91C141.23 441.01 140.42 441.85 139.4 442.43C138.38 443.01 137.24 443.3 135.97 443.3C134.7 443.3 133.54 443.01 132.53 442.43C131.51 441.85 130.71 441.01 130.12 439.91C129.53 438.81 129.23 437.48 129.23 435.91C129.23 434.34 129.53 433.01 130.12 431.91C130.71 430.81 131.51 429.97 132.53 429.39C133.55 428.81 134.69 428.52 135.97 428.52C137.25 428.52 138.38 428.81 139.4 429.39C140.42 429.97 141.22 430.81 141.82 431.91C142.41 433.01 142.71 434.35 142.71 435.91ZM139.63 435.91C139.63 434.89 139.48 434.04 139.18 433.34C138.88 432.64 138.45 432.11 137.9 431.75C137.35 431.39 136.71 431.21 135.97 431.21C135.23 431.21 134.59 431.39 134.05 431.75C133.5 432.11 133.08 432.64 132.77 433.34C132.47 434.04 132.32 434.9 132.32 435.91C132.32 436.92 132.47 437.78 132.77 438.48C133.07 439.18 133.5 439.71 134.05 440.07C134.6 440.43 135.24 440.61 135.97 440.61C136.7 440.61 137.35 440.43 137.9 440.07C138.45 439.71 138.87 439.18 139.18 438.48C139.48 437.78 139.63 436.93 139.63 435.91Z" fill="white"/>
<path d="M146.94 443.11V428.72H152.62C153.71 428.72 154.64 428.91 155.41 429.3C156.18 429.69 156.77 430.23 157.17 430.94C157.57 431.65 157.78 432.47 157.78 433.42C157.78 434.37 157.57 435.2 157.16 435.88C156.75 436.56 156.15 437.09 155.37 437.46C154.59 437.83 153.65 438.01 152.54 438.01H148.74V435.56H152.05C152.63 435.56 153.11 435.48 153.5 435.32C153.88 435.16 154.17 434.92 154.36 434.6C154.55 434.28 154.64 433.89 154.64 433.41C154.64 432.93 154.55 432.53 154.36 432.2C154.17 431.87 153.88 431.62 153.5 431.45C153.12 431.28 152.63 431.19 152.04 431.19H149.99V443.09H146.95L146.94 443.11ZM154.71 436.56L158.29 443.11H154.93L151.43 436.56H154.71Z" fill="white"/>
<path d="M161.35 431.22V428.71H173.17V431.22H168.76V443.1H165.75V431.22H161.34H161.35Z" fill="white"/>
<path d="M182.2 443.11H177.1V428.72H182.24C183.69 428.72 184.93 429.01 185.98 429.58C187.02 430.15 187.83 430.98 188.39 432.05C188.95 433.12 189.24 434.41 189.24 435.9C189.24 437.39 188.96 438.69 188.39 439.76C187.83 440.84 187.02 441.66 185.97 442.24C184.92 442.82 183.66 443.1 182.2 443.1V443.11ZM180.15 440.5H182.08C182.98 440.5 183.74 440.34 184.35 440.02C184.97 439.7 185.43 439.2 185.74 438.52C186.05 437.84 186.21 436.97 186.21 435.9C186.21 434.83 186.05 433.97 185.74 433.29C185.43 432.62 184.97 432.12 184.35 431.8C183.74 431.48 182.98 431.32 182.08 431.32H180.14V440.5H180.15Z" fill="white"/>
<path d="M196.51 428.72V443.11H193.47V428.72H196.51Z" fill="white"/>
<path d="M201 443.11V428.72H206.68C207.77 428.72 208.7 428.93 209.47 429.34C210.24 429.75 210.82 430.33 211.23 431.06C211.63 431.79 211.84 432.64 211.84 433.59C211.84 434.54 211.63 435.39 211.22 436.12C210.81 436.85 210.21 437.42 209.43 437.83C208.65 438.24 207.71 438.44 206.6 438.44H202.98V436H206.11C206.7 436 207.18 435.9 207.56 435.69C207.94 435.49 208.23 435.2 208.42 434.84C208.61 434.48 208.7 434.06 208.7 433.59C208.7 433.12 208.61 432.69 208.42 432.34C208.23 431.98 207.94 431.7 207.56 431.5C207.18 431.3 206.69 431.2 206.1 431.2H204.05V443.1H201.01L201 443.11Z" fill="white"/>
<path d="M215.79 443.11V428.72H218.83V440.6H225V443.11H215.79Z" fill="white"/>
<path d="M241.66 435.91C241.66 437.48 241.36 438.81 240.77 439.91C240.18 441.01 239.37 441.85 238.35 442.43C237.33 443.01 236.19 443.3 234.92 443.3C233.65 443.3 232.49 443.01 231.48 442.43C230.46 441.85 229.66 441.01 229.07 439.91C228.48 438.81 228.18 437.48 228.18 435.91C228.18 434.34 228.47 433.01 229.07 431.91C229.66 430.81 230.46 429.97 231.48 429.39C232.5 428.81 233.64 428.52 234.92 428.52C236.2 428.52 237.33 428.81 238.35 429.39C239.37 429.97 240.17 430.81 240.77 431.91C241.36 433.01 241.66 434.35 241.66 435.91ZM238.58 435.91C238.58 434.89 238.43 434.04 238.13 433.34C237.83 432.64 237.4 432.11 236.85 431.75C236.3 431.39 235.66 431.21 234.92 431.21C234.18 431.21 233.54 431.39 232.99 431.75C232.44 432.11 232.02 432.64 231.71 433.34C231.41 434.04 231.26 434.9 231.26 435.91C231.26 436.92 231.41 437.78 231.71 438.48C232.01 439.18 232.44 439.71 232.99 440.07C233.54 440.43 234.18 440.61 234.92 440.61C235.66 440.61 236.3 440.43 236.85 440.07C237.4 439.71 237.82 439.18 238.13 438.48C238.43 437.78 238.58 436.93 238.58 435.91Z" fill="white"/>
<path d="M245.89 428.72H249.64L253.6 438.39H253.77L257.73 428.72H261.48V443.11H258.53V433.74H258.41L254.69 443.04H252.68L248.96 433.71H248.84V443.11H245.89V428.72Z" fill="white"/>
<path d="M268.45 443.11H265.19L270.16 428.72H274.08L279.04 443.11H275.78L272.18 432.01H272.07L268.46 443.11H268.45ZM268.24 437.45H275.94V439.82H268.24V437.45Z" fill="white"/>
<g clip-path="url(#clip1_28_233)">
<path d="M149 384C216.379 384 271 329.379 271 262C271 194.621 216.379 140 149 140C81.6213 140 27 194.621 27 262C27 329.379 81.6213 384 149 384Z" fill="white"/>
<path d="M149 373.085C210.351 373.085 260.086 323.351 260.086 262C260.086 200.649 210.351 150.915 149 150.915C87.6492 150.915 37.9146 200.649 37.9146 262C37.9146 323.351 87.6492 373.085 149 373.085Z" fill="white"/>
<path d="M106.05 299.849C105.771 299.849 105.487 299.827 105.211 299.786C97.0008 298.547 91.6915 295.36 87.8132 293.034C83.7894 290.62 81.7714 289.408 76.2366 289.408C70.7017 289.408 68.6837 290.62 64.6599 293.034C60.7768 295.364 55.4578 298.554 47.2307 299.791C47.0754 299.815 46.9178 299.825 46.7601 299.825C45.4067 299.825 44.2061 298.966 43.772 297.688C41.623 291.35 40.0441 284.77 39.0787 278.129C38.955 277.271 39.1951 276.39 39.7384 275.713C40.2866 275.032 41.1015 274.603 41.9747 274.537C46.0131 274.236 48.0529 273.014 51.4315 270.986C56.5589 267.911 63.5806 263.698 76.2366 263.698C88.8926 263.698 95.9142 267.911 101.042 270.986L102.252 271.711C105.196 273.477 107.277 276.286 108.109 279.616L111.432 292.91C111.852 294.591 111.483 296.337 110.416 297.703C109.351 299.066 107.763 299.847 106.053 299.847L106.05 299.849Z" fill="#0047AB"/>
<path d="M191.95 299.849C190.24 299.849 188.649 299.068 187.584 297.705C186.519 296.339 186.148 294.593 186.568 292.912L189.891 279.618C190.723 276.286 192.804 273.48 195.748 271.714L196.958 270.989C202.086 267.913 209.107 263.7 221.763 263.7C234.419 263.7 241.441 267.913 246.569 270.989C249.947 273.016 251.987 274.241 256.028 274.54C256.901 274.605 257.716 275.032 258.262 275.716C258.805 276.393 259.045 277.273 258.921 278.132C257.956 284.773 256.377 291.353 254.228 297.69C253.794 298.969 252.593 299.827 251.24 299.827C251.082 299.827 250.925 299.815 250.769 299.793C242.542 298.556 237.223 295.364 233.34 293.036C229.316 290.623 227.298 289.41 221.763 289.41C216.229 289.41 214.211 290.62 210.187 293.036C206.309 295.362 200.999 298.549 192.789 299.788C192.51 299.83 192.229 299.852 191.95 299.852V299.849Z" fill="#0047AB"/>
<path d="M119.96 368.717C118.655 368.717 117.353 368.518 116.092 368.128C98.0051 362.525 81.5169 352.265 68.4098 338.455C67.5852 337.584 67.3256 336.342 67.7355 335.215C68.1454 334.084 69.1374 333.298 70.3283 333.158C72.2178 332.935 74.2066 332.823 76.2367 332.823C88.8927 332.823 95.9144 337.036 101.042 340.112C105.066 342.525 107.084 343.738 112.618 343.738C118.153 343.738 120.171 342.525 124.195 340.112C129.323 337.036 136.344 332.823 149 332.823C161.656 332.823 168.678 337.036 173.805 340.112C177.829 342.525 179.847 343.738 185.382 343.738C190.917 343.738 192.935 342.527 196.959 340.112C202.086 337.036 209.108 332.823 221.764 332.823C223.794 332.823 225.783 332.935 227.672 333.158C228.863 333.298 229.855 334.087 230.265 335.215C230.675 336.345 230.415 337.587 229.591 338.455C216.483 352.265 199.995 362.528 181.909 368.128C180.647 368.518 179.347 368.717 178.04 368.717C177.14 368.717 176.238 368.623 175.362 368.434C168.62 366.983 163.97 364.194 160.577 362.159C156.553 359.746 154.535 358.533 149 358.533C143.465 358.533 141.447 359.746 137.423 362.159C133.841 364.31 129.381 366.986 122.638 368.436C121.762 368.625 120.863 368.72 119.963 368.72L119.96 368.717Z" fill="#0047AB"/>
<path d="M185.382 334.885C172.726 334.885 165.704 330.672 160.577 327.596C156.553 325.183 154.535 323.97 149 323.97C143.465 323.97 141.447 325.183 137.423 327.596C132.296 330.672 125.274 334.885 112.618 334.885C99.9623 334.885 92.9407 330.672 87.8133 327.596C83.7895 325.183 81.7715 323.97 76.2366 323.97C70.7017 323.97 68.6838 325.183 64.66 327.596C64.2573 327.839 63.8402 328.089 63.4109 328.341C62.9258 328.627 62.3703 328.78 61.8052 328.78C60.8035 328.78 59.8527 328.297 59.2633 327.492C55.3317 322.115 51.8682 316.352 48.9697 310.368C48.2615 308.903 48.8048 307.108 50.2091 306.281C50.6021 306.049 51.0095 305.806 51.4316 305.551C56.559 302.476 63.5806 298.263 76.2366 298.263C88.8926 298.263 95.9143 302.476 101.042 305.551C105.065 307.965 107.083 309.177 112.618 309.177C118.153 309.177 120.171 307.965 124.195 305.551C129.322 302.476 136.344 298.263 149 298.263C161.656 298.263 168.678 302.476 173.805 305.551C177.829 307.965 179.847 309.177 185.382 309.177C190.917 309.177 192.935 307.967 196.958 305.551C202.086 302.476 209.107 298.263 221.763 298.263C234.419 298.263 241.441 302.476 246.568 305.551C246.993 305.806 247.398 306.049 247.791 306.281C249.195 307.108 249.739 308.903 249.03 310.368C246.132 316.354 242.668 322.115 238.737 327.492C238.147 328.3 237.197 328.78 236.195 328.78C235.63 328.78 235.077 328.629 234.592 328.341C234.162 328.086 233.748 327.839 233.343 327.596C229.319 325.183 227.298 323.97 221.766 323.97C216.233 323.97 214.213 325.18 210.189 327.596C205.062 330.672 198.04 334.885 185.384 334.885H185.382Z" fill="#87D3F8"/>
<path d="M41.0167 265.107C39.3068 265.107 37.9146 263.712 37.9146 262C37.9146 244.04 42.3022 226.196 50.6045 210.399C51.1526 209.356 52.2247 208.708 53.401 208.708C54.1699 208.708 54.9097 208.989 55.4869 209.499L76.2221 227.828L66.5567 189.656C66.2947 188.618 66.5688 187.529 67.294 186.743C70.5489 183.212 74.0586 179.862 77.7307 176.789C78.2983 176.314 79.0162 176.052 79.7511 176.052C81.2039 176.052 82.4652 177.034 82.8169 178.441C83.4814 181.058 99.1741 242.8 100.312 248.43C100.901 251.34 100.212 254.263 98.4246 256.448C96.6686 258.595 94.0443 259.824 91.2235 259.824C90.4182 259.824 89.5984 259.725 88.7932 259.526C88.7301 259.512 88.6695 259.492 88.6088 259.475C84.5971 258.316 81.6211 256.472 77.527 253.477L77.4954 253.455L59.2658 238.963C58.9311 240.115 58.6521 241.19 58.3635 242.701L58.3562 242.737C58.1573 243.676 57.842 245.405 57.4637 247.603C57.4612 247.62 57.4588 247.637 57.454 247.654C56.7506 252.5 56.4741 256.916 56.314 260.222C56.2509 261.52 55.3778 262.665 54.1432 263.067C50.0951 264.387 46.0641 265.017 41.0749 265.107H41.0191H41.0167Z" fill="#FF8000"/>
<path d="M171.452 296.888C169.881 296.888 168.316 296.475 166.929 295.694C163.778 293.924 161.326 291.959 159.16 290.227C155.219 287.074 153.587 285.767 149 285.767C144.414 285.767 142.781 287.072 138.84 290.225C136.783 291.872 134.222 293.919 131.071 295.692C129.684 296.473 128.119 296.885 126.548 296.885C122.303 296.885 118.621 294.013 117.595 289.902L88.2499 172.516C87.789 170.672 88.5628 168.759 90.1757 167.75C95.3104 164.538 100.741 161.732 106.319 159.408C106.853 159.185 107.413 159.074 107.986 159.074C109.992 159.074 111.731 160.434 112.221 162.384L136.339 258.859C136.402 259.111 136.628 259.225 136.81 259.225C136.883 259.225 136.953 259.208 137.023 259.174C140.843 257.319 144.763 256.417 149.005 256.417C153.247 256.417 157.167 257.319 160.987 259.174C161.057 259.208 161.127 259.225 161.2 259.225C161.382 259.225 161.608 259.111 161.671 258.859L185.789 162.384C186.277 160.434 188.018 159.074 190.024 159.074C190.596 159.074 191.157 159.185 191.69 159.408C197.269 161.732 202.699 164.538 207.834 167.75C209.447 168.759 210.221 170.672 209.76 172.516L180.414 289.902C179.386 294.013 175.704 296.885 171.462 296.885L171.452 296.888Z" fill="#FF8000"/>
<path d="M240.973 260.673C238.899 260.673 236.818 260.339 234.786 259.681C232.144 258.825 228.276 257.843 221.761 257.843C221.664 257.843 221.548 257.843 221.402 257.838C221.184 257.833 220.885 257.826 220.512 257.826C218.77 257.826 216.939 257.969 215.072 258.25L215.04 258.255C213.927 258.406 212.881 258.592 211.846 258.825L211.809 258.832C210.856 259.029 209.886 259.252 208.928 259.495C208.169 259.686 207.395 259.783 206.626 259.783C203.786 259.783 201.142 258.483 199.372 256.218C197.621 253.977 197.014 251.1 197.708 248.328L215.181 178.443C215.532 177.037 216.794 176.054 218.247 176.054C218.981 176.054 219.699 176.316 220.267 176.792C220.762 177.206 221.264 177.633 221.761 178.065L221.78 178.082C222.637 178.81 223.522 179.605 224.414 180.447C238.421 193.401 248.911 209.807 254.74 227.879C258.143 238.255 258.395 246.763 255.47 252.475C253.639 256.05 250.629 258.524 246.522 259.827C244.747 260.39 242.879 260.676 240.971 260.676L240.973 260.673ZM219.973 239.305C221.4 239.305 222.952 239.363 224.453 239.422C225.952 239.477 227.504 239.538 228.921 239.538C232.341 239.538 234.546 238.67 235.467 236.957C236.728 234.619 237.087 228.153 226.083 210.845L218.964 239.317C219.282 239.31 219.619 239.308 219.971 239.308L219.973 239.305Z" fill="#FF8000"/>
<g opacity="0.75">
<path d="M100.042 272.65C95.1089 269.691 88.354 265.638 76.2365 265.638C64.119 265.638 57.3617 269.691 52.4307 272.65C48.9211 274.755 46.6121 276.138 42.1177 276.473C41.4168 276.524 40.8977 277.154 40.9996 277.85C41.9625 284.467 43.5172 290.89 45.6104 297.065C45.7996 297.62 46.3623 297.96 46.942 297.872C54.7834 296.694 59.7847 293.693 63.6606 291.37C67.7159 288.937 70.1632 287.467 76.2365 287.467C82.3098 287.467 84.7571 288.937 88.8125 291.37C92.6835 293.691 97.6775 296.686 105.502 297.868C108.058 298.253 110.178 295.891 109.55 293.383L106.227 280.089C105.526 277.28 103.736 274.867 101.253 273.378L100.042 272.653V272.65Z" fill="white"/>
<path d="M245.569 272.65C240.636 269.691 233.881 265.638 221.763 265.638C209.646 265.638 202.888 269.691 197.958 272.65L196.747 273.375C194.266 274.865 192.476 277.278 191.773 280.087L188.45 293.38C187.822 295.888 189.941 298.251 192.498 297.865C200.322 296.684 205.316 293.688 209.187 291.367C213.243 288.935 215.69 287.465 221.763 287.465C227.837 287.465 230.284 288.935 234.339 291.367C238.215 293.693 243.216 296.691 251.058 297.87C251.638 297.957 252.203 297.618 252.389 297.062C254.483 290.887 256.037 284.465 257 277.848C257.102 277.152 256.583 276.524 255.882 276.47C251.388 276.136 249.079 274.753 245.569 272.648V272.65Z" fill="white"/>
<path d="M228.181 337.119C228.865 336.398 228.431 335.2 227.444 335.084C225.69 334.877 223.803 334.763 221.761 334.763C209.643 334.763 202.886 338.816 197.955 341.775C193.9 344.208 191.452 345.678 185.379 345.678C179.306 345.678 176.859 344.208 172.803 341.775C167.87 338.816 161.115 334.763 148.997 334.763C136.88 334.763 130.123 338.816 125.192 341.775C121.136 344.208 118.689 345.678 112.616 345.678C106.542 345.678 104.095 344.208 100.04 341.775C95.1065 338.816 88.3516 334.763 76.234 334.763C74.1942 334.763 72.3048 334.88 70.5512 335.084C69.5641 335.2 69.1299 336.398 69.8139 337.119C82.5208 350.507 98.587 360.677 116.661 366.275C118.464 366.833 120.38 366.932 122.223 366.537C128.643 365.157 132.977 362.559 136.419 360.495C140.474 358.062 142.922 356.592 148.995 356.592C155.068 356.592 157.516 358.062 161.571 360.495C165.013 362.561 169.345 365.157 175.767 366.537C177.61 366.935 179.527 366.833 181.329 366.275C199.406 360.677 215.472 350.507 228.176 337.119H228.181Z" fill="white"/>
<path d="M245.569 307.213C240.636 304.254 233.881 300.201 221.763 300.201C209.646 300.201 202.888 304.254 197.957 307.213C193.902 309.645 191.455 311.115 185.382 311.115C179.308 311.115 176.861 309.645 172.806 307.213C167.872 304.254 161.117 300.201 149 300.201C136.882 300.201 130.125 304.254 125.194 307.213C121.139 309.645 118.691 311.115 112.618 311.115C106.545 311.115 104.098 309.645 100.042 307.213C95.1088 304.254 88.3539 300.201 76.2364 300.201C64.1189 300.201 57.3616 304.254 52.4306 307.213C52.0013 307.47 51.5914 307.715 51.1937 307.95C50.6528 308.27 50.4418 308.952 50.7158 309.519C53.5876 315.447 56.9784 321.074 60.83 326.345C61.1962 326.847 61.8899 326.985 62.4235 326.67C62.8479 326.417 63.2603 326.173 63.6605 325.932C67.7158 323.5 70.1631 322.03 76.2364 322.03C82.3097 322.03 84.757 323.5 88.8124 325.932C93.7457 328.891 100.501 332.944 112.618 332.944C124.736 332.944 131.493 328.891 136.424 325.932C140.479 323.5 142.927 322.03 149 322.03C155.073 322.03 157.52 323.5 161.576 325.932C166.509 328.891 173.264 332.944 185.382 332.944C197.499 332.944 204.256 328.891 209.187 325.932C213.243 323.5 215.69 322.03 221.763 322.03C227.837 322.03 230.284 323.5 234.339 325.932C234.739 326.173 235.149 326.42 235.576 326.67C236.112 326.985 236.803 326.847 237.17 326.345C241.021 321.074 244.412 315.447 247.284 309.519C247.558 308.954 247.349 308.27 246.806 307.95C246.408 307.715 245.998 307.47 245.569 307.213Z" fill="white"/>
<path d="M53.5391 261.221C54.0169 261.066 54.3492 260.63 54.3735 260.128C54.536 256.763 54.8173 252.279 55.5328 247.365C55.528 247.399 56.1028 243.996 56.4545 242.334C56.8984 240.018 57.3131 238.704 57.9171 236.688C58.065 236.196 58.6641 236.006 59.0667 236.327L78.6692 251.91C82.4141 254.651 85.2713 256.492 89.1326 257.608C89.1714 257.62 89.2102 257.632 89.2514 257.641C94.7887 259 99.5474 254.462 98.4075 248.815C97.2675 243.169 80.9321 178.914 80.9321 178.914C80.7138 178.046 79.6612 177.704 78.9748 178.278C75.3487 181.315 71.924 184.585 68.72 188.06C68.4435 188.361 68.3368 188.785 68.4387 189.181L79.261 231.922C79.3774 232.385 78.8268 232.72 78.4703 232.405L54.2037 210.954C53.6119 210.433 52.6902 210.605 52.324 211.303C44.3637 226.453 39.8572 243.7 39.8572 262.002C39.8572 262.652 40.3908 263.181 41.0408 263.169C46.5781 263.07 50.3545 262.264 53.5416 261.224L53.5391 261.221Z" fill="white"/>
<path d="M206.798 169.399C201.77 166.255 196.471 163.507 190.938 161.203C189.575 160.636 188.025 161.426 187.666 162.86L168.505 239.499L163.548 259.332C163.174 260.829 161.52 261.597 160.133 260.923C156.987 259.395 153.327 258.359 149 258.359C144.673 258.359 141.013 259.395 137.867 260.923C136.48 261.597 134.828 260.829 134.452 259.332L110.333 162.857C109.975 161.424 108.425 160.633 107.062 161.201C101.529 163.505 96.2295 166.251 91.2016 169.396C90.309 169.954 89.8748 171.024 90.1295 172.047L116.172 276.218L119.475 289.434C120.642 294.098 125.927 296.361 130.118 294.004C133.123 292.313 135.534 290.387 137.625 288.714C141.69 285.461 143.729 283.829 148.998 283.829C154.266 283.829 156.305 285.461 160.37 288.714C162.461 290.387 164.872 292.313 167.877 294.004C172.068 296.361 177.353 294.101 178.52 289.434L181.824 276.218L189.68 244.794L207.866 172.047C208.12 171.026 207.686 169.957 206.794 169.399H206.798Z" fill="white"/>
<path d="M252.896 228.473C247.078 210.425 236.685 194.434 223.085 181.858C222.227 181.048 221.373 180.279 220.526 179.561C220.526 179.561 220.526 179.561 220.524 179.559C220.029 179.127 219.527 178.703 219.025 178.281C218.339 177.706 217.286 178.048 217.068 178.919L216.493 181.22L199.595 248.803C198.258 254.146 203.114 258.971 208.455 257.617C209.483 257.358 210.475 257.13 211.421 256.936C212.457 256.7 213.57 256.497 214.785 256.334C217.32 255.953 219.299 255.888 220.514 255.888C221.13 255.888 221.55 255.905 221.751 255.905C221.756 255.905 221.761 255.905 221.766 255.905C227.919 255.905 231.989 256.737 235.387 257.838C237.201 258.425 239.091 258.735 240.975 258.735C242.651 258.735 244.325 258.49 245.943 257.979C256.762 254.547 257.495 242.49 252.899 228.475L252.896 228.473ZM224.88 207.665C225.033 207.049 225.848 206.913 226.195 207.442C237.194 224.163 244.892 241.476 228.921 241.476C225.113 241.476 220.648 241.073 217.456 241.33C216.958 241.372 216.566 240.913 216.687 240.431L224.88 207.665Z" fill="white"/>
</g>
<path d="M106.053 295.968C105.968 295.968 105.88 295.961 105.793 295.949C98.3397 294.824 93.6125 291.986 89.8119 289.706C85.6183 287.191 82.8484 285.527 76.2391 285.527C69.6297 285.527 66.8599 287.188 62.6663 289.706C58.9626 291.928 54.3785 294.678 47.255 295.859C45.3631 290.169 43.9467 284.283 43.0371 278.34C47.5024 277.872 50.0175 276.364 53.4302 274.316C58.1671 271.474 64.6575 267.581 76.2391 267.581C87.8206 267.581 94.3086 271.474 99.048 274.316L100.258 275.042C102.315 276.274 103.765 278.236 104.348 280.56L107.67 293.853C107.845 294.557 107.552 295.071 107.36 295.316C107.037 295.731 106.562 295.968 106.055 295.968H106.053Z" fill="#0047AB"/>
<path d="M191.95 295.968C191.443 295.968 190.967 295.731 190.645 295.316C190.453 295.071 190.16 294.557 190.334 293.853L193.657 280.56C194.239 278.234 195.69 276.274 197.747 275.042L198.957 274.316C203.694 271.474 210.184 267.581 221.766 267.581C233.347 267.581 239.835 271.474 244.575 274.316C247.987 276.364 250.502 277.875 254.968 278.34C254.058 284.283 252.642 290.169 250.75 295.859C243.626 294.678 239.042 291.928 235.339 289.706C231.145 287.191 228.375 285.527 221.766 285.527C215.156 285.527 212.387 287.188 208.193 289.703C204.392 291.983 199.663 294.821 192.212 295.947C192.124 295.959 192.037 295.966 191.952 295.966L191.95 295.968Z" fill="#0047AB"/>
<path d="M119.96 364.837C119.043 364.837 118.129 364.696 117.241 364.422C100.263 359.163 84.7426 349.648 72.2661 336.864C73.554 336.757 74.8832 336.704 76.2366 336.704C87.8181 336.704 94.3062 340.597 99.0455 343.439C103.239 345.954 106.009 347.618 112.618 347.618C119.228 347.618 121.997 345.957 126.191 343.439C130.93 340.597 137.418 336.704 149 336.704C160.581 336.704 167.07 340.597 171.809 343.439C176.002 345.957 178.772 347.618 185.382 347.618C191.991 347.618 194.761 345.957 198.955 343.439C203.694 340.597 210.182 336.704 221.763 336.704C223.117 336.704 224.446 336.757 225.734 336.864C213.257 349.648 197.737 359.163 180.759 364.422C179.871 364.696 178.957 364.837 178.04 364.837C177.412 364.837 176.786 364.771 176.18 364.64C170.065 363.326 165.913 360.832 162.575 358.831C158.382 356.316 155.612 354.652 149.002 354.652C142.393 354.652 139.623 356.314 135.43 358.831C132.092 360.835 127.937 363.326 121.823 364.64C121.216 364.771 120.591 364.837 119.963 364.837H119.96Z" fill="#0047AB"/>
<path d="M185.382 331.004C173.8 331.004 167.312 327.111 162.573 324.269C158.379 321.751 155.609 320.089 149 320.089C142.391 320.089 139.621 321.751 135.427 324.269C130.688 327.111 124.2 331.004 112.618 331.004C101.037 331.004 94.5488 327.111 89.8094 324.269C85.6158 321.751 82.846 320.089 76.2366 320.089C69.6273 320.089 66.8574 321.751 62.6638 324.269C62.448 324.397 62.2297 324.53 62.0065 324.661C58.5042 319.808 55.3972 314.64 52.7583 309.279C52.9766 309.148 53.1997 309.015 53.4277 308.877C58.1646 306.034 64.6551 302.141 76.2366 302.141C87.8181 302.141 94.3062 306.034 99.0455 308.877C103.239 311.394 106.009 313.056 112.618 313.056C119.228 313.056 121.998 311.394 126.191 308.877C130.93 306.034 137.419 302.141 149 302.141C160.582 302.141 167.07 306.034 171.809 308.877C176.003 311.394 178.772 313.056 185.382 313.056C191.991 313.056 194.761 311.394 198.955 308.879C203.694 306.036 210.182 302.141 221.763 302.141C233.345 302.141 239.833 306.034 244.572 308.877C244.8 309.012 245.023 309.148 245.242 309.279C242.603 314.64 239.496 319.808 235.994 324.661C235.77 324.528 235.552 324.397 235.336 324.269C231.143 321.753 228.373 320.089 221.763 320.089C215.154 320.089 212.384 321.751 208.191 324.266C203.451 327.109 196.963 331.004 185.382 331.004Z" fill="#87D3F8"/>
<path d="M41.7976 261.207C41.9213 244.452 45.9985 227.83 53.6119 213.025L77.1824 233.86C77.6287 234.253 78.1963 234.471 78.7857 234.471C79.5303 234.471 80.2482 234.119 80.7066 233.53C81.1674 232.938 81.3251 232.179 81.1383 231.449L70.413 189.089C73.2144 186.069 76.2123 183.192 79.3362 180.517C81.524 189.135 95.4679 244.078 96.506 249.203C96.8674 250.993 96.4817 252.696 95.4194 253.996C94.4031 255.238 92.8751 255.949 91.2209 255.949C90.7334 255.949 90.2338 255.888 89.7366 255.767L89.6735 255.747C86.2148 254.748 83.6463 253.15 79.8432 250.37L60.2698 234.811C59.7993 234.437 59.2099 234.231 58.6132 234.231C57.4247 234.231 56.3939 234.995 56.0544 236.135L55.921 236.581C55.3946 238.34 54.9775 239.73 54.5506 241.956C54.3614 242.858 54.1092 244.234 53.8981 245.429H53.8521L53.6095 247.091C52.9158 251.859 52.6272 256.201 52.4574 259.533C50.1266 260.261 46.8498 261.049 41.7952 261.209L41.7976 261.207Z" fill="#FF8000"/>
<path d="M171.452 293.007C170.531 293.007 169.65 292.774 168.83 292.313C165.956 290.695 163.633 288.838 161.583 287.198C157.443 283.887 154.945 281.889 148.998 281.889C143.05 281.889 140.552 283.887 136.412 287.198C134.362 288.838 132.041 290.695 129.165 292.313C128.345 292.774 127.464 293.007 126.543 293.007C124.083 293.007 121.949 291.346 121.355 288.964L92.0092 171.577C91.9583 171.371 92.0456 171.157 92.2275 171.043C97.1827 167.944 102.422 165.237 107.806 162.996C107.864 162.971 107.923 162.959 107.981 162.959C108.168 162.959 108.388 163.088 108.449 163.33L132.568 259.805C133.055 261.753 134.797 263.111 136.802 263.111C137.467 263.111 138.11 262.963 138.711 262.669C141.99 261.076 145.357 260.302 148.998 260.302C152.638 260.302 156.002 261.076 159.284 262.669C159.885 262.963 160.528 263.111 161.193 263.111C163.201 263.111 164.942 261.75 165.428 259.805L189.546 163.333C189.607 163.088 189.828 162.962 190.014 162.962C190.072 162.962 190.131 162.974 190.189 162.998C195.571 165.239 200.812 167.948 205.768 171.046C205.949 171.16 206.037 171.373 205.986 171.579L176.64 288.966C176.046 291.346 173.912 293.009 171.452 293.009V293.007Z" fill="#FF8000"/>
<path d="M240.973 256.793C239.307 256.793 237.628 256.523 235.984 255.99C231.657 254.588 227.269 253.962 221.763 253.962C221.686 253.962 221.598 253.962 221.487 253.957C221.249 253.952 220.922 253.945 220.514 253.945C218.586 253.945 216.566 254.103 214.511 254.411C213.294 254.576 212.149 254.779 211.011 255.037C210.007 255.243 208.986 255.478 207.98 255.735C207.533 255.849 207.08 255.905 206.631 255.905C204.994 255.905 203.466 255.148 202.437 253.831C201.414 252.519 201.072 250.899 201.479 249.271L218.671 180.52C218.865 180.687 219.061 180.854 219.255 181.024L219.304 181.063C220.099 181.74 220.927 182.482 221.758 183.27C235.307 195.8 245.431 211.633 251.055 229.07C254.133 238.459 254.468 245.936 252.026 250.707C250.665 253.365 248.484 255.138 245.361 256.128C243.966 256.569 242.491 256.795 240.98 256.795L240.973 256.793ZM219.973 243.186C221.327 243.186 222.775 243.242 224.308 243.3C225.843 243.358 227.432 243.419 228.921 243.419C233.878 243.419 237.23 241.864 238.885 238.798C241.994 233.03 238.373 222.426 227.817 206.377C227.322 205.623 226.488 205.174 225.591 205.174C224.363 205.174 223.296 206.006 222.998 207.195L214.805 239.96C214.603 240.763 214.78 241.597 215.29 242.247C215.799 242.9 216.566 243.273 217.395 243.273C217.468 243.273 217.538 243.271 217.613 243.263C218.278 243.21 219.052 243.183 219.976 243.183L219.973 243.186Z" fill="#FF8000"/>
</g>
</g>
<defs>
<clipPath id="clip0_28_233">
<rect width="297.64" height="566.93" fill="white"/>
</clipPath>
<clipPath id="clip1_28_233">
<rect width="244" height="244" fill="white" transform="translate(27 140)"/>
</clipPath>
</defs>
</svg>
