<?xml version="1.0" encoding="UTF-8"?>
<svg id="Layer_2" data-name="Layer 2" xmlns="http://www.w3.org/2000/svg" viewBox="0 0 990 990">
  <defs>
    <style>
      .cls-1 {
        fill: #87d3f8;
      }

      .cls-1, .cls-2, .cls-3, .cls-4 {
        stroke-width: 0px;
      }

      .cls-2 {
        fill: #ff8000;
      }

      .cls-3 {
        fill: #fff;
      }

      .cls-4 {
        fill: #0047ab;
      }
    </style>
  </defs>
  <g id="logo">
    <g>
      <g>
        <circle class="cls-3" cx="495" cy="495" r="450"/>
        <path class="cls-3" d="M495,45c248.53,0,450,201.47,450,450s-201.47,450-450,450S45,743.53,45,495,246.47,45,495,45M495,0c-66.8,0-131.64,13.09-192.69,38.92-58.95,24.93-111.88,60.62-157.33,106.06-45.45,45.45-81.13,98.38-106.06,157.33C13.09,363.36,0,428.2,0,495s13.09,131.64,38.92,192.69c24.93,58.95,60.62,111.88,106.06,157.33,45.45,45.45,98.38,81.13,157.33,106.06,61.06,25.82,125.89,38.92,192.69,38.92s131.64-13.09,192.69-38.92c58.95-24.93,111.88-60.62,157.33-106.06s81.13-98.38,106.06-157.33c25.82-61.06,38.92-125.89,38.92-192.69s-13.09-131.64-38.92-192.69c-24.93-58.95-60.62-111.88-106.06-157.33-45.45-45.45-98.38-81.13-157.33-106.06C626.64,13.09,561.8,0,495,0h0Z"/>
      </g>
      <g>
        <path class="cls-4" d="M293.15,538.91c-20.34-12.2-48.19-28.91-98.15-28.91s-77.82,16.71-98.15,28.91c-14.47,8.68-23.99,14.38-42.52,15.76-2.89.21-5.03,2.81-4.61,5.68,3.97,27.28,10.38,53.76,19.01,79.22.78,2.29,3.1,3.69,5.49,3.33,32.33-4.86,52.95-17.23,68.93-26.81,16.72-10.03,26.81-16.09,51.85-16.09s35.13,6.06,51.85,16.09c15.96,9.57,36.55,21.92,68.81,26.79,10.54,1.59,19.28-8.15,16.69-18.49l-13.7-54.81c-2.89-11.58-10.27-21.53-20.51-27.67l-4.99-2.99Z"/>
        <path class="cls-4" d="M893.15,538.91c-20.34-12.2-48.19-28.91-98.15-28.91s-77.82,16.71-98.15,28.91l-4.99,2.99c-10.23,6.14-17.61,16.09-20.51,27.67l-13.7,54.81c-2.59,10.34,6.15,20.08,16.69,18.49,32.26-4.87,52.85-17.22,68.81-26.79,16.72-10.03,26.81-16.09,51.85-16.09s35.13,6.06,51.85,16.09c15.98,9.59,36.6,21.95,68.93,26.81,2.39.36,4.72-1.04,5.49-3.33,8.63-25.46,15.04-51.94,19.01-79.22.42-2.87-1.72-5.46-4.61-5.68-18.53-1.38-28.05-7.08-42.52-15.76Z"/>
      </g>
      <path class="cls-4" d="M821.46,804.71c2.82-2.97,1.03-7.91-3.04-8.39-7.23-.85-15.01-1.32-23.43-1.32-49.96,0-77.82,16.71-98.15,28.91-16.72,10.03-26.81,16.09-51.85,16.09s-35.13-6.06-51.85-16.09c-20.34-12.2-48.19-28.91-98.15-28.91s-77.82,16.71-98.15,28.91c-16.72,10.03-26.81,16.09-51.85,16.09s-35.13-6.06-51.85-16.09c-20.34-12.2-48.19-28.91-98.15-28.91-8.41,0-16.2.48-23.43,1.32-4.07.48-5.86,5.42-3.04,8.39,52.39,55.2,118.63,97.13,193.15,120.21,7.43,2.3,15.33,2.71,22.93,1.08,26.47-5.69,44.34-16.4,58.53-24.91,16.72-10.03,26.81-16.09,51.85-16.09s35.13,6.06,51.85,16.09c14.19,8.52,32.05,19.22,58.53,24.91,7.6,1.64,15.5,1.22,22.93-1.08,74.53-23.08,140.77-65.01,193.15-120.21Z"/>
      <path class="cls-1" d="M893.15,681.41c-20.34-12.2-48.19-28.91-98.15-28.91s-77.82,16.71-98.15,28.91c-16.72,10.03-26.81,16.09-51.85,16.09s-35.13-6.06-51.85-16.09c-20.34-12.2-48.19-28.91-98.15-28.91s-77.82,16.71-98.15,28.91c-16.72,10.03-26.81,16.09-51.85,16.09s-35.13-6.06-51.85-16.09c-20.34-12.2-48.19-28.91-98.15-28.91s-77.82,16.71-98.15,28.91c-1.77,1.06-3.46,2.07-5.1,3.04-2.23,1.32-3.1,4.13-1.97,6.47,11.84,24.44,25.82,47.64,41.7,69.37,1.51,2.07,4.37,2.64,6.57,1.34,1.75-1.04,3.45-2.05,5.1-3.04,16.72-10.03,26.81-16.09,51.85-16.09s35.13,6.06,51.85,16.09c20.34,12.2,48.19,28.91,98.15,28.91s77.82-16.71,98.15-28.91c16.72-10.03,26.81-16.09,51.85-16.09s35.13,6.06,51.85,16.09c20.34,12.2,48.19,28.91,98.15,28.91s77.82-16.71,98.15-28.91c16.72-10.03,26.81-16.09,51.85-16.09s35.13,6.06,51.85,16.09c1.65.99,3.34,2.01,5.1,3.04,2.21,1.3,5.06.73,6.57-1.34,15.88-21.73,29.86-44.93,41.7-69.37,1.13-2.33.27-5.15-1.97-6.47-1.64-.97-3.33-1.98-5.1-3.04Z"/>
      <path class="cls-2" d="M101.42,491.79c1.97-.64,3.34-2.44,3.44-4.51.67-13.87,1.84-32.4,4.78-52.65-.11.04.11-.04,0,0,1.08-6.94,2.35-13.85,3.8-20.71,1.83-9.55,3.54-14.97,6.03-23.28.61-2.03,3.08-2.81,4.74-1.49l80.82,64.25c15.44,11.3,27.22,18.89,43.14,23.49.16.05.32.1.49.14,22.83,5.6,42.45-13.11,37.75-36.39s-72.05-288.2-72.05-288.2c-.9-3.58-5.24-4.99-8.07-2.62-14.95,12.52-29.07,26-42.28,40.33-1.14,1.24-1.58,2.99-1.16,4.62l44.62,176.22c.48,1.91-1.79,3.29-3.26,1.99l-100.05-88.44c-2.44-2.15-6.24-1.44-7.75,1.44-32.82,62.46-51.4,133.57-51.4,209.03h0c0,2.68,2.2,4.86,4.88,4.81,22.83-.41,38.4-3.73,51.54-8.02Z"/>
      <path class="cls-2" d="M733.3,113.21c-20.73-12.96-42.58-24.29-65.39-33.79-5.62-2.34-12.01.92-13.49,6.83l-79,315.98-20.44,81.77c-1.54,6.17-8.36,9.34-14.08,6.56-12.97-6.3-28.06-10.57-45.9-10.57s-32.93,4.27-45.9,10.57c-5.72,2.78-12.53-.39-14.08-6.56l-99.44-397.76c-1.48-5.91-7.87-9.17-13.49-6.83-22.81,9.5-44.66,20.82-65.39,33.79-3.68,2.3-5.47,6.71-4.42,10.93l107.37,429.49h0l13.62,54.49c4.81,19.23,26.6,28.56,43.88,18.84,12.39-6.97,22.33-14.91,30.95-21.81,16.76-13.41,25.17-20.14,46.89-20.14s30.13,6.73,46.89,20.14c8.62,6.9,18.56,14.84,30.95,21.81,17.28,9.72,39.07.4,43.88-18.84l13.62-54.49h0l32.39-129.56,74.98-299.93c1.05-4.21-.74-8.62-4.42-10.92Z"/>
      <path class="cls-2" d="M923.36,356.77c-23.99-74.41-66.84-140.34-122.91-192.19-3.54-3.34-7.06-6.51-10.55-9.47,0,0,0,0-.01-.01-2.04-1.78-4.11-3.53-6.18-5.27-2.83-2.37-7.17-.96-8.07,2.63l-2.37,9.49-69.67,278.64c-5.51,22.03,14.51,41.92,36.53,36.34,4.24-1.07,8.33-2.01,12.23-2.81,4.27-.97,8.86-1.81,13.87-2.48,10.45-1.57,18.61-1.84,23.62-1.84,2.54,0,4.27.07,5.1.07.02,0,.04,0,.06,0,25.37,0,42.15,3.43,56.16,7.97,7.48,2.42,15.27,3.7,23.04,3.7,6.91,0,13.81-1.01,20.48-3.12,44.61-14.15,47.63-63.86,28.68-121.64ZM807.85,270.98c.63-2.54,3.99-3.1,5.42-.92,45.35,68.94,77.09,140.32,11.24,140.32-15.7,0-34.11-1.66-47.27-.6-2.05.17-3.67-1.72-3.17-3.71l33.78-135.09Z"/>
    </g>
  </g>
</svg>