<svg width="149" height="24" viewBox="0 0 149 24" fill="none" xmlns="http://www.w3.org/2000/svg">
      <path
        d="M68.7551 9.75082V0.131491H70.2064V8.50143H74.5652V9.75082H68.7551Z"
        fill="#0047AB"
      />
      <path
        d="M60.3071 9.75082H58.7666L62.2282 0.131491H63.905L67.3666 9.75082H65.826L63.1065 1.87875H63.0314L60.3071 9.75082ZM60.5655 5.98387H65.563V7.20508H60.5655V5.98387Z"
        fill="#0047AB"
      />
      <path
        d="M51.0457 9.75082H49.5051L52.9667 0.131491H54.6435L58.1052 9.75082H56.5646L53.845 1.87875H53.7699L51.0457 9.75082ZM51.304 5.98387H56.3015V7.20508H51.304V5.98387Z"
        fill="#0047AB"
      />
      <path
        d="M48.1154 0.131491V9.75082H46.7814L41.8919 2.69602H41.8027V9.75082H40.3513V0.131491H41.6947L46.5889 7.19568H46.6781V0.131491H48.1154Z"
        fill="#0047AB"
      />
      <path
        d="M38.5413 4.94118C38.5413 5.96824 38.3534 6.85126 37.9777 7.59025C37.6019 8.3261 37.0868 8.89287 36.4324 9.29054C35.7811 9.68508 35.0405 9.88235 34.2107 9.88235C33.3778 9.88235 32.6341 9.68508 31.9797 9.29054C31.3284 8.89287 30.8149 8.32454 30.4391 7.58555C30.0633 6.84657 29.8755 5.96511 29.8755 4.94118C29.8755 3.91411 30.0633 3.03265 30.4391 2.2968C30.8149 1.55782 31.3284 0.991053 31.9797 0.596511C32.6341 0.198837 33.3778 0 34.2107 0C35.0405 0 35.7811 0.198837 36.4324 0.596511C37.0868 0.991053 37.6019 1.55782 37.9777 2.2968C38.3534 3.03265 38.5413 3.91411 38.5413 4.94118ZM37.104 4.94118C37.104 4.15835 36.9772 3.49922 36.7236 2.96377C36.4731 2.42518 36.1287 2.01812 35.6903 1.74256C35.255 1.46388 34.7618 1.32454 34.2107 1.32454C33.6565 1.32454 33.1618 1.46388 32.7265 1.74256C32.2913 2.01812 31.9468 2.42518 31.6932 2.96377C31.4427 3.49922 31.3174 4.15835 31.3174 4.94118C31.3174 5.724 31.4427 6.3847 31.6932 6.92328C31.9468 7.45873 32.2913 7.8658 32.7265 8.14449C33.1618 8.42004 33.6565 8.55782 34.2107 8.55782C34.7618 8.55782 35.255 8.42004 35.6903 8.14449C36.1287 7.8658 36.4731 7.45873 36.7236 6.92328C36.9772 6.3847 37.104 5.724 37.104 4.94118Z"
        fill="#0047AB"
      />
      <path d="M28.0729 0.131491V9.75082H26.6216V0.131491H28.0729Z" fill="#0047AB" />
      <path
        d="M17.5322 1.38088V0.131491H24.9768V1.38088H21.9755V9.75082H20.5288V1.38088H17.5322Z"
        fill="#0047AB"
      />
      <path
        d="M10.6943 9.75082H9.15372L12.6154 0.131491H14.2922L17.7538 9.75082H16.2132L13.4937 1.87875H13.4185L10.6943 9.75082ZM10.9527 5.98387H15.9502V7.20508H10.9527V5.98387Z"
        fill="#0047AB"
      />
      <path
        d="M7.76404 0.131491V9.75082H6.43011L1.54059 2.69602H1.45135V9.75082H0V0.131491H1.34332L6.23753 7.19568H6.32677V0.131491H7.76404Z"
        fill="#0047AB"
      />
      <path
        d="M78.8005 2.11765C78.8005 1.7278 79.1165 1.41176 79.5063 1.41176H147.839C148.229 1.41176 148.545 1.7278 148.545 2.11765C148.545 2.5075 148.229 2.82353 147.839 2.82353H79.5063C79.1165 2.82353 78.8005 2.5075 78.8005 2.11765Z"
        fill="#0047AB"
      />
      <path
        d="M78.8005 7.76471C78.8005 7.37486 79.1165 7.05882 79.5063 7.05882H147.839C148.229 7.05882 148.545 7.37486 148.545 7.76471C148.545 8.15455 148.229 8.47059 147.839 8.47059H79.5063C79.1165 8.47059 78.8005 8.15455 78.8005 7.76471Z"
        fill="#0047AB"
      />
      <path
        d="M141.506 23.8409H139.969L143.421 14.2489H145.093L148.545 23.8409H147.009L144.297 15.9912H144.222L141.506 23.8409ZM141.763 20.0847H146.747V21.3024H141.763V20.0847Z"
        fill="#0047AB"
      />
      <path
        d="M128.858 14.2489H130.615L133.668 21.7052H133.781L136.834 14.2489H138.591V23.8409H137.214V16.8998H137.125L134.296 23.8269H133.153L130.324 16.8952H130.235V23.8409H128.858V14.2489Z"
        fill="#0047AB"
      />
      <path
        d="M127.054 19.0448C127.054 20.0689 126.867 20.9494 126.492 21.6863C126.117 22.4201 125.604 22.9852 124.951 23.3818C124.302 23.7752 123.563 23.9719 122.736 23.9719C121.905 23.9719 121.164 23.7752 120.511 23.3818C119.862 22.9852 119.35 22.4185 118.975 21.6816C118.6 20.9447 118.413 20.0658 118.413 19.0448C118.413 18.0206 118.6 17.1417 118.975 16.4079C119.35 15.671 119.862 15.1059 120.511 14.7125C121.164 14.3159 121.905 14.1176 122.736 14.1176C123.563 14.1176 124.302 14.3159 124.951 14.7125C125.604 15.1059 126.117 15.671 126.492 16.4079C126.867 17.1417 127.054 18.0206 127.054 19.0448ZM125.621 19.0448C125.621 18.2642 125.494 17.6069 125.242 17.073C124.992 16.5359 124.648 16.13 124.211 15.8553C123.777 15.5774 123.285 15.4384 122.736 15.4384C122.183 15.4384 121.69 15.5774 121.256 15.8553C120.822 16.13 120.478 16.5359 120.225 17.073C119.976 17.6069 119.851 18.2642 119.851 19.0448C119.851 19.8254 119.976 20.4842 120.225 21.0212C120.478 21.5552 120.822 21.9611 121.256 22.239C121.69 22.5137 122.183 22.6511 122.736 22.6511C123.285 22.6511 123.777 22.5137 124.211 22.239C124.648 21.9611 124.992 21.5552 125.242 21.0212C125.494 20.4842 125.621 19.8254 125.621 19.0448Z"
        fill="#0047AB"
      />
      <path
        d="M111.651 23.8409V14.2489H113.098V22.5951H117.445V23.8409H111.651Z"
        fill="#0047AB"
      />
      <path
        d="M103.215 23.8409V14.2489H106.634C107.38 14.2489 107.998 14.3848 108.488 14.6564C108.979 14.9281 109.345 15.2996 109.589 15.7711C109.833 16.2395 109.954 16.7671 109.954 17.3542C109.954 17.9443 109.831 18.4751 109.584 18.9466C109.341 19.4149 108.972 19.7865 108.479 20.0613C107.989 20.3329 107.372 20.4687 106.629 20.4687H104.278V19.2416H106.498C106.969 19.2416 107.352 19.1605 107.645 18.9981C107.939 18.8326 108.154 18.6078 108.292 18.3237C108.429 18.0395 108.498 17.7163 108.498 17.3542C108.498 16.992 108.429 16.6703 108.292 16.3893C108.154 16.1083 107.937 15.8882 107.641 15.7289C107.347 15.5697 106.96 15.4901 106.479 15.4901H104.662V23.8409H103.215Z"
        fill="#0047AB"
      />
      <path d="M101.107 14.2489V23.8409H99.6599V14.2489H101.107Z" fill="#0047AB" />
      <path
        d="M93.2463 23.8409H90.1411V14.2489H93.3447C94.2845 14.2489 95.0916 14.441 95.7661 14.825C96.4405 15.2059 96.9573 15.7539 97.3163 16.469C97.6785 17.1809 97.8596 18.0348 97.8596 19.0309C97.8596 20.03 97.677 20.8887 97.3117 21.6068C96.9495 22.325 96.4249 22.8777 95.738 23.2648C95.051 23.6489 94.2205 23.8409 93.2463 23.8409ZM91.5883 22.5763H93.1667C93.8973 22.5763 94.5046 22.439 94.9886 22.1642C95.4726 21.8863 95.8348 21.4851 96.0752 20.9605C96.3156 20.4328 96.4358 19.7896 96.4358 19.0309C96.4358 18.2784 96.3156 17.6398 96.0752 17.1153C95.8379 16.5907 95.4835 16.1926 95.012 15.921C94.5405 15.6493 93.9551 15.5135 93.2557 15.5135H91.5883V22.5763Z"
        fill="#0047AB"
      />
      <path
        d="M81.079 15.4948V14.2489H88.5025V15.4948H85.5097V23.8409H84.0672V15.4948H81.079Z"
        fill="#0047AB"
      />
      <path
        d="M73.0496 23.8409V14.2489H76.4687C77.2118 14.2489 77.8284 14.377 78.3187 14.633C78.812 14.889 79.1804 15.2434 79.424 15.6962C79.6675 16.1458 79.7893 16.6657 79.7893 17.2558C79.7893 17.8428 79.666 18.3596 79.4193 18.8061C79.1758 19.2494 78.8073 19.5945 78.314 19.8411C77.8238 20.0878 77.2071 20.2111 76.464 20.2111H73.8739V18.9653H76.3328C76.8012 18.9653 77.1821 18.8982 77.4756 18.7639C77.7722 18.6296 77.9893 18.4345 78.1266 18.1785C78.264 17.9224 78.3327 17.6149 78.3327 17.2558C78.3327 16.8936 78.2625 16.5798 78.1219 16.3144C77.9846 16.049 77.7676 15.846 77.4709 15.7055C77.1774 15.5619 76.7918 15.4901 76.3141 15.4901H74.4969V23.8409H73.0496ZM77.7847 19.5133L80.1546 23.8409H78.506L76.183 19.5133H77.7847Z"
        fill="#0047AB"
      />
      <path
        d="M71.2455 19.0448C71.2455 20.0689 71.0582 20.9494 70.6835 21.6863C70.3088 22.4201 69.7952 22.9852 69.1426 23.3818C68.4931 23.7752 67.7547 23.9719 66.9273 23.9719C66.0967 23.9719 65.3551 23.7752 64.7026 23.3818C64.0531 22.9852 63.541 22.4185 63.1664 21.6816C62.7917 20.9447 62.6043 20.0658 62.6043 19.0448C62.6043 18.0206 62.7917 17.1417 63.1664 16.4079C63.541 15.671 64.0531 15.1059 64.7026 14.7125C65.3551 14.3159 66.0967 14.1176 66.9273 14.1176C67.7547 14.1176 68.4931 14.3159 69.1426 14.7125C69.7952 15.1059 70.3088 15.671 70.6835 16.4079C71.0582 17.1417 71.2455 18.0206 71.2455 19.0448ZM69.8124 19.0448C69.8124 18.2642 69.6859 17.6069 69.433 17.073C69.1832 16.5359 68.8397 16.13 68.4026 15.8553C67.9686 15.5774 67.4768 15.4384 66.9273 15.4384C66.3746 15.4384 65.8813 15.5774 65.4473 15.8553C65.0133 16.13 64.6698 16.5359 64.4169 17.073C64.1671 17.6069 64.0422 18.2642 64.0422 19.0448C64.0422 19.8254 64.1671 20.4842 64.4169 21.0212C64.6698 21.5552 65.0133 21.9611 65.4473 22.239C65.8813 22.5137 66.3746 22.6511 66.9273 22.6511C67.4768 22.6511 67.9686 22.5137 68.4026 22.239C68.8397 21.9611 69.1832 21.5552 69.433 21.0212C69.6859 20.4842 69.8124 19.8254 69.8124 19.0448Z"
        fill="#0047AB"
      />
      <path
        d="M54.4768 23.8409V14.2489H57.8958C58.6421 14.2489 59.2603 14.3848 59.7505 14.6564C60.2407 14.9281 60.6076 15.2996 60.8512 15.7711C61.0947 16.2395 61.2165 16.7671 61.2165 17.3542C61.2165 17.9443 61.0931 18.4751 60.8465 18.9466C60.6029 19.4149 60.2345 19.7865 59.7411 20.0613C59.2509 20.3329 58.6343 20.4687 57.8911 20.4687H55.54V19.2416H57.76C58.2315 19.2416 58.614 19.1605 58.9075 18.9981C59.201 18.8326 59.4164 18.6078 59.5538 18.3237C59.6912 18.0395 59.7599 17.7163 59.7599 17.3542C59.7599 16.992 59.6912 16.6703 59.5538 16.3893C59.4164 16.1083 59.1994 15.8882 58.9028 15.7289C58.6093 15.5697 58.2221 15.4901 57.7413 15.4901H55.924V23.8409H54.4768Z"
        fill="#0047AB"
      />
      <path
        d="M51.2235 16.7686C51.1736 16.3252 50.9675 15.9817 50.6053 15.7382C50.2431 15.4915 49.7872 15.3682 49.2377 15.3682C48.8443 15.3682 48.5039 15.4306 48.2167 15.5555C47.9294 15.6773 47.7062 15.8459 47.5469 16.0613C47.3908 16.2737 47.3127 16.5156 47.3127 16.7873C47.3127 17.0152 47.3658 17.2119 47.472 17.3774C47.5813 17.5429 47.7233 17.6819 47.8982 17.7943C48.0762 17.9035 48.2666 17.9957 48.4696 18.0706C48.6725 18.1424 48.8677 18.2017 49.055 18.2486L49.9917 18.4921C50.2977 18.567 50.6115 18.6685 50.9331 18.7965C51.2547 18.9246 51.5529 19.0932 51.8277 19.3024C52.1025 19.5116 52.3242 19.7707 52.4928 20.0798C52.6645 20.389 52.7504 20.759 52.7504 21.1899C52.7504 21.7331 52.6099 22.2156 52.3288 22.6371C52.051 23.0586 51.6466 23.3911 51.1158 23.6347C50.5881 23.8782 49.9496 24 49.2002 24C48.4821 24 47.8607 23.886 47.3362 23.6581C46.8116 23.4302 46.401 23.107 46.1044 22.6886C45.8077 22.2671 45.6438 21.7675 45.6126 21.1899H47.0645C47.0926 21.5364 47.205 21.8253 47.4017 22.0563C47.6016 22.2842 47.856 22.4544 48.1651 22.5668C48.4774 22.6761 48.8193 22.7308 49.1909 22.7308C49.5999 22.7308 49.9636 22.6667 50.2821 22.5387C50.6037 22.4076 50.8566 22.2265 51.0409 21.9954C51.2251 21.7612 51.3172 21.488 51.3172 21.1758C51.3172 20.8917 51.236 20.659 51.0736 20.4779C50.9144 20.2969 50.6974 20.147 50.4226 20.0283C50.151 19.9097 49.8434 19.8051 49.5 19.7145L48.3665 19.4054C47.5984 19.1962 46.9896 18.8887 46.5399 18.4827C46.0934 18.0768 45.8702 17.5398 45.8702 16.8716C45.8702 16.3189 46.0201 15.8365 46.3198 15.4244C46.6196 15.0122 47.0255 14.6922 47.5375 14.4642C48.0496 14.2332 48.6273 14.1176 49.2705 14.1176C49.9199 14.1176 50.4929 14.2316 50.9893 14.4595C51.4889 14.6875 51.8823 15.0013 52.1696 15.4009C52.4569 15.7975 52.6067 16.2534 52.6192 16.7686H51.2235Z"
        fill="#0047AB"
      />
      <path
        d="M37.4883 23.8409V14.2489H40.9073C41.6504 14.2489 42.2671 14.377 42.7573 14.633C43.2506 14.889 43.6191 15.2434 43.8626 15.6962C44.1062 16.1458 44.228 16.6657 44.228 17.2558C44.228 17.8428 44.1046 18.3596 43.858 18.8061C43.6144 19.2494 43.246 19.5945 42.7526 19.8411C42.2624 20.0878 41.6457 20.2111 40.9026 20.2111H38.3126V18.9653H40.7715C41.2398 18.9653 41.6208 18.8982 41.9143 18.7639C42.2109 18.6296 42.4279 18.4345 42.5653 18.1785C42.7027 17.9224 42.7714 17.6149 42.7714 17.2558C42.7714 16.8936 42.7011 16.5798 42.5606 16.3144C42.4232 16.049 42.2062 15.846 41.9096 15.7055C41.6161 15.5619 41.2305 15.4901 40.7527 15.4901H38.9355V23.8409H37.4883ZM42.2234 19.5133L44.5933 23.8409H42.9447L40.6216 19.5133H42.2234Z"
        fill="#0047AB"
      />
      <path
        d="M29.5425 23.8409V14.2489H35.5562V15.4948H30.9897V18.4173H35.2424V19.6585H30.9897V22.5951H35.6124V23.8409H29.5425Z"
        fill="#0047AB"
      />
      <path
        d="M20.4789 15.4948V14.2489H27.9023V15.4948H24.9095V23.8409H23.467V15.4948H20.4789Z"
        fill="#0047AB"
      />
      <path
        d="M13.6608 23.8409H12.1245L15.5763 14.2489H17.2484L20.7002 23.8409H19.164L16.4522 15.9912H16.3772L13.6608 23.8409ZM13.9184 20.0847H18.9017V21.3024H13.9184V20.0847Z"
        fill="#0047AB"
      />
      <path
        d="M2.66027 23.8409L0 14.2489H1.52216L3.39091 21.6771H3.4799L5.42359 14.2489H6.9317L8.87538 21.6818H8.96437L10.8284 14.2489H12.3553L9.69033 23.8409H8.23373L6.21511 16.6563H6.14017L4.12155 23.8409H2.66027Z"
        fill="#0047AB"
      />
    </svg>