<?xml version="1.0" encoding="utf-8"?>
<!-- Generator: Adobe Illustrator 28.2.0, SVG Export Plug-In . SVG Version: 6.00 Build 0)  -->
<svg version="1.1" id="NWD_logo" xmlns="http://www.w3.org/2000/svg" xmlns:xlink="http://www.w3.org/1999/xlink" x="0px" y="0px"
	 viewBox="0 0 1220 1220" style="enable-background:new 0 0 1220 1220;" xml:space="preserve">
<style type="text/css">
	.st0{fill:#FFFFFF;}
	.st1{fill:#0047AB;}
	.st2{fill:#007FFF;}
	.st3{fill:#FF8000;}
</style>
<circle id="cikel" class="st0" cx="610" cy="610" r="610"/>
<g id="ring">
	<g id="watersport">
		<polygon class="st1" points="192.7,895.1 145.3,909.7 145,909.2 179.9,873.6 173.9,863.7 126.2,877.5 125.8,877 161.1,842.2 
			154.5,831.3 107.8,880.7 113.8,890.8 160,878.5 160.3,878.9 127.6,913.7 133.6,923.8 199.2,906 		"/>
		<path class="st1" d="M217,926.4l-65.1,24l8.1,9.7l15.9-6.1l15.7,19l-9,14.5l8.1,9.7l35.7-59.5L217,926.4z M196.8,964.4l-11.6-14
			l25.9-10l0.3,0.4L196.8,964.4z"/>
		<polygon class="st1" points="275.5,1001.8 282.3,994.6 244.4,958.6 237.6,965.9 252.3,979.8 214.1,1020.1 222.6,1028.2 
			260.8,987.9 		"/>
		<polygon class="st1" points="299.1,1020 323.8,1038.2 329.7,1030.2 295.4,1005 256.7,1057.8 291.2,1083.1 297.1,1075.1 
			272.1,1056.8 282.7,1042.4 305.7,1059.2 311.5,1051.2 288.6,1034.4 		"/>
		<path class="st1" d="M367,1052.2l-21.5-11.9l-31.7,57.3l10.4,5.7l11.6-21l10.6,5.8l-0.4,27.2l11.6,6.4l0.2-29.5
			c0.5,0.1,0.9,0.1,1.4,0.1c3.8,0.2,7.3-0.6,10.3-2.4c3-1.8,5.6-4.6,7.6-8.3c2-3.7,3-7.3,3-10.9c0-3.6-1.1-7-3.2-10.2
			C374.6,1057.5,371.4,1054.7,367,1052.2z M366.4,1075.9c-1.1,2-2.5,3.5-4,4.5c-1.6,0.9-3.4,1.3-5.4,1.1s-4.3-1-6.9-2.4l-9.6-5.3
			l10.5-19l9.5,5.3c2.6,1.4,4.5,3,5.7,4.6c1.2,1.7,1.8,3.4,1.8,5.3C368.1,1071.9,367.6,1073.8,366.4,1075.9z"/>
		<path class="st1" d="M435.6,1085.3c-2.7-2.8-6.2-5-10.5-6.7c-4.3-1.7-8.4-2.4-12.3-2.3c-4,0.2-7.4,1.2-10.5,3.1
			c-3,1.9-5.2,4.7-6.6,8.3c-1.7,4.4-1.6,8.4,0.2,12.2c1.9,3.8,5.1,7.3,9.6,10.6l6.2,4.5c2,1.4,3.6,2.8,5,4.1
			c1.4,1.3,2.3,2.7,2.8,4.1c0.5,1.4,0.4,2.9-0.2,4.5c-0.7,1.7-1.8,3-3.4,3.9c-1.5,0.9-3.4,1.3-5.5,1.3c-2.1,0-4.3-0.5-6.7-1.4
			c-2.3-0.9-4.2-2.1-5.8-3.5c-1.6-1.4-2.7-3.1-3.3-4.9c-0.6-1.9-0.6-3.9,0.1-6.1l-10.9-4.3c-1.4,4.1-1.7,8-0.9,11.5
			c0.8,3.6,2.7,6.8,5.6,9.6c2.9,2.8,6.7,5.2,11.5,7.1c4.9,1.9,9.3,2.8,13.4,2.6c4-0.2,7.5-1.2,10.4-3.2c2.9-2,5-4.8,6.4-8.3
			c1-2.6,1.5-5.1,1.2-7.5s-0.9-4.6-2-6.6c-1.1-2.1-2.6-4-4.4-5.7c-1.8-1.8-3.7-3.4-5.8-4.8l-5.1-3.7c-1.1-0.8-2.2-1.6-3.3-2.6
			c-1.1-0.9-2-1.9-2.7-2.9c-0.8-1-1.2-2.1-1.5-3.3c-0.2-1.2-0.1-2.4,0.4-3.6c0.6-1.5,1.6-2.7,2.9-3.5c1.3-0.8,3-1.3,4.9-1.3
			c1.9,0,4,0.4,6.3,1.3c3.3,1.3,5.6,3.1,7.1,5.3c1.5,2.3,1.8,4.7,1.1,7.4l10.6,4.2c1.3-3.5,1.5-6.9,0.7-10.2
			C440,1091.1,438.3,1088,435.6,1085.3z"/>
		<path class="st1" d="M499.4,1105.3c-2.9-2.7-6.7-4.6-11.6-5.8l-23.8-6l-16,63.5l11.5,2.9l5.4-21.4l12.1,3.1
			c4.9,1.2,9.2,1.4,13,0.4c3.8-1,7-2.8,9.5-5.5c2.5-2.7,4.3-6.1,5.3-10.2c1-4,1.1-7.8,0.2-11.4
			C504.1,1111.1,502.2,1107.9,499.4,1105.3z M493.1,1123.2c-0.6,2.3-1.5,4.1-2.8,5.6c-1.3,1.5-3,2.5-5.1,3.1
			c-2.1,0.5-4.5,0.4-7.4-0.3l-10.6-2.7l5.8-23l10.5,2.7c2.9,0.7,5.1,1.8,6.7,3.2c1.6,1.4,2.6,3.1,3,5
			C493.7,1118.8,493.7,1120.9,493.1,1123.2z"/>
		<path class="st1" d="M569.7,1116.2c-4.2-3.1-9.2-5-14.9-5.7c-5.7-0.6-10.9,0.1-15.7,2.3c-4.8,2.1-8.8,5.6-11.9,10.3
			s-5.1,10.5-5.9,17.6c-0.8,7-0.1,13.1,1.9,18.4c2.1,5.3,5.2,9.5,9.4,12.7c4.2,3.2,9.2,5.1,14.9,5.7c5.7,0.6,10.9-0.1,15.7-2.3
			c4.8-2.1,8.8-5.6,11.9-10.3c3.2-4.7,5.1-10.5,5.9-17.6c0.8-7,0.1-13.2-1.9-18.4C577,1123.6,573.9,1119.4,569.7,1116.2z
			 M569.2,1146c-0.5,4.9-1.8,9-3.7,12.2c-1.9,3.2-4.3,5.6-7.2,7c-2.9,1.4-6.1,2-9.7,1.6c-3.5-0.4-6.6-1.6-9.1-3.7
			c-2.5-2-4.4-4.9-5.5-8.4c-1.2-3.6-1.5-7.8-0.9-12.8c0.5-4.9,1.8-9,3.7-12.2c1.9-3.2,4.3-5.6,7.2-7c2.9-1.4,6.1-2,9.7-1.6
			c3.5,0.4,6.6,1.6,9.1,3.7c2.5,2,4.4,4.9,5.5,8.4C569.4,1136.8,569.7,1141,569.2,1146z"/>
		<path class="st1" d="M640.5,1152.9c3.4-1.8,5.9-4.2,7.6-7.3c1.7-3.1,2.5-6.8,2.4-11c-0.1-4.2-1.1-7.8-3-10.9
			c-1.8-3.1-4.5-5.5-8-7.1c-3.5-1.6-7.7-2.4-12.7-2.3l-24.5,0.7l1.9,65.4l11.9-0.3l-0.7-24l12.1-0.3l13.5,23.6l13.2-0.4l-14.9-25.5
			C639.6,1153.3,640.1,1153.1,640.5,1152.9z M614.4,1124.6l10.9-0.3c3-0.1,5.4,0.3,7.3,1.1c1.9,0.8,3.3,2,4.3,3.7
			c1,1.6,1.5,3.6,1.5,5.9c0.1,2.3-0.3,4.3-1.2,5.9c-0.9,1.6-2.2,2.9-4.1,3.7c-1.9,0.9-4.2,1.4-7.2,1.4l-10.9,0.3L614.4,1124.6z"/>
		<polygon class="st1" points="716,1104.1 664.4,1112.3 666,1122.2 686,1118.9 694.8,1173.8 706.4,1171.9 697.6,1117.1 
			717.6,1113.9 		"/>
		<path class="st1" d="M784.4,1100.2c-3.8-3.9-8.4-6.5-13.6-7.6c-5.2-1.1-11-0.7-17.2,1.2l-21.6,6.6l19.1,62.6l21.2-6.5
			c6.4-1.9,11.4-4.9,15.2-8.8c3.8-3.9,6.1-8.5,7.1-14s0.5-11.4-1.5-17.9C791.2,1109.3,788.3,1104.1,784.4,1100.2z M783.4,1131.9
			c-0.5,3.6-2,6.7-4.4,9.2c-2.4,2.5-5.8,4.4-10.2,5.7l-9.3,2.8l-13.1-43l9.7-3c4.2-1.3,8-1.6,11.4-0.9c3.3,0.7,6.2,2.4,8.7,5.1
			c2.4,2.7,4.4,6.5,5.8,11.3C783.4,1124,783.8,1128.2,783.4,1131.9z"/>
		
			<rect x="812.9" y="1072.3" transform="matrix(0.921 -0.3896 0.3896 0.921 -365.7809 406.2601)" class="st1" width="11.9" height="65.5"/>
		<path class="st1" d="M874.7,1052.3c-3.1-2-6.6-3.1-10.5-3.1c-3.9,0-8.1,1.2-12.5,3.6l-21.6,11.7l31.2,57.6l10.4-5.6l-10.5-19.4
			l11-6c4.4-2.4,7.7-5.2,9.9-8.5c2.1-3.3,3.2-6.8,3.2-10.5c0-3.7-1-7.4-3-11.1C880.4,1057.2,877.8,1054.4,874.7,1052.3z
			 M871.8,1078.4c-1.2,1.8-3,3.4-5.6,4.8l-9.6,5.2l-11.3-20.8l9.6-5.2c2.6-1.4,5-2.1,7.1-2.2c2.1,0,4,0.5,5.7,1.6
			c1.6,1.1,3,2.7,4.1,4.7c1.1,2,1.7,4.1,1.7,6.1C873.5,1074.7,873,1076.6,871.8,1078.4z"/>
		<polygon class="st1" points="928.1,1070.9 896,1025.6 886.3,1032.5 924.2,1085.9 957.4,1062.3 951.6,1054.2 		"/>
		<path class="st1" d="M996.2,984.7c-4.8-5.2-9.8-8.7-15.2-10.7c-5.3-1.9-10.6-2.3-15.7-1.2c-5.1,1.1-9.8,3.6-14,7.5
			c-4.2,3.9-7.1,8.3-8.6,13.4c-1.5,5-1.6,10.3-0.1,15.8c1.5,5.5,4.6,10.8,9.4,16c4.8,5.2,9.8,8.7,15.1,10.6
			c5.3,1.9,10.6,2.3,15.7,1.2c5.1-1.1,9.8-3.6,14-7.5c4.2-3.9,7.1-8.3,8.6-13.4c1.5-5,1.6-10.3,0.1-15.8
			C1004.1,995.2,1000.9,989.9,996.2,984.7z M994.7,1013.7c-0.8,3.1-2.5,5.9-5.2,8.3c-2.6,2.4-5.5,3.9-8.7,4.4
			c-3.2,0.6-6.5,0.1-10-1.4c-3.5-1.5-6.9-4-10.2-7.7c-3.4-3.7-5.6-7.3-6.8-10.8c-1.2-3.6-1.4-6.9-0.5-10.1c0.8-3.1,2.5-5.9,5.2-8.3
			c2.6-2.4,5.5-3.9,8.7-4.4c3.2-0.6,6.5-0.1,10,1.4c3.5,1.5,6.9,4,10.2,7.7c3.4,3.7,5.6,7.3,6.8,10.8S995.6,1010.5,994.7,1013.7z"/>
		<polygon class="st1" points="1019.3,905.7 1044.6,950.3 1044.1,950.9 994.8,936.9 985.9,948.3 1037.3,988.8 1044.4,979.8 
			1008.9,952 1009.3,951.5 1055.8,965 1061,958.3 1037,916.4 1037.4,915.9 1072.7,943.7 1079.7,934.8 1028.3,894.3 		"/>
		<path class="st1" d="M1116.7,871.8l6.2-11.1l-68.4-11.7l-7.1,12.8l46,52l6.2-11.1l-11.5-12.6l12-21.5L1116.7,871.8z M1081.2,882.8
			l-18.7-20.6l0.2-0.4l27.3,5.1L1081.2,882.8z"/>
	</g>
	<g id="lijnen">
		<path class="st1" d="M127.2,801.8c-2,0-3.9-1.2-4.7-3.2c-23-59.8-34.7-123-34.7-187.7c0-42.8,5.2-85.4,15.4-126.5
			c9.9-40,24.7-78.8,43.8-115.3c37.5-71.7,92.1-134.7,157.8-182.1c2.2-1.6,5.4-1.1,7,1.1c1.6,2.2,1.1,5.4-1.1,7
			C177.4,291.3,97.8,446.7,97.8,610.9c0,63.5,11.5,125.4,34.1,184.1c1,2.6-0.3,5.5-2.9,6.5C128.4,801.7,127.8,801.8,127.2,801.8z"/>
		<path class="st1" d="M1093.4,801.6c-0.6,0-1.2-0.1-1.8-0.3c-2.6-1-3.9-3.9-2.9-6.5c22.6-58.6,34-120.5,34-183.9
			c0-164.5-79.9-320.2-213.6-416.4c-2.2-1.6-2.8-4.7-1.1-7c1.6-2.2,4.7-2.8,7-1.1c66,47.4,120.7,110.4,158.4,182.2
			c19.2,36.6,34,75.5,44,115.5c10.3,41.2,15.5,83.9,15.5,126.8c0,64.6-11.7,127.7-34.7,187.5
			C1097.4,800.4,1095.5,801.6,1093.4,801.6z"/>
		<path class="st1" d="M92.2,815.3c-2,0-3.9-1.2-4.7-3.2C62.6,747.7,50,679.7,50,610c0-45.9,5.6-91.5,16.5-135.6
			C77.2,431.6,93,390,113.5,350.8c40.2-76.8,98.7-144.3,169.1-195.2c2.2-1.6,5.4-1.1,7,1.1c1.6,2.2,1.1,5.4-1.1,7
			C145.4,267,60,433.8,60,610c0,68.4,12.4,135.2,36.9,198.5c1,2.6-0.3,5.5-2.9,6.5C93.4,815.2,92.8,815.3,92.2,815.3z"/>
		<path class="st1" d="M1127.8,815.2c-0.6,0-1.2-0.1-1.8-0.3c-2.6-1-3.9-3.9-2.9-6.5c24.5-63.2,36.9-130,36.9-198.4
			c0-176.3-85.5-343.1-228.6-446.4c-2.2-1.6-2.7-4.7-1.1-7c1.6-2.2,4.7-2.7,7-1.1c70.5,50.9,129,118.4,169.2,195.2
			c20.5,39.2,36.3,80.8,47,123.6c11,44.1,16.5,89.8,16.5,135.6c0,69.7-12.6,137.6-37.6,202C1131.7,814,1129.8,815.2,1127.8,815.2z"
			/>
	</g>
	<g id="nationaal">
		<polygon class="st1" points="351.1,104.1 372.5,143.2 372,143.5 323.6,119.1 314.3,124.2 345.7,181.7 356.1,176 334.7,136.9 
			335.2,136.6 383.6,160.9 392.9,155.9 361.5,98.4 		"/>
		<path class="st1" d="M403.8,80.6l1.4,69.4l11.9-4.4l-0.6-17l23-8.6l10.7,13.2l11.9-4.4l-44.6-53.2L403.8,80.6z M416.1,118.5
			l-1-27.8l0.5-0.2l17.5,21.6L416.1,118.5z"/>
		<polygon class="st1" points="500.5,52 449.8,64.3 452.1,74 471.8,69.2 484.9,123.2 496.4,120.4 483.2,66.4 502.9,61.7 		"/>
		
			<rect x="526.9" y="47.6" transform="matrix(0.9897 -0.1429 0.1429 0.9897 -6.0077 76.9877)" class="st1" width="11.9" height="65.5"/>
		<path class="st1" d="M613.4,55.8c-2.9-4.9-6.7-8.5-11.3-10.9c-4.7-2.4-9.9-3.5-15.6-3.2c-5.7,0.3-10.8,1.9-15.2,4.8
			c-4.4,2.9-7.8,6.9-10.1,12.1c-2.4,5.1-3.4,11.2-3,18.3c0.4,7,2,13,4.9,17.8c2.9,4.9,6.7,8.5,11.3,11c4.7,2.4,9.9,3.5,15.6,3.2
			c5.7-0.3,10.8-1.9,15.2-4.8c4.4-2.9,7.8-6.9,10.1-12.1c2.4-5.1,3.4-11.2,3-18.3S616.3,60.7,613.4,55.8z M604.7,87
			c-1.4,3.5-3.4,6.2-6,8.1c-2.6,1.9-5.7,2.9-9.3,3.1c-3.6,0.2-6.7-0.5-9.6-2.1c-2.8-1.6-5.1-4.1-6.8-7.4c-1.7-3.3-2.7-7.5-3-12.4
			c-0.3-5,0.3-9.2,1.7-12.7c1.4-3.5,3.4-6.2,6-8.1c2.6-1.9,5.7-2.9,9.3-3.1s6.7,0.5,9.6,2.1c2.8,1.6,5.1,4.1,6.8,7.4
			c1.7,3.3,2.7,7.5,3,12.4S606.1,83.5,604.7,87z"/>
		<polygon class="st1" points="680.4,91.1 679.8,91.1 653.8,43.5 643.3,42.4 636.4,107.4 648.2,108.7 652.9,64.3 653.4,64.4 
			679.4,112 689.9,113.1 696.8,48 685,46.7 		"/>
		<path class="st1" d="M741.8,57.4l-38.3,57.8l12.3,3.1l9.2-14.3l23.9,6l1.3,17l12.3,3.1L756,60.9L741.8,57.4z M730.3,95.5l15-23.4
			l0.5,0.1L748,100L730.3,95.5z"/>
		<path class="st1" d="M771.4,133l11.7,4.8l11.1-12.9l22.8,9.3l-1.1,17l11.7,4.8l3.3-69.3l-13.6-5.5L771.4,133z M819.4,96.4
			l-1.8,27.8l-16.9-6.9l18.1-21.1L819.4,96.4z"/>
		<polygon class="st1" points="882.3,111.5 872,105.6 839.8,162.7 875.3,182.6 880.2,174 855,159.8 		"/>
	</g>
</g>
<g id="NWD">
	<g id="onderlaag">
		<path class="st1" d="M432.9,772c-1.4,0-2.9-0.1-4.4-0.3c-35-5.3-57.5-18.8-73.9-28.6c-16.1-9.7-23.5-14.1-44.6-14.1
			s-28.5,4.4-44.6,14.1c-16.4,9.9-39,23.4-74.1,28.7c-0.9,0.1-1.9,0.2-2.8,0.2c-8.2,0-15.4-5.2-18-12.9c-9-26.5-15.6-54-19.6-81.7
			c-0.8-5.2,0.7-10.5,4-14.6c3.3-4.1,8.2-6.7,13.5-7.1c15.2-1.1,22.3-5.4,36.4-13.8C225.2,629.6,256.2,611,310,611
			s84.8,18.6,105.4,30.9l5,3c13.5,8.1,23.1,21,26.9,36.3l13.7,54.8c2.2,8.7,0.3,17.8-5.3,24.9C450.1,768,441.8,772,432.9,772
			C432.9,772,432.9,772,432.9,772z"/>
		<path class="st1" d="M787.1,772c-8.9,0-17.2-4.1-22.7-11.1c-5.5-7.1-7.5-16.2-5.3-24.9l13.7-54.8c3.8-15.3,13.4-28.2,26.9-36.3
			l5-3C825.2,629.6,856.2,611,910,611s84.8,18.6,105.4,30.9c14.1,8.4,21.1,12.7,36.4,13.8c5.3,0.4,10.2,3,13.5,7.1
			c3.3,4.1,4.7,9.4,4,14.6c-4,27.7-10.6,55.2-19.6,81.7c-2.6,7.7-9.8,12.9-18,12.9c0,0,0,0,0,0c-0.9,0-1.9-0.1-2.8-0.2
			c-35.1-5.3-57.6-18.8-74-28.7c-16.1-9.7-23.5-14.1-44.6-14.1s-28.5,4.4-44.6,14.1c-16.4,9.8-38.9,23.3-73.9,28.6
			C790,771.9,788.5,772,787.1,772z"/>
		<path class="st1" d="M490.3,1056c-6,0-11.9-0.9-17.7-2.7C397,1029.9,328.1,987,273.4,929.4c-5-5.2-6.5-12.7-4.1-19.5
			c2.5-6.8,8.5-11.6,15.6-12.4c8-0.9,16.5-1.4,25.1-1.4c53.8,0,84.8,18.6,105.4,30.9c16.1,9.7,23.5,14.1,44.6,14.1
			s28.5-4.4,44.6-14.1C525.2,914.6,556.2,896,610,896c53.8,0,84.8,18.6,105.4,30.9c16.1,9.7,23.5,14.1,44.6,14.1s28.5-4.4,44.6-14.1
			C825.2,914.6,856.2,896,910,896c8.6,0,17,0.5,25.1,1.4c7.2,0.8,13.2,5.6,15.6,12.4c2.5,6.8,0.9,14.3-4.1,19.5
			C891.9,987,823,1029.9,747.4,1053.3c-5.8,1.8-11.7,2.7-17.7,2.7c0,0,0,0,0,0c-4.1,0-8.3-0.4-12.3-1.3c-28.8-6.2-48.4-18-62.8-26.6
			c-16.1-9.7-23.5-14.1-44.6-14.1c-21.2,0-28.5,4.4-44.6,14.1c-14.4,8.6-34,20.4-62.8,26.6C498.5,1055.6,494.4,1056,490.3,1056z"/>
		<path class="st2" d="M760,916.5c-53.8,0-84.8-18.6-105.4-30.9c-16.1-9.7-23.5-14.1-44.6-14.1c-21.2,0-28.5,4.4-44.6,14.1
			c-20.5,12.3-51.5,30.9-105.4,30.9s-84.8-18.6-105.4-30.9c-16.1-9.7-23.5-14.1-44.6-14.1s-28.5,4.4-44.6,14.1c-1.7,1-3.4,2-5.2,3.1
			c-2.9,1.7-6.3,2.6-9.7,2.6c-6,0-11.8-2.9-15.3-7.8c-16.4-22.5-30.9-46.5-43-71.5c-4.3-8.8-1-19.6,7.5-24.6c1.6-0.9,3.3-1.9,5-3
			c20.5-12.3,51.5-30.9,105.4-30.9s84.8,18.6,105.4,30.9c16.1,9.7,23.5,14.1,44.6,14.1s28.5-4.4,44.6-14.1
			c20.5-12.3,51.5-30.9,105.4-30.9c53.8,0,84.8,18.6,105.4,30.9c16.1,9.7,23.5,14.1,44.6,14.1s28.5-4.4,44.6-14.1
			c20.5-12.3,51.5-30.9,105.4-30.9s84.8,18.6,105.4,30.9c1.7,1,3.4,2,5,3c8.5,5,11.7,15.8,7.5,24.6c-12.1,25-26.6,49.1-43,71.5
			c-3.6,4.9-9.3,7.8-15.3,7.8c0,0,0,0,0,0c-3.4,0-6.7-0.9-9.7-2.6c-1.8-1.1-3.5-2.1-5.2-3.1c-16.1-9.7-23.5-14.1-44.6-14.1
			s-28.5,4.4-44.6,14.1C844.8,897.9,813.8,916.5,760,916.5z"/>
		<path class="st3" d="M164.8,628.8c-10.4,0-18.8-8.4-18.8-18.8c0-75,18.3-149.6,53-215.5c3.3-6.3,9.8-10.2,16.8-10.2
			c4.6,0,9.1,1.7,12.6,4.8l70.9,62.7l-35.1-138.5c-1.6-6.3,0.1-12.8,4.4-17.5c13.6-14.7,28.3-28.7,43.6-41.6
			c3.4-2.9,7.7-4.4,12.2-4.4c8.7,0,16.3,5.9,18.5,14.4c2.7,10.8,67.5,265.5,72.2,288.8c2.8,13.8-0.5,27.6-9,38
			c-8.4,10.2-20.9,16.1-34.3,16.1c-3.8,0-7.7-0.5-11.5-1.4c-0.4-0.1-0.7-0.2-1.1-0.3c-17.3-5-30-12.9-47.5-25.6l-0.2-0.2l-68.1-54.1
			c-0.4,1.9-0.9,3.9-1.3,6.1l-0.1,0.3c-0.8,3.7-2.1,11-3.6,19.8c0,0.1,0,0.1,0,0.2c-2.9,19.7-4,37.7-4.6,51.1
			c-0.4,7.8-5.6,14.7-13.1,17.1c-17.3,5.6-34.4,8.3-55.6,8.7L164.8,628.8z"/>
		<path class="st3" d="M702.6,759.8c-7.5,0-15-2-21.6-5.7c-13.4-7.5-24.2-16.2-32.8-23.1c-16-12.8-21.3-17.1-38.1-17.1
			s-22.2,4.3-38.1,17.1c-8.7,6.9-19.4,15.5-32.8,23.1c-6.6,3.7-14.1,5.7-21.6,5.7c-20.3,0-37.8-13.7-42.7-33.3l-121-484
			c-2.5-10.1,1.7-20.7,10.6-26.2c21.4-13.4,44.1-25.1,67.4-34.8c2.9-1.2,6-1.8,9.2-1.8c11,0,20.6,7.5,23.3,18.2l98.3,393.1
			c15.1-6.6,31-9.9,47.6-9.9c16.5,0,32.5,3.3,47.6,9.9l98.3-393.1c2.7-10.7,12.3-18.2,23.3-18.2c3.2,0,6.2,0.6,9.2,1.8
			c23.3,9.7,46,21.4,67.4,34.8c8.9,5.5,13.1,16.1,10.6,26.2l-121,484C740.4,746.1,722.8,759.8,702.6,759.8
			C702.6,759.8,702.6,759.8,702.6,759.8z"/>
		<path class="st3" d="M989.2,610.5c-9.2,0-18.4-1.5-27.4-4.4c-10.5-3.4-25.8-7.3-51.8-7.3c-0.4,0-0.9,0-1.6,0c-0.9,0-2.1,0-3.5,0
			c-6.9,0-14.1,0.6-21.5,1.7l-0.2,0c-4.4,0.6-8.5,1.3-12.6,2.3l-0.3,0.1c-3.8,0.8-7.8,1.7-11.6,2.7c-3.6,0.9-7.3,1.4-11,1.4
			c-13.6,0-26.2-6.2-34.6-17c-8.4-10.7-11.3-24.4-8-37.7l72-288.1c2.1-8.5,9.7-14.4,18.5-14.4c4.4,0,8.8,1.6,12.2,4.4
			c2.1,1.7,4.2,3.5,6.2,5.3l0.1,0c3.6,3.1,7.3,6.4,11,9.9c58.5,54.2,102.3,122.7,126.7,198.1c14.7,44.9,15.6,80.6,2.6,106
			c-8.3,16.2-21.9,27.4-40.4,33.3C1006,609.3,997.7,610.5,989.2,610.5z M906.2,510.5c5,0.1,10.1,0.3,15.2,0.5
			c6.1,0.2,12.5,0.5,18.2,0.5c11.7,0,19-2.5,21.7-7.5c2.7-5,7.6-25.6-31-89.6L906.2,510.5z"/>
	</g>
	<g id="tussen_wit">
		<path class="st0" d="M432.9,762c-1,0-1.9-0.1-2.9-0.2c-33.1-5-54.6-17.9-70.3-27.3c-16.7-10-25.9-15.5-49.8-15.5
			s-33.1,5.5-49.8,15.5c-15.7,9.4-37.3,22.4-70.4,27.3c-0.4,0.1-0.9,0.1-1.3,0.1c-3.9,0-7.3-2.5-8.5-6.1
			c-8.8-25.9-15.2-52.8-19.2-79.9c-0.4-2.4,0.3-5,1.9-6.9c1.6-2,3.9-3.2,6.4-3.4c17.6-1.3,26.3-6.5,40.8-15.2
			C230.5,638,258.9,621,310,621s79.5,17,100.2,29.5l5,3c11.2,6.7,19.2,17.4,22.3,30.1l13.7,54.8c1.4,5.7,0.2,11.7-3.5,16.3
			C444.1,759.4,438.7,762,432.9,762C432.9,762,432.9,762,432.9,762z"/>
		<path class="st0" d="M787.1,762c-5.8,0-11.2-2.7-14.8-7.3c-3.6-4.7-4.9-10.6-3.5-16.3l13.7-54.8c3.2-12.7,11.1-23.4,22.3-30.1l5-3
			C830.5,638,858.9,621,910,621s79.5,17,100.2,29.5c14.4,8.7,23.2,13.9,40.8,15.2c2.5,0.2,4.8,1.4,6.4,3.4c1.5,1.9,2.2,4.4,1.9,6.9
			c-3.9,27.1-10.4,54-19.2,79.9c-1.2,3.6-4.7,6.1-8.5,6.1l0,0c-0.4,0-0.9,0-1.3-0.1c-33.1-5-54.7-17.9-70.4-27.3
			c-16.7-10-25.9-15.5-49.8-15.5s-33.1,5.5-49.8,15.5c-15.7,9.4-37.2,22.3-70.3,27.3C789,762,788,762,787.1,762z"/>
		<path class="st0" d="M490.3,1046c-5,0-10-0.8-14.8-2.2c-73.9-22.9-141.3-64.8-194.9-121.3c-2.4-2.5-3.1-6-1.9-9.2
			c1.2-3.2,4-5.5,7.4-5.9c7.6-0.9,15.7-1.4,23.9-1.4c51.1,0,79.5,17,100.2,29.5c16.7,10,25.9,15.5,49.8,15.5s33.1-5.5,49.8-15.5
			C530.5,923,558.9,906,610,906c51.1,0,79.5,17,100.2,29.5c16.7,10,25.9,15.5,49.8,15.5s33.1-5.5,49.8-15.5
			C830.5,923,858.9,906,910,906c8.2,0,16.3,0.5,23.9,1.4c3.4,0.4,6.2,2.6,7.4,5.9c1.2,3.2,0.4,6.8-1.9,9.2
			c-53.6,56.4-121,98.4-194.9,121.3c-4.8,1.5-9.8,2.2-14.8,2.2c0,0,0,0,0,0c-3.4,0-6.9-0.4-10.2-1.1c-27.2-5.8-45.2-16.7-59.7-25.4
			c-16.7-10-25.9-15.5-49.8-15.5s-33.1,5.5-49.8,15.5c-14.5,8.7-32.6,19.6-59.7,25.4C497.1,1045.6,493.7,1046,490.3,1046z"/>
		<path class="st0" d="M760,906.5c-51.1,0-79.5-17-100.2-29.5c-16.7-10-25.9-15.5-49.8-15.5s-33.1,5.5-49.8,15.5
			c-20.7,12.4-49.1,29.5-100.2,29.5s-79.5-17-100.2-29.5c-16.7-10-25.9-15.5-49.8-15.5s-33.1,5.5-49.8,15.5c-1.7,1-3.4,2-5.1,3.1
			c-1.4,0.8-3,1.3-4.6,1.3c-2.9,0-5.6-1.4-7.3-3.7c-16.1-22-30.2-45.5-42.1-70c-2-4.2-0.5-9.3,3.5-11.7c1.6-1,3.3-2,5.1-3
			c20.7-12.4,49.1-29.5,100.2-29.5s79.5,17,100.2,29.5c16.7,10,25.9,15.5,49.8,15.5s33.1-5.5,49.8-15.5
			c20.7-12.4,49.1-29.5,100.2-29.5c51.1,0,79.5,17,100.2,29.5c16.7,10,25.9,15.5,49.8,15.5s33.1-5.5,49.8-15.5
			c20.7-12.4,49.1-29.5,100.2-29.5s79.5,17,100.2,29.5c1.8,1.1,3.4,2.1,5.1,3c4,2.4,5.6,7.5,3.5,11.7c-11.8,24.5-26,48-42.1,70
			c-1.7,2.3-4.4,3.7-7.3,3.7l0,0c-1.6,0-3.2-0.4-4.6-1.3c-1.8-1-3.5-2.1-5.1-3.1c-16.7-10-25.9-15.5-49.8-15.5s-33.1,5.5-49.8,15.5
			C839.5,889.5,811.1,906.5,760,906.5z"/>
		<path class="st0" d="M164.8,618.8c-4.8,0-8.8-4-8.8-8.8c0-73.4,17.9-146.3,51.9-210.9c1.6-3,4.6-4.8,8-4.8c2.2,0,4.3,0.8,5.9,2.3
			l95.2,84.2l-43-169.9c-0.8-3,0-6.1,2.1-8.3c13.3-14.4,27.6-28.1,42.7-40.7c1.6-1.4,3.7-2.1,5.8-2.1c4.2,0,7.8,2.8,8.8,6.8
			c2.7,10.8,67.4,265.3,72.1,288.4c2.2,10.8-0.3,21.7-7,29.7c-6.5,7.9-16.2,12.5-26.6,12.5c-3,0-6.1-0.4-9.1-1.1
			c-0.2,0-0.4-0.1-0.5-0.2l-0.1,0c-15.9-4.6-27.9-12-44.4-24.1l-79.8-63.4l-0.1,0.4c-2.2,7.2-3.7,12.4-5.4,21
			c-0.8,4-2.2,11.2-3.7,20.3c0,0.1,0,0.2-0.1,0.3l0,0c-2.9,20.2-4.1,38.5-4.7,52.2c-0.2,3.7-2.7,7-6.2,8.1
			c-16.3,5.3-32.6,7.8-52.7,8.2L164.8,618.8z"/>
		<g>
			<path class="st0" d="M702.6,749.8c-5.8,0-11.6-1.5-16.7-4.4c-12.7-7.1-22.7-15.1-31.5-22.2C637.9,710,630.3,704,610,704
				s-27.9,6-44.4,19.3c-8.8,7-18.8,15-31.5,22.2c-5.1,2.9-10.9,4.4-16.7,4.4c-15.7,0-29.2-10.6-33-25.8l-121-484
				c-1.5-5.9,1-12.1,6.2-15.3c21-13.1,43.2-24.6,66-34.1c1.7-0.7,3.5-1.1,5.3-1.1c6.4,0,12,4.4,13.6,10.6L553.9,598
				c0.7,2.7,3.1,4.5,5.8,4.5c0.9,0,1.8-0.2,2.6-0.6c15.2-7.4,30.8-11,47.7-11c16.9,0,32.5,3.6,47.7,11c0.8,0.4,1.7,0.6,2.6,0.6
				c2.8,0,5.2-1.9,5.8-4.5l99.4-397.8c1.6-6.3,7.1-10.6,13.6-10.6c1.8,0,3.6,0.4,5.3,1.1c22.8,9.5,45,21,66,34.1
				c5.2,3.2,7.7,9.4,6.2,15.3l-121,484C731.8,739.2,718.2,749.8,702.6,749.8C702.6,749.8,702.6,749.8,702.6,749.8z"/>
		</g>
		<path class="st0" d="M989.2,600.5c-8.1,0-16.3-1.3-24.3-3.9c-11.2-3.6-27.5-7.8-54.9-7.8c-0.4,0-0.8,0-1.4,0c-0.9,0-2.2,0-3.8,0
			c-7.4,0-15.1,0.6-23,1.8c-4.8,0.6-9.2,1.4-13.6,2.4c-4.1,0.8-8.1,1.8-12.1,2.8c-2.8,0.7-5.7,1.1-8.5,1.1
			c-10.5,0-20.2-4.8-26.8-13.2c-6.5-8.3-8.7-18.9-6.1-29.1l72-288.1c1-4,4.6-6.8,8.8-6.8c2.1,0,4.1,0.7,5.8,2.1
			c2,1.7,4.1,3.5,6.2,5.2l0.1,0.1c3.5,3,7.1,6.2,10.7,9.6c57.3,53,100.2,120,124,193.9c13.7,41.8,14.8,75.8,3.3,98.4
			c-7,13.8-18.7,23.3-34.5,28.3C1004,599.4,996.7,600.5,989.2,600.5z M902.6,520.4c5.8,0,12.2,0.2,18.3,0.5
			c6.2,0.2,12.7,0.5,18.6,0.5c15.7,0,26-4.3,30.5-12.7c7.1-13.1,5.1-44.5-43.8-119.5l-32.9,131.5C896,520.5,899.1,520.4,902.6,520.4
			z"/>
	</g>
	<g id="bovenlaag">
		<path class="st1" d="M432.9,752c-0.5,0-0.9,0-1.4-0.1c-31.1-4.7-50.8-16.5-66.6-26c-17-10.2-28.2-16.9-54.9-16.9
			s-37.9,6.7-54.9,16.9c-15.7,9.4-35.2,21.1-65.9,25.9c-8.3-24.7-14.5-50.4-18.3-76.3c19.3-1.6,29.7-7.9,44.1-16.5
			c19.7-11.8,46.8-28.1,95.1-28.1s75.3,16.2,95.1,28.1l5,3c8.9,5.4,15.2,13.9,17.8,24l13.7,54.8c0.7,2.7,0.1,5.5-1.6,7.7
			C438.2,750.8,435.6,752,432.9,752L432.9,752z"/>
		<path class="st1" d="M787.1,752c-2.7,0-5.2-1.3-7-3.5c-1.7-2.2-2.3-5-1.6-7.7l13.7-54.8c2.5-10.1,8.8-18.6,17.8-24l5-3
			c19.7-11.8,46.8-28.1,95.1-28.1s75.3,16.2,95.1,28.1c14.4,8.6,24.8,14.9,44.1,16.5c-3.8,25.9-10,51.5-18.3,76.3
			c-30.7-4.8-50.2-16.5-65.9-25.9c-17-10.2-28.2-16.9-54.9-16.9s-37.9,6.7-54.9,16.9c-15.8,9.5-35.5,21.3-66.6,26
			C788,752,787.5,752,787.1,752z"/>
		<path class="st1" d="M490.3,1036c-4,0-8-0.6-11.8-1.8c-71.6-22.2-137-62.7-189.2-117.1c6.6-0.7,13.6-1.1,20.7-1.1
			c48.3,0,75.3,16.2,95.1,28.1c17,10.2,28.2,16.9,54.9,16.9s37.9-6.7,54.9-16.9c19.7-11.8,46.8-28.1,95.1-28.1
			c48.3,0,75.3,16.2,95.1,28.1c17,10.2,28.2,16.9,54.9,16.9s37.9-6.7,54.9-16.9c19.7-11.8,46.8-28.1,95.1-28.1
			c7.1,0,14.1,0.4,20.7,1.1c-52.2,54.5-117.5,94.9-189.2,117.1c-3.9,1.2-7.8,1.8-11.8,1.8c-2.7,0-5.5-0.3-8.1-0.9
			c-25.5-5.5-42.8-15.9-56.7-24.2c-17-10.2-28.2-16.9-54.9-16.9s-37.9,6.7-54.9,16.9c-13.9,8.3-31.2,18.7-56.7,24.2
			C495.7,1035.7,493,1036,490.3,1036z"/>
		<path class="st2" d="M760,896.5c-48.3,0-75.3-16.2-95.1-28.1c-17-10.2-28.2-16.9-54.9-16.9s-37.9,6.7-54.9,16.9
			c-19.7,11.8-46.8,28.1-95.1,28.1s-75.3-16.2-95.1-28.1c-17-10.2-28.2-16.9-54.9-16.9s-37.9,6.7-54.9,16.9
			c-1.4,0.8-2.8,1.7-4.3,2.6c-15.3-21-28.8-43.5-40.2-66.9c1.4-0.8,2.8-1.7,4.3-2.6c19.7-11.8,46.8-28.1,95.1-28.1
			s75.3,16.2,95.1,28.1c17,10.2,28.2,16.9,54.9,16.9s37.9-6.7,54.9-16.9c19.7-11.8,46.8-28.1,95.1-28.1c48.3,0,75.3,16.2,95.1,28.1
			c17,10.2,28.2,16.9,54.9,16.9s37.9-6.7,54.9-16.9c19.7-11.8,46.8-28.1,95.1-28.1s75.3,16.2,95.1,28.1c1.5,0.9,2.9,1.8,4.3,2.6
			C998,827.5,984.5,850,969.2,871c-1.5-0.9-2.9-1.7-4.3-2.6c-17-10.2-28.2-16.9-54.9-16.9s-37.9,6.7-54.9,16.9
			C835.3,880.3,808.3,896.5,760,896.5z"/>
		<path class="st3" d="M166,608.8c0.2-71,17.5-141.4,50.1-203.9l99.1,87.6c1.5,1.3,3.3,2,5.3,2c2.5,0,4.8-1.2,6.3-3.1
			c1.5-1.9,2-4.5,1.4-6.9l-44.5-175.7c12.5-13.6,26-26.5,40.1-38.4c5.5,21.8,67.2,264.4,71.6,286.4c1.6,8-0.1,15.6-4.9,21.4
			c-4.6,5.6-11.4,8.8-18.9,8.8c-2.2,0-4.4-0.3-6.7-0.8l-0.2-0.1c-14.6-4.2-25.3-10.9-41.2-22.5l-80.7-64.2c-1.6-1.3-3.6-2-5.6-2
			c-4,0-7.5,2.6-8.6,6.4l-0.6,1.8c-2.2,7.5-3.9,12.9-5.6,22c-0.9,4.1-2,10.7-3,15.9h-0.1l-0.7,5.1c-2.9,20.2-4.1,38.6-4.8,52.5
			C199.1,606,184.3,608.4,166,608.8z"/>
		<path class="st3" d="M702.6,739.8c-4.1,0-8.1-1-11.8-3.1c-12-6.7-21.6-14.5-30.1-21.3C643.3,701.6,633.8,694,610,694
			s-33.3,7.6-50.6,21.5c-8.5,6.8-18.1,14.5-30.1,21.3c-3.7,2.1-7.6,3.1-11.8,3.1c-11.1,0-20.7-7.5-23.3-18.2l-121-484
			c-0.4-1.7,0.3-3.5,1.8-4.4c20.5-12.8,42.2-24,64.5-33.3c0.5-0.2,1-0.3,1.5-0.3c1.8,0,3.4,1.3,3.9,3l99.4,397.8
			c1.8,7.1,8.2,12.1,15.5,12.1c2.4,0,4.8-0.5,7-1.6c13.8-6.7,28-10,43.3-10c15.3,0,29.5,3.3,43.3,10c2.2,1.1,4.6,1.6,7,1.6
			c7.4,0,13.7-5,15.5-12.1l99.4-397.8c0.4-1.8,2-3,3.9-3c0.5,0,1,0.1,1.5,0.3c22.3,9.3,44,20.5,64.5,33.3c1.5,0.9,2.2,2.7,1.8,4.4
			l-121,484C723.2,732.4,713.6,739.8,702.6,739.8C702.6,739.8,702.6,739.8,702.6,739.8z"/>
		<path class="st3" d="M989.2,590.5c-7.1,0-14.2-1.1-21.2-3.4c-17.6-5.7-35.5-8.3-58-8.3c-0.3,0-0.7,0-1.2,0c-1,0-2.3,0-4,0
			c-7.9,0-16.1,0.6-24.5,1.9c-4.9,0.7-9.6,1.5-14.2,2.5c-4.1,0.9-8.3,1.8-12.4,2.9c-2,0.5-4,0.8-6,0.8c-7.4,0-14.2-3.4-18.9-9.3
			c-4.5-5.8-6.1-13.3-4.3-20.5l71.7-286.6c1.6,1.4,3.3,2.8,4.9,4.2l0.1,0.1c3.3,2.8,6.8,5.9,10.2,9.2
			c56.1,51.9,98,117.5,121.3,189.7c12.9,39.2,14.2,70.6,3.9,90.7c-5.8,11.3-15.4,19.2-28.7,23.3
			C1001.9,589.6,995.6,590.5,989.2,590.5z M902.6,530.4c5.6,0,11.9,0.2,17.9,0.5c6.3,0.2,12.8,0.5,18.9,0.5c19.7,0,32.9-6.1,39.3-18
			c12.4-23.1-2.5-66.1-45.5-131.6c-1.7-2.5-4.5-4.1-7.5-4.1c-4.1,0-7.7,2.8-8.7,6.8l-33.8,135.1c-0.7,2.7-0.1,5.5,1.6,7.7
			c1.7,2.2,4.3,3.5,7.1,3.5c0.2,0,0.5,0,0.7,0C895.5,530.5,898.8,530.4,902.6,530.4z"/>
	</g>
</g>
</svg>
