<svg width="316" height="51" viewBox="0 0 316 51" fill="none" xmlns="http://www.w3.org/2000/svg">
<path d="M146.104 20.7205V0.279419H149.189V18.0655H158.451V20.7205H146.104Z" fill="#0047AB"/>
<path d="M128.153 20.7205H124.879L132.235 0.279419H135.798L143.154 20.7205H139.88L134.101 3.99235H133.942L128.153 20.7205ZM128.702 12.7157H139.321V15.3108H128.702V12.7157Z" fill="#0047AB"/>
<path d="M108.472 20.7205H105.198L112.554 0.279419H116.117L123.473 20.7205H120.2L114.421 3.99235H114.261L108.472 20.7205ZM109.021 12.7157H119.641V15.3108H109.021V12.7157Z" fill="#0047AB"/>
<path d="M102.245 0.279419V20.7205H99.4106L89.0204 5.72904H88.8307V20.7205H85.7466V0.279419H88.6012L99.0013 15.2908H99.191V0.279419H102.245Z" fill="#0047AB"/>
<path d="M81.9003 10.5C81.9003 12.6825 81.501 14.5589 80.7026 16.1293C79.9041 17.693 78.8095 18.8973 77.4188 19.7424C76.0348 20.5808 74.4611 21 72.6978 21C70.9278 21 69.3475 20.5808 67.9568 19.7424C66.5728 18.8973 65.4816 17.6896 64.6831 16.1193C63.8846 14.549 63.4854 12.6759 63.4854 10.5C63.4854 8.31749 63.8846 6.44439 64.6831 4.8807C65.4816 3.31036 66.5728 2.10599 67.9568 1.26759C69.3475 0.422529 70.9278 0 72.6978 0C74.4611 0 76.0348 0.422529 77.4188 1.26759C78.8095 2.10599 79.9041 3.31036 80.7026 4.8807C81.501 6.44439 81.9003 8.31749 81.9003 10.5ZM78.8461 10.5C78.8461 8.8365 78.5766 7.43584 78.0376 6.298C77.5053 5.15352 76.7734 4.2885 75.8418 3.70295C74.9169 3.11074 73.8689 2.81464 72.6978 2.81464C71.5201 2.81464 70.4687 3.11074 69.5438 3.70295C68.6189 4.2885 67.887 5.15352 67.348 6.298C66.8157 7.43584 66.5495 8.8365 66.5495 10.5C66.5495 12.1635 66.8157 13.5675 67.348 14.712C67.887 15.8498 68.6189 16.7148 69.5438 17.307C70.4687 17.8926 71.5201 18.1854 72.6978 18.1854C73.8689 18.1854 74.9169 17.8926 75.8418 17.307C76.7734 16.7148 77.5053 15.8498 78.0376 14.712C78.5766 13.5675 78.8461 12.1635 78.8461 10.5Z" fill="#0047AB"/>
<path d="M59.6549 0.279419V20.7205H56.5708V0.279419H59.6549Z" fill="#0047AB"/>
<path d="M37.2559 2.93436V0.279419H53.0757V2.93436H46.6979V20.7205H43.6237V2.93436H37.2559Z" fill="#0047AB"/>
<path d="M22.7254 20.7205H19.4517L26.8077 0.279419H30.3709L37.7269 20.7205H34.4531L28.6741 3.99235H28.5144L22.7254 20.7205ZM23.2744 12.7157H33.8942V15.3108H23.2744V12.7157Z" fill="#0047AB"/>
<path d="M16.4986 0.279419V20.7205H13.664L3.27376 5.72904H3.08413V20.7205H0V0.279419H2.85456L13.2548 15.2908H13.4444V0.279419H16.4986Z" fill="#0047AB"/>
<path d="M167.451 4.5C167.451 3.67157 168.123 3 168.951 3H314.158C314.987 3 315.658 3.67157 315.658 4.5C315.658 5.32843 314.987 6 314.158 6H168.951C168.123 6 167.451 5.32843 167.451 4.5Z" fill="#0047AB"/>
<path d="M167.451 16.5C167.451 15.6716 168.123 15 168.951 15H314.158C314.987 15 315.658 15.6716 315.658 16.5C315.658 17.3284 314.987 18 314.158 18H168.951C168.123 18 167.451 17.3284 167.451 16.5Z" fill="#0047AB"/>
<path d="M300.7 50.6619H297.435L304.77 30.279H308.323L315.658 50.6619H312.394L306.631 33.9814H306.472L300.7 50.6619ZM301.247 42.6799H311.836V45.2676H301.247V42.6799Z" fill="#0047AB"/>
<path d="M273.824 30.279H277.556L284.045 46.1235H284.284L290.773 30.279H294.505V50.6619H291.579V35.9122H291.39L285.379 50.6321H282.95L276.939 35.9022H276.75V50.6619H273.824V30.279Z" fill="#0047AB"/>
<path d="M269.99 40.4701C269.99 42.6464 269.592 44.5175 268.796 46.0834C267.999 47.6427 266.908 48.8436 265.521 49.6863C264.141 50.5223 262.572 50.9403 260.814 50.9403C259.049 50.9403 257.473 50.5223 256.086 49.6863C254.706 48.8436 253.618 47.6393 252.822 46.0735C252.026 44.5076 251.627 42.6398 251.627 40.4701C251.627 38.2938 252.026 36.4261 252.822 34.8668C253.618 33.3009 254.706 32.1 256.086 31.264C257.473 30.4213 259.049 30 260.814 30C262.572 30 264.141 30.4213 265.521 31.264C266.908 32.1 267.999 33.3009 268.796 34.8668C269.592 36.4261 269.99 38.2938 269.99 40.4701ZM266.944 40.4701C266.944 38.8114 266.676 37.4147 266.138 36.2801C265.608 35.1389 264.878 34.2763 263.949 33.6924C263.026 33.1019 261.981 32.8066 260.814 32.8066C259.639 32.8066 258.591 33.1019 257.669 33.6924C256.746 34.2763 256.017 35.1389 255.479 36.2801C254.948 37.4147 254.683 38.8114 254.683 40.4701C254.683 42.1289 254.948 43.5289 255.479 44.6701C256.017 45.8047 256.746 46.6673 257.669 47.2578C258.591 47.8417 259.639 48.1337 260.814 48.1337C261.981 48.1337 263.026 47.8417 263.949 47.2578C264.878 46.6673 265.608 45.8047 266.138 44.6701C266.676 43.5289 266.944 42.1289 266.944 40.4701Z" fill="#0047AB"/>
<path d="M237.258 50.6619V30.279H240.334V48.0145H249.57V50.6619H237.258Z" fill="#0047AB"/>
<path d="M219.331 50.6619V30.279H226.596C228.182 30.279 229.496 30.5676 230.538 31.1449C231.579 31.7221 232.359 32.5117 232.877 33.5136C233.394 34.5088 233.653 35.6302 233.653 36.8776C233.653 38.1316 233.391 39.2596 232.867 40.2615C232.349 41.2567 231.566 42.0463 230.518 42.6302C229.476 43.2074 228.166 43.4961 226.586 43.4961H221.59V40.8885H226.308C227.31 40.8885 228.123 40.716 228.746 40.3709C229.37 40.0193 229.828 39.5416 230.12 38.9378C230.412 38.334 230.558 37.6472 230.558 36.8776C230.558 36.1079 230.412 35.4245 230.12 34.8273C229.828 34.2302 229.367 33.7624 228.736 33.424C228.113 33.0856 227.29 32.9164 226.268 32.9164H222.406V50.6619H219.331Z" fill="#0047AB"/>
<path d="M214.853 30.279V50.6619H211.777V30.279H214.853Z" fill="#0047AB"/>
<path d="M198.148 50.6619H191.55V30.279H198.357C200.355 30.279 202.07 30.687 203.503 31.5032C204.936 32.3126 206.034 33.4771 206.797 34.9965C207.567 36.5093 207.952 38.324 207.952 40.4406C207.952 42.5638 207.564 44.3885 206.787 45.9145C206.018 47.4406 204.903 48.615 203.443 49.4378C201.983 50.2539 200.219 50.6619 198.148 50.6619ZM194.625 47.9747H197.979C199.532 47.9747 200.822 47.6828 201.851 47.0989C202.879 46.5084 203.649 45.6558 204.16 44.5411C204.671 43.4197 204.926 42.0529 204.926 40.4406C204.926 38.8416 204.671 37.4847 204.16 36.37C203.655 35.2553 202.902 34.4093 201.901 33.8321C200.899 33.2548 199.655 32.9662 198.168 32.9662H194.625V47.9747Z" fill="#0047AB"/>
<path d="M172.293 32.9264V30.279H188.068V32.9264H181.708V50.6619H178.643V32.9264H172.293Z" fill="#0047AB"/>
<path d="M155.23 50.6619V30.279H162.496C164.075 30.279 165.385 30.551 166.427 31.0951C167.475 31.6392 168.258 32.3923 168.776 33.3543C169.293 34.3098 169.552 35.4145 169.552 36.6686C169.552 37.916 169.29 39.0141 168.766 39.9629C168.248 40.9051 167.466 41.6382 166.417 42.1624C165.375 42.6866 164.065 42.9487 162.486 42.9487H156.982V40.3013H162.207C163.203 40.3013 164.012 40.1586 164.636 39.8733C165.266 39.588 165.727 39.1733 166.019 38.6292C166.311 38.0852 166.457 37.4316 166.457 36.6686C166.457 35.8989 166.308 35.2321 166.009 34.6681C165.717 34.1041 165.256 33.6728 164.626 33.3743C164.002 33.069 163.183 32.9164 162.167 32.9164H158.306V50.6619H155.23ZM165.293 41.4657L170.329 50.6619H166.825L161.889 41.4657H165.293Z" fill="#0047AB"/>
<path d="M151.397 40.4701C151.397 42.6464 150.999 44.5175 150.202 46.0834C149.406 47.6427 148.315 48.8436 146.928 49.6863C145.548 50.5223 143.979 50.9403 142.22 50.9403C140.455 50.9403 138.88 50.5223 137.493 49.6863C136.113 48.8436 135.025 47.6393 134.229 46.0735C133.432 44.5076 133.034 42.6398 133.034 40.4701C133.034 38.2938 133.432 36.4261 134.229 34.8668C135.025 33.3009 136.113 32.1 137.493 31.264C138.88 30.4213 140.455 30 142.22 30C143.979 30 145.548 30.4213 146.928 31.264C148.315 32.1 149.406 33.3009 150.202 34.8668C150.999 36.4261 151.397 38.2938 151.397 40.4701ZM148.351 40.4701C148.351 38.8114 148.083 37.4147 147.545 36.2801C147.014 35.1389 146.284 34.2763 145.356 33.6924C144.433 33.1019 143.388 32.8066 142.22 32.8066C141.046 32.8066 139.998 33.1019 139.075 33.6924C138.153 34.2763 137.423 35.1389 136.886 36.2801C136.355 37.4147 136.09 38.8114 136.09 40.4701C136.09 42.1289 136.355 43.5289 136.886 44.6701C137.423 45.8047 138.153 46.6673 139.075 47.2578C139.998 47.8417 141.046 48.1337 142.22 48.1337C143.388 48.1337 144.433 47.8417 145.356 47.2578C146.284 46.6673 147.014 45.8047 147.545 44.6701C148.083 43.5289 148.351 42.1289 148.351 40.4701Z" fill="#0047AB"/>
<path d="M115.763 50.6619V30.279H123.029C124.614 30.279 125.928 30.5676 126.97 31.1449C128.012 31.7221 128.791 32.5117 129.309 33.5136C129.826 34.5088 130.085 35.6302 130.085 36.8776C130.085 38.1316 129.823 39.2596 129.299 40.2615C128.781 41.2567 127.998 42.0463 126.95 42.6302C125.908 43.2074 124.598 43.4961 123.019 43.4961H118.022V40.8885H122.74C123.742 40.8885 124.555 40.716 125.178 40.3709C125.802 40.0193 126.26 39.5416 126.552 38.9378C126.844 38.334 126.99 37.6472 126.99 36.8776C126.99 36.1079 126.844 35.4245 126.552 34.8273C126.26 34.2302 125.799 33.7624 125.168 33.424C124.545 33.0856 123.722 32.9164 122.7 32.9164H118.839V50.6619H115.763Z" fill="#0047AB"/>
<path d="M108.85 35.6332C108.744 34.691 108.306 33.9611 107.536 33.4436C106.767 32.9194 105.798 32.6573 104.63 32.6573C103.794 32.6573 103.071 32.79 102.46 33.0555C101.85 33.3142 101.376 33.6725 101.037 34.1303C100.705 34.5815 100.54 35.0957 100.54 35.673C100.54 36.1573 100.652 36.5754 100.878 36.927C101.11 37.2787 101.412 37.5739 101.784 37.8128C102.162 38.045 102.567 38.2408 102.998 38.4C103.429 38.5526 103.844 38.6787 104.242 38.7782L106.232 39.2957C106.883 39.455 107.55 39.6706 108.233 39.9427C108.916 40.2147 109.55 40.573 110.134 41.0175C110.718 41.4621 111.189 42.0128 111.547 42.6697C111.912 43.3265 112.095 44.1128 112.095 45.0284C112.095 46.1829 111.796 47.2081 111.199 48.1038C110.608 48.9995 109.749 49.7062 108.621 50.2237C107.5 50.7412 106.143 51 104.55 51C103.024 51 101.704 50.7578 100.589 50.2735C99.4746 49.7891 98.6021 49.1024 97.9718 48.2133C97.3415 47.3175 96.9931 46.2559 96.9268 45.0284H100.012C100.072 45.7649 100.311 46.3787 100.729 46.8697C101.153 47.354 101.694 47.7156 102.351 47.9545C103.014 48.1867 103.741 48.3028 104.531 48.3028C105.4 48.3028 106.173 48.1668 106.85 47.8948C107.533 47.6161 108.07 47.2313 108.462 46.7403C108.853 46.2427 109.049 45.6621 109.049 44.9986C109.049 44.3948 108.877 43.9005 108.531 43.5156C108.193 43.1308 107.732 42.8123 107.148 42.5602C106.571 42.3081 105.917 42.0858 105.187 41.8934L102.779 41.2365C101.147 40.7919 99.8528 40.1384 98.8974 39.2758C97.9486 38.4133 97.4742 37.272 97.4742 35.8521C97.4742 34.6777 97.7926 33.6526 98.4296 32.7768C99.0666 31.9009 99.9291 31.2209 101.017 30.7365C102.105 30.2455 103.333 30 104.7 30C106.08 30 107.297 30.2422 108.352 30.7265C109.414 31.2109 110.25 31.8777 110.86 32.727C111.471 33.5697 111.789 34.5384 111.816 35.6332H108.85Z" fill="#0047AB"/>
<path d="M79.6626 50.6619V30.279H86.928C88.5072 30.279 89.8176 30.551 90.8593 31.0951C91.9076 31.6392 92.6906 32.3923 93.2081 33.3543C93.7256 34.3098 93.9844 35.4145 93.9844 36.6686C93.9844 37.916 93.7223 39.0141 93.1981 39.9629C92.6806 40.9051 91.8977 41.6382 90.8493 42.1624C89.8076 42.6866 88.4972 42.9487 86.9181 42.9487H81.4143V40.3013H86.6394C87.6346 40.3013 88.4441 40.1586 89.0678 39.8733C89.6981 39.588 90.1593 39.1733 90.4512 38.6292C90.7432 38.0852 90.8891 37.4316 90.8891 36.6686C90.8891 35.8989 90.7399 35.2321 90.4413 34.6681C90.1493 34.1041 89.6882 33.6728 89.0579 33.3743C88.4342 33.069 87.6147 32.9164 86.5996 32.9164H82.738V50.6619H79.6626ZM89.7247 41.4657L94.7607 50.6619H91.2574L86.3209 41.4657H89.7247Z" fill="#0047AB"/>
<path d="M62.7778 50.6619V30.279H75.557V32.9264H65.8532V39.1368H74.8902V41.7743H65.8532V48.0145H75.6764V50.6619H62.7778Z" fill="#0047AB"/>
<path d="M43.5176 32.9264V30.279H59.2925V32.9264H52.9327V50.6619H49.8673V32.9264H43.5176Z" fill="#0047AB"/>
<path d="M29.0291 50.6619H25.7646L33.0997 30.279H36.6528L43.9879 50.6619H40.7234L34.9609 33.9814H34.8016L29.0291 50.6619ZM29.5765 42.6799H40.1661V45.2676H29.5765V42.6799Z" fill="#0047AB"/>
<path d="M5.65308 50.6619L0 30.279H3.2346L7.20569 46.0638H7.39479L11.5251 30.279H14.7299L18.8602 46.0738H19.0493L23.0104 30.279H26.255L20.5919 50.6619H17.4967L13.2071 35.3946H13.0479L8.75829 50.6619H5.65308Z" fill="#0047AB"/>
</svg>
